<svg xmlns="http://www.w3.org/2000/svg" viewBox="278 258 82 82">
<path fill-rule="nonzero" fill="rgb(9.411621%, 10.980225%, 38.430786%)" fill-opacity="1" d="M 325.933594 277.117188 C 318.746094 273.28125 310.078125 273.496094 303.089844 277.683594 C 296.105469 281.875 291.832031 289.421875 291.832031 297.566406 C 291.832031 305.710938 296.105469 313.261719 303.089844 317.449219 C 310.078125 321.640625 318.746094 321.855469 325.933594 318.019531 C 328.503906 316.644531 331.703125 317.621094 333.078125 320.191406 C 334.449219 322.761719 333.476562 325.960938 330.90625 327.335938 C 320.445312 332.917969 307.824219 332.605469 297.660156 326.507812 C 287.492188 320.410156 281.269531 309.425781 281.269531 297.566406 C 281.269531 285.710938 287.492188 274.726562 297.660156 268.628906 C 307.824219 262.53125 320.445312 262.214844 330.90625 267.800781 C 333.476562 269.171875 334.449219 272.371094 333.078125 274.945312 C 331.703125 277.515625 328.503906 278.488281 325.933594 277.117188 "/>
<path fill-rule="nonzero" fill="rgb(76.863098%, 5.882263%, 14.117432%)" fill-opacity="1" d="M 336.300781 280.566406 C 335.605469 279.6875 334.324219 279.542969 333.449219 280.246094 C 332.574219 280.945312 332.429688 282.222656 333.128906 283.097656 C 339.886719 291.5625 339.886719 303.574219 333.128906 312.035156 C 332.429688 312.914062 332.574219 314.191406 333.449219 314.890625 C 334.324219 315.589844 335.605469 315.449219 336.300781 314.570312 C 344.246094 304.628906 344.246094 290.507812 336.300781 280.566406 "/>
<path fill-rule="nonzero" fill="rgb(76.863098%, 5.882263%, 14.117432%)" fill-opacity="1" d="M 341.113281 273.015625 C 340.257812 273.738281 340.144531 275.019531 340.863281 275.878906 C 351.390625 288.421875 351.390625 306.710938 340.863281 319.257812 C 340.144531 320.117188 340.257812 321.398438 341.113281 322.117188 C 341.976562 322.839844 343.253906 322.726562 343.976562 321.867188 C 355.769531 307.8125 355.769531 287.320312 343.976562 273.265625 C 343.253906 272.410156 341.976562 272.296875 341.113281 273.015625 "/>
<path fill-rule="nonzero" fill="rgb(76.863098%, 5.882263%, 14.117432%)" fill-opacity="1" d="M 315.011719 284.128906 C 307.59375 284.128906 301.578125 290.144531 301.578125 297.566406 C 301.578125 304.988281 307.59375 311.003906 315.011719 311.003906 C 322.433594 311.003906 328.449219 304.988281 328.449219 297.566406 C 328.449219 290.144531 322.433594 284.128906 315.011719 284.128906 "/>
</svg>
