<?xml version="1.0" encoding="UTF-8" standalone="no"?>
<!DOCTYPE svg PUBLIC "-//W3C//DTD SVG 1.1//EN" "http://www.w3.org/Graphics/SVG/1.1/DTD/svg11.dtd">
<svg width="100%" height="100%" viewBox="0 0 296 88" version="1.1" xmlns="http://www.w3.org/2000/svg" xmlns:xlink="http://www.w3.org/1999/xlink" xml:space="preserve" xmlns:serif="http://www.serif.com/" style="fill-rule:evenodd;clip-rule:evenodd;stroke-linejoin:round;stroke-miterlimit:2;">
    <g transform="matrix(1.248934,0,0,1.248934,-431.036839,-328.928645)">
        <path d="M392.824,314.586L384.098,314.586L375.922,301.957L373.406,304.535L373.406,314.586L366.043,314.586L366.043,282.609L373.406,282.609L373.406,295.738L383.656,282.609L392.52,282.609L381.047,297.305L392.824,314.586Z" style="fill:rgb(254,254,254);fill-rule:nonzero;"/>
    </g>
    <g transform="matrix(1.248934,0,0,1.248934,-431.036839,-328.928645)">
        <path d="M445.703,295.969C445.273,296.758 444.676,297.312 443.914,297.633C443.148,297.957 441.234,298.117 438.168,298.117L435.527,298.117L435.527,288.137L438.43,288.137C441.02,288.137 442.57,288.18 443.09,288.27C444.129,288.484 444.93,289 445.496,289.812C446.066,290.625 446.352,291.695 446.352,293.02C446.352,294.199 446.133,295.184 445.703,295.969M447.449,302.504C449.293,301.914 450.734,300.934 451.777,299.559C453.125,297.781 453.797,295.531 453.797,292.801C453.797,290.656 453.273,288.746 452.219,287.074C451.168,285.402 449.766,284.242 448.016,283.59C446.266,282.938 443.457,282.609 439.59,282.609L428.16,282.609L428.16,314.586L435.527,314.586L435.527,303.645L440.723,303.645C442.605,307.289 444.492,310.938 446.379,314.586L454.188,314.586C451.941,310.559 449.695,306.531 447.449,302.504" style="fill:rgb(254,254,254);fill-rule:nonzero;"/>
    </g>
    <g transform="matrix(1.248934,0,0,1.248934,-431.036839,-328.928645)">
        <path d="M525.5,314.586L518.059,314.586L505.422,293.965L505.422,314.586L498.453,314.586L498.453,282.609L506.516,282.609L518.531,302.219L518.531,282.609L525.5,282.609L525.5,314.586Z" style="fill:rgb(254,254,254);fill-rule:nonzero;"/>
    </g>
    <g transform="matrix(1.248934,0,0,1.248934,-431.036839,-328.928645)">
        <rect x="483.871" y="282.609" width="7.363" height="31.977" style="fill:rgb(254,254,254);fill-rule:nonzero;"/>
    </g>
    <g transform="matrix(1.248934,0,0,1.248934,-431.036839,-328.928645)">
        <path d="M479.746,308.41L479.746,314.586L459.262,314.586L459.262,283.008L466.629,283.008L466.629,308.41L479.746,308.41Z" style="fill:rgb(254,254,254);fill-rule:nonzero;"/>
    </g>
    <g transform="matrix(1.248934,0,0,1.248934,-431.036839,-328.928645)">
        <path d="M415.98,299.156C415.973,299.371 415.965,299.586 415.953,299.801C415.941,300.004 415.926,300.211 415.906,300.418C415.887,300.617 415.867,300.816 415.844,301.016C415.816,301.207 415.789,301.398 415.758,301.59C415.73,301.773 415.695,301.957 415.66,302.141C415.621,302.316 415.582,302.496 415.539,302.668C415.5,302.84 415.453,303.004 415.402,303.172C415.355,303.336 415.305,303.5 415.254,303.656C415.199,303.809 415.141,303.965 415.082,304.117C415.051,304.188 415.02,304.262 414.992,304.336C414.961,304.41 414.926,304.48 414.895,304.555C414.863,304.625 414.828,304.691 414.797,304.762L414.691,304.965C414.656,305.035 414.621,305.098 414.582,305.164C414.547,305.23 414.508,305.293 414.469,305.359L414.352,305.547C414.312,305.609 414.273,305.668 414.23,305.73C414.191,305.789 414.148,305.848 414.105,305.906C414.086,305.938 414.062,305.965 414.043,305.992C414.031,306.008 414.02,306.023 414.008,306.035C414,306.051 413.988,306.066 413.977,306.078C413.965,306.094 413.953,306.105 413.945,306.121C413.934,306.137 413.922,306.148 413.91,306.164C413.898,306.176 413.887,306.191 413.879,306.203C413.867,306.219 413.855,306.23 413.844,306.246L413.773,306.328C413.766,306.34 413.754,306.355 413.742,306.367L413.707,306.406C413.684,306.434 413.66,306.457 413.633,306.488C413.609,306.512 413.59,306.539 413.562,306.566C413.539,306.59 413.516,306.617 413.492,306.641C413.465,306.668 413.441,306.695 413.418,306.719C413.371,306.77 413.32,306.82 413.27,306.867C413.219,306.918 413.172,306.965 413.121,307.012C413.07,307.059 413.02,307.105 412.969,307.148C412.918,307.195 412.863,307.238 412.812,307.281C412.762,307.328 412.707,307.367 412.656,307.41C412.605,307.453 412.551,307.492 412.496,307.535C412.391,307.613 412.281,307.688 412.172,307.762C412.062,307.832 411.953,307.906 411.84,307.973C411.727,308.039 411.613,308.102 411.496,308.16C411.379,308.219 411.262,308.277 411.145,308.328C411.023,308.383 410.902,308.43 410.781,308.477C410.656,308.523 410.531,308.566 410.406,308.609C410.277,308.648 410.152,308.684 410.023,308.719C409.895,308.75 409.762,308.781 409.629,308.809C409.492,308.836 409.359,308.859 409.223,308.879C409.082,308.898 408.941,308.914 408.805,308.93C408.66,308.941 408.516,308.953 408.375,308.961C408.227,308.965 408.082,308.969 407.934,308.969C407.785,308.969 407.637,308.965 407.492,308.961C407.348,308.953 407.203,308.941 407.062,308.93C406.922,308.914 406.785,308.898 406.645,308.879C406.508,308.855 406.371,308.832 406.238,308.805C406.172,308.793 406.105,308.777 406.039,308.766C405.973,308.75 405.906,308.734 405.84,308.715L405.648,308.664C405.582,308.645 405.52,308.625 405.457,308.605C405.332,308.562 405.207,308.52 405.082,308.473C405.023,308.453 404.961,308.426 404.898,308.402C404.84,308.375 404.777,308.352 404.719,308.324C404.656,308.297 404.598,308.27 404.539,308.242L404.363,308.156C404.246,308.094 404.129,308.031 404.016,307.961C403.961,307.93 403.902,307.895 403.848,307.859C403.793,307.824 403.734,307.789 403.68,307.754C403.625,307.715 403.57,307.676 403.516,307.641C403.461,307.602 403.406,307.562 403.355,307.52C403.301,307.48 403.246,307.438 403.191,307.398L403.035,307.27L402.875,307.133C402.824,307.086 402.773,307.043 402.723,306.996C402.672,306.945 402.621,306.898 402.57,306.848C402.547,306.824 402.52,306.801 402.496,306.773C402.469,306.75 402.445,306.723 402.422,306.699C402.395,306.672 402.371,306.648 402.348,306.625C402.32,306.598 402.297,306.57 402.273,306.543C402.25,306.516 402.227,306.492 402.199,306.465C402.176,306.438 402.152,306.41 402.129,306.383C402.105,306.355 402.082,306.332 402.059,306.305C402.035,306.277 402.012,306.25 401.988,306.223C401.965,306.191 401.941,306.164 401.922,306.137C401.898,306.109 401.875,306.082 401.852,306.055C401.809,305.996 401.637,305.762 401.594,305.703C401.555,305.641 401.512,305.578 401.473,305.52C401.434,305.457 401.391,305.395 401.355,305.332C401.277,305.203 401.199,305.074 401.129,304.941C401.059,304.805 400.988,304.668 400.922,304.527C400.855,304.387 400.793,304.242 400.73,304.094C400.672,303.945 400.613,303.793 400.562,303.641C400.504,303.484 400.453,303.324 400.402,303.164C400.355,303 400.312,302.832 400.27,302.668C400.227,302.496 400.184,302.32 400.145,302.148C400.109,301.969 400.078,301.789 400.047,301.609C400.016,301.422 399.988,301.234 399.965,301.043C399.938,300.848 399.918,300.652 399.898,300.461C399.887,300.359 399.879,300.258 399.871,300.156C399.863,300.055 399.855,299.953 399.852,299.855C399.844,299.75 399.84,299.645 399.836,299.539C399.828,299.434 399.824,299.332 399.824,299.227C399.82,299.117 399.816,299.008 399.816,298.898C399.812,298.793 399.812,298.684 399.812,298.574C399.812,298.465 399.812,298.355 399.816,298.246C399.816,298.137 399.82,298.023 399.824,297.914C399.824,297.809 399.828,297.703 399.832,297.594C399.84,297.488 399.844,297.383 399.852,297.273C399.863,297.07 399.879,296.867 399.895,296.66C399.914,296.465 399.934,296.266 399.961,296.07C399.984,295.879 400.012,295.688 400.039,295.5C400.07,295.316 400.105,295.137 400.141,294.953C400.176,294.777 400.215,294.605 400.258,294.43C400.297,294.262 400.344,294.094 400.391,293.934C400.438,293.77 400.488,293.609 400.543,293.453C400.594,293.301 400.648,293.148 400.711,293C400.77,292.855 400.828,292.711 400.895,292.566C400.957,292.43 401.023,292.293 401.098,292.16C401.164,292.027 401.238,291.898 401.312,291.773C401.391,291.648 401.465,291.527 401.547,291.41C401.629,291.293 401.711,291.176 401.801,291.066C401.883,290.953 401.973,290.848 402.062,290.742C402.156,290.641 402.25,290.535 402.352,290.438C402.445,290.34 402.543,290.242 402.645,290.148C402.742,290.059 402.844,289.969 402.949,289.887C403.055,289.801 403.156,289.719 403.266,289.641C403.371,289.562 403.48,289.484 403.59,289.414C403.699,289.344 403.812,289.273 403.926,289.207C404.039,289.145 404.156,289.082 404.273,289.023C404.391,288.965 404.508,288.906 404.629,288.855C404.754,288.805 404.875,288.758 405,288.711C405.125,288.664 405.254,288.621 405.383,288.582C405.512,288.543 405.641,288.508 405.773,288.473C405.91,288.438 406.043,288.41 406.18,288.387C406.32,288.359 406.461,288.336 406.602,288.316C406.742,288.297 406.887,288.277 407.031,288.266C407.18,288.25 407.324,288.242 407.477,288.234C407.629,288.227 407.781,288.227 407.934,288.227C408.086,288.227 408.238,288.227 408.391,288.234C408.539,288.242 408.688,288.25 408.836,288.266C408.98,288.277 409.125,288.293 409.266,288.312C409.406,288.332 409.547,288.355 409.688,288.383C409.754,288.395 409.82,288.41 409.891,288.426C409.957,288.438 410.023,288.453 410.09,288.473C410.156,288.488 410.223,288.504 410.289,288.523C410.352,288.539 410.418,288.559 410.48,288.578C410.609,288.613 410.738,288.656 410.863,288.703C410.926,288.727 410.988,288.75 411.047,288.773C411.109,288.801 411.172,288.82 411.23,288.852C411.289,288.875 411.352,288.898 411.41,288.93C411.469,288.953 411.527,288.984 411.586,289.016C411.703,289.07 411.816,289.133 411.93,289.195C411.984,289.23 412.043,289.262 412.098,289.297C412.152,289.328 412.207,289.363 412.262,289.398C412.316,289.434 412.371,289.473 412.426,289.508C412.48,289.547 412.535,289.582 412.586,289.621C412.641,289.66 412.691,289.699 412.742,289.742C412.797,289.781 412.848,289.82 412.898,289.863C412.949,289.906 413,289.949 413.051,289.992C413.102,290.035 413.148,290.082 413.199,290.125C413.25,290.172 413.297,290.219 413.344,290.266C413.371,290.289 413.395,290.312 413.418,290.336C413.441,290.359 413.465,290.383 413.492,290.406C413.512,290.434 413.539,290.457 413.562,290.48C413.586,290.508 413.609,290.531 413.633,290.559C413.656,290.582 413.68,290.605 413.699,290.633C413.723,290.66 413.746,290.688 413.77,290.711C413.793,290.734 413.816,290.762 413.84,290.789C413.859,290.812 413.883,290.84 413.902,290.867C413.926,290.895 413.949,290.918 413.969,290.945C413.992,290.973 414.012,291 414.031,291.027C414.074,291.082 414.117,291.141 414.16,291.195C414.199,291.254 414.238,291.309 414.281,291.367C414.32,291.426 414.359,291.484 414.398,291.547C414.438,291.605 414.473,291.668 414.512,291.727C414.586,291.852 414.656,291.98 414.727,292.109C414.797,292.242 414.859,292.379 414.922,292.516C414.988,292.656 415.047,292.797 415.105,292.941C415.164,293.094 415.219,293.242 415.27,293.391C415.324,293.551 415.375,293.707 415.422,293.867C415.469,294.031 415.512,294.195 415.551,294.363C415.594,294.535 415.633,294.711 415.668,294.883C415.703,295.062 415.734,295.246 415.766,295.426C415.797,295.613 415.824,295.805 415.848,295.992C415.871,296.188 415.891,296.387 415.91,296.582C415.926,296.785 415.941,296.988 415.953,297.195C415.965,297.406 415.977,297.617 415.98,297.828C415.988,298.051 415.988,298.266 415.988,298.488C415.988,298.711 415.988,298.934 415.98,299.156M419.012,286.41C416.223,283.48 412.504,282.016 407.859,282.016C405.293,282.016 403.027,282.438 401.062,283.285C399.586,283.91 398.227,284.875 396.984,286.172C395.746,287.469 394.766,288.938 394.051,290.57C393.09,292.785 392.609,295.523 392.609,298.793C392.609,303.898 393.992,307.906 396.762,310.816C399.527,313.723 403.258,315.18 407.945,315.18C412.578,315.18 416.277,313.719 419.043,310.793C421.809,307.871 423.195,303.816 423.195,298.641C423.195,293.418 421.797,289.344 419.012,286.41" style="fill:rgb(254,254,254);fill-rule:nonzero;"/>
    </g>
    <g transform="matrix(1.248934,0,0,1.248934,-431.036839,-328.928645)">
        <path d="M552.402,295.68L561.207,282.809L552.684,282.809L548.145,289.445L552.402,295.68Z" style="fill:rgb(196,14,35);fill-rule:nonzero;"/>
    </g>
    <g transform="matrix(1.248934,0,0,1.248934,-431.036839,-328.928645)">
        <path d="M550.273,298.793L546.012,292.559L539.348,282.809L530.828,282.809L541.75,298.793L530.828,314.781L539.348,314.781L546.012,305.027L552.676,314.781L561.199,314.781L550.273,298.793Z" style="fill:rgb(196,14,35);fill-rule:nonzero;"/>
    </g>
</svg>
