<svg xmlns="http://www.w3.org/2000/svg" xmlns:xlink="http://www.w3.org/1999/xlink" viewBox="273 252 296 88" width="296" height="88">
<path fill-rule="nonzero" fill="rgb(100%, 100%, 100%)" fill-opacity="1" d="M 392.824219 314.585938 L 384.097656 314.585938 L 375.921875 301.957031 L 373.40625 304.535156 L 373.40625 314.585938 L 366.042969 314.585938 L 366.042969 282.609375 L 373.40625 282.609375 L 373.40625 295.738281 L 383.65625 282.609375 L 392.519531 282.609375 L 381.046875 297.304688 Z M 392.824219 314.585938 "/>
<path fill-rule="nonzero" fill="rgb(100%, 100%, 100%)" fill-opacity="1" d="M 445.703125 295.96875 C 445.273438 296.757812 444.675781 297.3125 443.914062 297.632812 C 443.148438 297.957031 441.234375 298.117188 438.167969 298.117188 L 435.527344 298.117188 L 435.527344 288.136719 L 438.429688 288.136719 C 441.019531 288.136719 442.570312 288.179688 443.089844 288.269531 C 444.128906 288.484375 444.929688 289 445.496094 289.8125 C 446.066406 290.625 446.351562 291.695312 446.351562 293.019531 C 446.351562 294.199219 446.132812 295.183594 445.703125 295.96875 M 447.449219 302.503906 C 449.292969 301.914062 450.734375 300.933594 451.777344 299.558594 C 453.125 297.78125 453.796875 295.53125 453.796875 292.800781 C 453.796875 290.65625 453.273438 288.746094 452.21875 287.074219 C 451.167969 285.402344 449.765625 284.242188 448.015625 283.589844 C 446.265625 282.9375 443.457031 282.609375 439.589844 282.609375 L 428.160156 282.609375 L 428.160156 314.585938 L 435.527344 314.585938 L 435.527344 303.644531 L 440.722656 303.644531 C 442.605469 307.289062 444.492188 310.9375 446.378906 314.585938 L 454.1875 314.585938 C 451.941406 310.558594 449.695312 306.53125 447.449219 302.503906 "/>
<path fill-rule="nonzero" fill="rgb(100%, 100%, 100%)" fill-opacity="1" d="M 525.5 314.585938 L 518.058594 314.585938 L 505.421875 293.964844 L 505.421875 314.585938 L 498.453125 314.585938 L 498.453125 282.609375 L 506.515625 282.609375 L 518.53125 302.21875 L 518.53125 282.609375 L 525.5 282.609375 Z M 525.5 314.585938 "/>
<path fill-rule="nonzero" fill="rgb(100%, 100%, 100%)" fill-opacity="1" d="M 483.871094 282.609375 L 491.234375 282.609375 L 491.234375 314.585938 L 483.871094 314.585938 Z M 483.871094 282.609375 "/>
<path fill-rule="nonzero" fill="rgb(100%, 100%, 100%)" fill-opacity="1" d="M 479.746094 308.410156 L 479.746094 314.585938 L 459.261719 314.585938 L 459.261719 283.007812 L 466.628906 283.007812 L 466.628906 308.410156 Z M 479.746094 308.410156 "/>
<path fill-rule="nonzero" fill="rgb(100%, 100%, 100%)" fill-opacity="1" d="M 415.980469 299.15625 C 415.972656 299.371094 415.964844 299.585938 415.953125 299.800781 C 415.941406 300.003906 415.925781 300.210938 415.90625 300.417969 C 415.886719 300.617188 415.867188 300.816406 415.84375 301.015625 C 415.816406 301.207031 415.789062 301.398438 415.757812 301.589844 C 415.730469 301.773438 415.695312 301.957031 415.660156 302.140625 C 415.621094 302.316406 415.582031 302.496094 415.539062 302.667969 C 415.5 302.839844 415.453125 303.003906 415.402344 303.171875 C 415.355469 303.335938 415.304688 303.5 415.253906 303.65625 C 415.199219 303.808594 415.140625 303.964844 415.082031 304.117188 C 415.050781 304.1875 415.019531 304.261719 414.992188 304.335938 C 414.960938 304.410156 414.925781 304.480469 414.894531 304.554688 C 414.863281 304.625 414.828125 304.691406 414.796875 304.761719 L 414.691406 304.964844 C 414.65625 305.035156 414.621094 305.097656 414.582031 305.164062 C 414.546875 305.230469 414.507812 305.292969 414.46875 305.359375 L 414.351562 305.546875 C 414.3125 305.609375 414.273438 305.667969 414.230469 305.730469 C 414.191406 305.789062 414.148438 305.847656 414.105469 305.90625 C 414.085938 305.9375 414.0625 305.964844 414.042969 305.992188 C 414.03125 306.007812 414.019531 306.023438 414.007812 306.035156 C 414 306.050781 413.988281 306.066406 413.976562 306.078125 C 413.964844 306.09375 413.953125 306.105469 413.945312 306.121094 C 413.933594 306.136719 413.921875 306.148438 413.910156 306.164062 C 413.898438 306.175781 413.886719 306.191406 413.878906 306.203125 C 413.867188 306.21875 413.855469 306.230469 413.84375 306.246094 L 413.773438 306.328125 C 413.765625 306.339844 413.753906 306.355469 413.742188 306.367188 L 413.707031 306.40625 C 413.683594 306.433594 413.660156 306.457031 413.632812 306.488281 C 413.609375 306.511719 413.589844 306.539062 413.5625 306.566406 C 413.539062 306.589844 413.515625 306.617188 413.492188 306.640625 C 413.464844 306.667969 413.441406 306.695312 413.417969 306.71875 C 413.371094 306.769531 413.320312 306.820312 413.269531 306.867188 C 413.21875 306.917969 413.171875 306.964844 413.121094 307.011719 C 413.070312 307.058594 413.019531 307.105469 412.96875 307.148438 C 412.917969 307.195312 412.863281 307.238281 412.8125 307.28125 C 412.761719 307.328125 412.707031 307.367188 412.65625 307.410156 C 412.605469 307.453125 412.550781 307.492188 412.496094 307.535156 C 412.390625 307.613281 412.28125 307.6875 412.171875 307.761719 C 412.0625 307.832031 411.953125 307.90625 411.839844 307.972656 C 411.726562 308.039062 411.613281 308.101562 411.496094 308.160156 C 411.378906 308.21875 411.261719 308.277344 411.144531 308.328125 C 411.023438 308.382812 410.902344 308.429688 410.78125 308.476562 C 410.65625 308.523438 410.53125 308.566406 410.40625 308.609375 C 410.277344 308.648438 410.152344 308.683594 410.023438 308.71875 C 409.894531 308.75 409.761719 308.78125 409.628906 308.808594 C 409.492188 308.835938 409.359375 308.859375 409.222656 308.878906 C 409.082031 308.898438 408.941406 308.914062 408.804688 308.929688 C 408.660156 308.941406 408.515625 308.953125 408.375 308.960938 C 408.226562 308.964844 408.082031 308.96875 407.933594 308.96875 C 407.785156 308.96875 407.636719 308.964844 407.492188 308.960938 C 407.347656 308.953125 407.203125 308.941406 407.0625 308.929688 C 406.921875 308.914062 406.785156 308.898438 406.644531 308.878906 C 406.507812 308.855469 406.371094 308.832031 406.238281 308.804688 C 406.171875 308.792969 406.105469 308.777344 406.039062 308.765625 C 405.972656 308.75 405.90625 308.734375 405.839844 308.714844 L 405.648438 308.664062 C 405.582031 308.644531 405.519531 308.625 405.457031 308.605469 C 405.332031 308.5625 405.207031 308.519531 405.082031 308.472656 C 405.023438 308.453125 404.960938 308.425781 404.898438 308.402344 C 404.839844 308.375 404.777344 308.351562 404.71875 308.324219 C 404.65625 308.296875 404.597656 308.269531 404.539062 308.242188 L 404.363281 308.15625 C 404.246094 308.09375 404.128906 308.03125 404.015625 307.960938 C 403.960938 307.929688 403.902344 307.894531 403.847656 307.859375 C 403.792969 307.824219 403.734375 307.789062 403.679688 307.753906 C 403.625 307.714844 403.570312 307.675781 403.515625 307.640625 C 403.460938 307.601562 403.40625 307.5625 403.355469 307.519531 C 403.300781 307.480469 403.246094 307.4375 403.191406 307.398438 L 403.035156 307.269531 L 402.875 307.132812 C 402.824219 307.085938 402.773438 307.042969 402.722656 306.996094 C 402.671875 306.945312 402.621094 306.898438 402.570312 306.847656 C 402.546875 306.824219 402.519531 306.800781 402.496094 306.773438 C 402.46875 306.75 402.445312 306.722656 402.421875 306.699219 C 402.394531 306.671875 402.371094 306.648438 402.347656 306.625 C 402.320312 306.597656 402.296875 306.570312 402.273438 306.542969 C 402.25 306.515625 402.226562 306.492188 402.199219 306.464844 C 402.175781 306.4375 402.152344 306.410156 402.128906 306.382812 C 402.105469 306.355469 402.082031 306.332031 402.058594 306.304688 C 402.035156 306.277344 402.011719 306.25 401.988281 306.222656 C 401.964844 306.191406 401.941406 306.164062 401.921875 306.136719 C 401.898438 306.109375 401.875 306.082031 401.851562 306.054688 C 401.808594 305.996094 401.765625 305.9375 401.722656 305.878906 C 401.679688 305.820312 401.636719 305.761719 401.59375 305.703125 C 401.554688 305.640625 401.511719 305.578125 401.472656 305.519531 C 401.433594 305.457031 401.390625 305.394531 401.355469 305.332031 C 401.277344 305.203125 401.199219 305.074219 401.128906 304.941406 C 401.058594 304.804688 400.988281 304.667969 400.921875 304.527344 C 400.855469 304.386719 400.792969 304.242188 400.730469 304.09375 C 400.671875 303.945312 400.613281 303.792969 400.5625 303.640625 C 400.503906 303.484375 400.453125 303.324219 400.402344 303.164062 C 400.355469 303 400.3125 302.832031 400.269531 302.667969 C 400.226562 302.496094 400.183594 302.320312 400.144531 302.148438 C 400.109375 301.96875 400.078125 301.789062 400.046875 301.609375 C 400.015625 301.421875 399.988281 301.234375 399.964844 301.042969 C 399.9375 300.847656 399.917969 300.652344 399.898438 300.460938 C 399.886719 300.359375 399.878906 300.257812 399.871094 300.15625 C 399.863281 300.054688 399.855469 299.953125 399.851562 299.855469 C 399.84375 299.75 399.839844 299.644531 399.835938 299.539062 C 399.828125 299.433594 399.824219 299.332031 399.824219 299.226562 C 399.820312 299.117188 399.816406 299.007812 399.816406 298.898438 C 399.8125 298.792969 399.8125 298.683594 399.8125 298.574219 C 399.8125 298.464844 399.8125 298.355469 399.816406 298.246094 C 399.816406 298.136719 399.820312 298.023438 399.824219 297.914062 C 399.824219 297.808594 399.828125 297.703125 399.832031 297.59375 C 399.839844 297.488281 399.84375 297.382812 399.851562 297.273438 C 399.863281 297.070312 399.878906 296.867188 399.894531 296.660156 C 399.914062 296.464844 399.933594 296.265625 399.960938 296.070312 C 399.984375 295.878906 400.011719 295.6875 400.039062 295.5 C 400.070312 295.316406 400.105469 295.136719 400.140625 294.953125 C 400.175781 294.777344 400.214844 294.605469 400.257812 294.429688 C 400.296875 294.261719 400.34375 294.09375 400.390625 293.933594 C 400.4375 293.769531 400.488281 293.609375 400.542969 293.453125 C 400.59375 293.300781 400.648438 293.148438 400.710938 293 C 400.769531 292.855469 400.828125 292.710938 400.894531 292.566406 C 400.957031 292.429688 401.023438 292.292969 401.097656 292.160156 C 401.164062 292.027344 401.238281 291.898438 401.3125 291.773438 C 401.390625 291.648438 401.464844 291.527344 401.546875 291.410156 C 401.628906 291.292969 401.710938 291.175781 401.800781 291.066406 C 401.882812 290.953125 401.972656 290.847656 402.0625 290.742188 C 402.15625 290.640625 402.25 290.535156 402.351562 290.4375 C 402.445312 290.339844 402.542969 290.242188 402.644531 290.148438 C 402.742188 290.058594 402.84375 289.96875 402.949219 289.886719 C 403.054688 289.800781 403.15625 289.71875 403.265625 289.640625 C 403.371094 289.5625 403.480469 289.484375 403.589844 289.414062 C 403.699219 289.34375 403.8125 289.273438 403.925781 289.207031 C 404.039062 289.144531 404.15625 289.082031 404.273438 289.023438 C 404.390625 288.964844 404.507812 288.90625 404.628906 288.855469 C 404.753906 288.804688 404.875 288.757812 405 288.710938 C 405.125 288.664062 405.253906 288.621094 405.382812 288.582031 C 405.511719 288.542969 405.640625 288.507812 405.773438 288.472656 C 405.910156 288.4375 406.042969 288.410156 406.179688 288.386719 C 406.320312 288.359375 406.460938 288.335938 406.601562 288.316406 C 406.742188 288.296875 406.886719 288.277344 407.03125 288.265625 C 407.179688 288.25 407.324219 288.242188 407.476562 288.234375 C 407.628906 288.226562 407.78125 288.226562 407.933594 288.226562 C 408.085938 288.226562 408.238281 288.226562 408.390625 288.234375 C 408.539062 288.242188 408.6875 288.25 408.835938 288.265625 C 408.980469 288.277344 409.125 288.292969 409.265625 288.3125 C 409.40625 288.332031 409.546875 288.355469 409.6875 288.382812 C 409.753906 288.394531 409.820312 288.410156 409.890625 288.425781 C 409.957031 288.4375 410.023438 288.453125 410.089844 288.472656 C 410.15625 288.488281 410.222656 288.503906 410.289062 288.523438 C 410.351562 288.539062 410.417969 288.558594 410.480469 288.578125 C 410.609375 288.613281 410.738281 288.65625 410.863281 288.703125 C 410.925781 288.726562 410.988281 288.75 411.046875 288.773438 C 411.109375 288.800781 411.171875 288.820312 411.230469 288.851562 C 411.289062 288.875 411.351562 288.898438 411.410156 288.929688 C 411.46875 288.953125 411.527344 288.984375 411.585938 289.015625 C 411.703125 289.070312 411.816406 289.132812 411.929688 289.195312 C 411.984375 289.230469 412.042969 289.261719 412.097656 289.296875 C 412.152344 289.328125 412.207031 289.363281 412.261719 289.398438 C 412.316406 289.433594 412.371094 289.472656 412.425781 289.507812 C 412.480469 289.546875 412.535156 289.582031 412.585938 289.621094 C 412.640625 289.660156 412.691406 289.699219 412.742188 289.742188 C 412.796875 289.78125 412.847656 289.820312 412.898438 289.863281 C 412.949219 289.90625 413 289.949219 413.050781 289.992188 C 413.101562 290.035156 413.148438 290.082031 413.199219 290.125 C 413.25 290.171875 413.296875 290.21875 413.34375 290.265625 C 413.371094 290.289062 413.394531 290.3125 413.417969 290.335938 C 413.441406 290.359375 413.464844 290.382812 413.492188 290.40625 C 413.511719 290.433594 413.539062 290.457031 413.5625 290.480469 C 413.585938 290.507812 413.609375 290.53125 413.632812 290.558594 C 413.65625 290.582031 413.679688 290.605469 413.699219 290.632812 C 413.722656 290.660156 413.746094 290.6875 413.769531 290.710938 C 413.792969 290.734375 413.816406 290.761719 413.839844 290.789062 C 413.859375 290.8125 413.882812 290.839844 413.902344 290.867188 C 413.925781 290.894531 413.949219 290.917969 413.96875 290.945312 C 413.992188 290.972656 414.011719 291 414.03125 291.027344 C 414.074219 291.082031 414.117188 291.140625 414.160156 291.195312 C 414.199219 291.253906 414.238281 291.308594 414.28125 291.367188 C 414.320312 291.425781 414.359375 291.484375 414.398438 291.546875 C 414.4375 291.605469 414.472656 291.667969 414.511719 291.726562 C 414.585938 291.851562 414.65625 291.980469 414.726562 292.109375 C 414.796875 292.242188 414.859375 292.378906 414.921875 292.515625 C 414.988281 292.65625 415.046875 292.796875 415.105469 292.941406 C 415.164062 293.09375 415.21875 293.242188 415.269531 293.390625 C 415.324219 293.550781 415.375 293.707031 415.421875 293.867188 C 415.46875 294.03125 415.511719 294.195312 415.550781 294.363281 C 415.59375 294.535156 415.632812 294.710938 415.667969 294.882812 C 415.703125 295.0625 415.734375 295.246094 415.765625 295.425781 C 415.796875 295.613281 415.824219 295.804688 415.847656 295.992188 C 415.871094 296.1875 415.890625 296.386719 415.910156 296.582031 C 415.925781 296.785156 415.941406 296.988281 415.953125 297.195312 C 415.964844 297.40625 415.976562 297.617188 415.980469 297.828125 C 415.988281 298.050781 415.988281 298.265625 415.988281 298.488281 C 415.988281 298.710938 415.988281 298.933594 415.980469 299.15625 M 419.011719 286.410156 C 416.222656 283.480469 412.503906 282.015625 407.859375 282.015625 C 405.292969 282.015625 403.027344 282.4375 401.0625 283.285156 C 399.585938 283.910156 398.226562 284.875 396.984375 286.171875 C 395.746094 287.46875 394.765625 288.9375 394.050781 290.570312 C 393.089844 292.785156 392.609375 295.523438 392.609375 298.792969 C 392.609375 303.898438 393.992188 307.90625 396.761719 310.816406 C 399.527344 313.722656 403.257812 315.179688 407.945312 315.179688 C 412.578125 315.179688 416.277344 313.71875 419.042969 310.792969 C 421.808594 307.871094 423.195312 303.816406 423.195312 298.640625 C 423.195312 293.417969 421.796875 289.34375 419.011719 286.410156 "/>
<path fill-rule="nonzero" fill="rgb(100%, 100%, 100%)" fill-opacity="1" d="M 325.933594 277.117188 C 318.746094 273.28125 310.078125 273.496094 303.089844 277.683594 C 296.105469 281.875 291.832031 289.421875 291.832031 297.566406 C 291.832031 305.710938 296.105469 313.261719 303.089844 317.449219 C 310.078125 321.640625 318.746094 321.855469 325.933594 318.019531 C 328.503906 316.644531 331.703125 317.621094 333.078125 320.191406 C 334.449219 322.761719 333.476562 325.960938 330.90625 327.335938 C 320.445312 332.917969 307.824219 332.605469 297.660156 326.507812 C 287.492188 320.410156 281.269531 309.425781 281.269531 297.566406 C 281.269531 285.710938 287.492188 274.726562 297.660156 268.628906 C 307.824219 262.53125 320.445312 262.214844 330.90625 267.800781 C 333.476562 269.171875 334.449219 272.371094 333.078125 274.945312 C 331.703125 277.515625 328.503906 278.488281 325.933594 277.117188 "/>
<path fill-rule="nonzero" fill="rgb(76.863098%, 5.882263%, 14.117432%)" fill-opacity="1" d="M 336.300781 280.566406 C 335.605469 279.6875 334.324219 279.542969 333.449219 280.246094 C 332.574219 280.945312 332.429688 282.222656 333.128906 283.097656 C 339.886719 291.5625 339.886719 303.574219 333.128906 312.035156 C 332.429688 312.914062 332.574219 314.191406 333.449219 314.890625 C 334.324219 315.589844 335.605469 315.449219 336.300781 314.570312 C 344.246094 304.628906 344.246094 290.507812 336.300781 280.566406 "/>
<path fill-rule="nonzero" fill="rgb(76.863098%, 5.882263%, 14.117432%)" fill-opacity="1" d="M 341.113281 273.015625 C 340.257812 273.738281 340.144531 275.019531 340.863281 275.878906 C 351.390625 288.421875 351.390625 306.710938 340.863281 319.257812 C 340.144531 320.117188 340.257812 321.398438 341.113281 322.117188 C 341.976562 322.839844 343.253906 322.726562 343.976562 321.867188 C 355.769531 307.8125 355.769531 287.320312 343.976562 273.265625 C 343.253906 272.410156 341.976562 272.296875 341.113281 273.015625 "/>
<path fill-rule="nonzero" fill="rgb(76.863098%, 5.882263%, 14.117432%)" fill-opacity="1" d="M 315.011719 284.128906 C 307.59375 284.128906 301.578125 290.144531 301.578125 297.566406 C 301.578125 304.988281 307.59375 311.003906 315.011719 311.003906 C 322.433594 311.003906 328.449219 304.988281 328.449219 297.566406 C 328.449219 290.144531 322.433594 284.128906 315.011719 284.128906 "/>
<path fill-rule="nonzero" fill="rgb(76.863098%, 5.882263%, 14.117432%)" fill-opacity="1" d="M 552.402344 295.679688 L 561.207031 282.808594 L 552.683594 282.808594 L 548.144531 289.445312 Z M 552.402344 295.679688 "/>
<path fill-rule="nonzero" fill="rgb(76.863098%, 5.882263%, 14.117432%)" fill-opacity="1" d="M 550.273438 298.792969 L 546.011719 292.558594 L 539.347656 282.808594 L 530.828125 282.808594 L 541.75 298.792969 L 530.828125 314.78125 L 539.347656 314.78125 L 546.011719 305.027344 L 552.675781 314.78125 L 561.199219 314.78125 Z M 550.273438 298.792969 "/>
</svg>
