<?xml version="1.0" encoding="UTF-8"?>
<svg version="1.1" xmlns="http://www.w3.org/2000/svg" width="300" height="300">
<path d="M0 0 C1.10314545 -0.00525696 2.20629089 -0.01051392 3.34286499 -0.01593018 C6.98262772 -0.02911394 10.62195171 -0.02039745 14.26171875 -0.01025391 C16.79467859 -0.0122751 19.32763786 -0.01518691 21.8605957 -0.01895142 C27.16656579 -0.02337259 32.4723792 -0.0172373 37.77832031 -0.00292969 C43.90300586 0.01339551 50.02739175 0.00810646 56.15207005 -0.0084089 C62.05635116 -0.02368959 67.96053959 -0.02203872 73.86483765 -0.0132637 C76.37185712 -0.01126321 78.87888424 -0.01371566 81.38589478 -0.02070236 C84.89028142 -0.02832546 88.39409361 -0.01669969 91.8984375 0 C92.93342377 -0.00607269 93.96841003 -0.01214539 95.03475952 -0.0184021 C102.04919645 0.04348674 106.50621862 0.94518346 111.63671875 6.07568359 C117.36343734 13.6693879 117.42453287 21.58672093 117.34033203 30.74194336 C117.32427775 32.81805401 117.34022279 34.89221095 117.359375 36.96826172 C117.37106547 44.33248698 116.93004534 50.5904449 113.94921875 57.38818359 C112.95921875 58.37818359 112.95921875 58.37818359 111.94921875 59.38818359 C112.29526785 63.54077275 114.07718696 66.72212134 115.94921875 70.38818359 C117.73358228 75.80524335 117.21244176 81.73981651 117.24438477 87.38525391 C117.25585409 88.79323415 117.27622551 90.20117267 117.3059082 91.60888672 C117.69818096 110.24512993 117.69818096 110.24512993 111.13989258 117.34765625 C106.90325777 121.22145435 103.60975469 122.51569094 97.83520508 122.50170898 C96.79435257 122.50163345 95.75350006 122.50155792 94.68110657 122.5014801 C93.5591539 122.49631882 92.43720123 122.49115753 91.28125 122.48583984 C90.13130051 122.4844249 88.98135101 122.48300995 87.79655457 122.48155212 C84.11824967 122.47594788 80.4400053 122.46339463 76.76171875 122.45068359 C74.27018317 122.44566914 71.77864664 122.44110614 69.28710938 122.43701172 C63.17445579 122.42597706 57.06184754 122.40870955 50.94921875 122.38818359 C50.94921875 125.68818359 50.94921875 128.98818359 50.94921875 132.38818359 C51.65046875 132.45005859 52.35171875 132.51193359 53.07421875 132.57568359 C57.58285293 133.84986282 60.78585218 136.59025344 63.32421875 140.51318359 C63.94921875 142.38818359 63.94921875 142.38818359 63.94921875 145.38818359 C84.40921875 145.38818359 104.86921875 145.38818359 125.94921875 145.38818359 C126.93921875 142.41818359 126.93921875 142.41818359 127.94921875 139.38818359 C131.0406878 135.03032963 134.66553816 132.40427602 139.94921875 131.38818359 C145.95687329 130.84828 150.85722848 130.80064499 155.94921875 134.38818359 C159.92119754 138.16920187 162.97687549 141.87823844 163.94921875 147.38818359 C164.02234984 153.77148317 163.22321546 158.42110633 158.94921875 163.38818359 C153.42281487 168.71204911 149.17846545 169.7039194 141.66796875 169.59521484 C136.20432277 169.17916134 133.20258196 166.8697691 129.63671875 162.95068359 C127.31533656 160.22717221 126.87036076 159.07275164 125.94921875 155.38818359 C105.48921875 155.38818359 85.02921875 155.38818359 63.94921875 155.38818359 C63.61921875 157.03818359 63.28921875 158.68818359 62.94921875 160.38818359 C59.59205538 165.32518855 56.82570164 167.65413946 50.94921875 169.38818359 C44.11103067 170.2932379 38.61911919 169.42127675 32.94921875 165.38818359 C29.42855845 161.86752329 28.96295073 160.4568435 27.94921875 155.38818359 C7.48921875 155.38818359 -12.97078125 155.38818359 -34.05078125 155.38818359 C-34.71078125 157.36818359 -35.37078125 159.34818359 -36.05078125 161.38818359 C-37.890625 163.47021484 -37.890625 163.47021484 -39.98828125 165.20068359 C-40.67792969 165.78462891 -41.36757813 166.36857422 -42.078125 166.97021484 C-46.81940324 170.37830197 -52.46651128 169.81342254 -58.05078125 169.38818359 C-63.56103255 167.6207445 -66.81460399 164.03705743 -70.05078125 159.38818359 C-72.72123928 154.1633744 -72.3195361 148.99261151 -71.05078125 143.38818359 C-68.45445862 138.5536518 -65.44242811 134.52706305 -60.42578125 132.13818359 C-54.71308078 130.8686946 -49.40053497 130.61999488 -43.80078125 132.45068359 C-38.86057993 135.93127998 -35.52824618 139.47832387 -34.05078125 145.38818359 C-13.59078125 145.38818359 6.86921875 145.38818359 27.94921875 145.38818359 C28.27921875 143.73818359 28.60921875 142.08818359 28.94921875 140.38818359 C31.43814492 136.65479433 33.91060061 134.35571551 37.94921875 132.38818359 C38.93921875 132.38818359 39.92921875 132.38818359 40.94921875 132.38818359 C40.94921875 129.08818359 40.94921875 125.78818359 40.94921875 122.38818359 C39.41587891 122.41436768 37.88253906 122.44055176 36.30273438 122.4675293 C30.59259741 122.55829721 24.88252374 122.61553062 19.171875 122.6628418 C16.70431785 122.68792518 14.23683455 122.72200006 11.76953125 122.76538086 C8.21465797 122.82630107 4.66077035 122.85445646 1.10546875 122.87646484 C-0.53875061 122.91517448 -0.53875061 122.91517448 -2.21618652 122.95466614 C-9.10766684 122.9571675 -13.76311091 121.96351319 -19.05078125 117.38818359 C-25.87620245 109.48506431 -25.36872005 99.2390872 -25.30078125 89.32568359 C-25.31238281 87.62702148 -25.31238281 87.62702148 -25.32421875 85.89404297 C-25.30311842 76.83672758 -24.58939652 69.77300395 -19.05078125 62.38818359 C-19.31890625 61.85193359 -19.58703125 61.31568359 -19.86328125 60.76318359 C-20.25515625 59.97943359 -20.64703125 59.19568359 -21.05078125 58.38818359 C-21.56640625 57.43943359 -22.08203125 56.49068359 -22.61328125 55.51318359 C-25.92604162 48.31153062 -25.26858798 40.34633431 -25.30078125 32.57568359 C-25.32140625 31.34269531 -25.34203125 30.10970703 -25.36328125 28.83935547 C-25.39907089 20.46010493 -24.94581211 12.88271452 -19.73828125 6.01318359 C-13.65851878 0.07481095 -8.08116419 -0.04741554 0 0 Z M-13.05078125 15.38818359 C-15.28839318 19.86340745 -14.36067704 25.90718145 -14.40087891 30.88134766 C-14.4174032 32.37890197 -14.44464731 33.87637855 -14.48291016 35.37353516 C-14.53796467 37.54028945 -14.55959515 39.70519703 -14.57421875 41.87255859 C-14.59403809 43.1690332 -14.61385742 44.46550781 -14.63427734 45.80126953 C-13.87057197 50.49598056 -12.37928401 52.05905388 -9.05078125 55.38818359 C-6.73399014 56.54657915 -5.39878579 56.51870522 -2.81974792 56.52862549 C-1.93232407 56.53433563 -1.04490021 56.54004578 -0.13058472 56.54592896 C0.84554779 56.54704681 1.8216803 56.54816467 2.82739258 56.54931641 C3.85353165 56.55428131 4.87967072 56.55924622 5.93690491 56.56436157 C9.34336001 56.57900814 12.74976854 56.58578951 16.15625 56.59130859 C18.51795961 56.59705819 20.87966921 56.60281594 23.24137878 56.60858154 C28.19876321 56.61909877 33.15613138 56.62493665 38.11352539 56.62841797 C44.46915566 56.63390283 50.8245717 56.65792784 57.18013477 56.68638992 C62.06056853 56.70500432 66.94095059 56.71022128 71.82141685 56.71175385 C74.1646002 56.71478383 76.50778257 56.72282393 78.85093117 56.73593903 C82.1284074 56.75297341 85.40535892 56.75112538 88.68286133 56.74462891 C90.13795105 56.75845108 90.13795105 56.75845108 91.62243652 56.77255249 C96.49958858 56.74223425 100.07717077 56.71464757 103.94921875 53.38818359 C107.36313042 46.82870266 107.40540437 40.67684822 107.32421875 33.38818359 C107.33582031 32.34662109 107.34742188 31.30505859 107.359375 30.23193359 C107.33551401 23.93263222 106.79330794 19.05062362 103.94921875 13.38818359 C101.1141595 10.76065962 99.24022629 10.01197807 95.40174866 9.99377441 C94.49474716 9.98242462 93.58774567 9.97107483 92.65325928 9.9593811 C91.17179413 9.96377701 91.17179413 9.96377701 89.66040039 9.96826172 C88.61446213 9.95979218 87.56852386 9.95132263 86.4908905 9.94259644 C83.03026196 9.91917977 79.5700768 9.9182054 76.109375 9.91943359 C73.70568157 9.91233499 71.30198984 9.90463644 68.89830017 9.8963623 C63.85866588 9.88290683 58.81918826 9.88135364 53.77954102 9.88720703 C47.318389 9.89310475 40.85798796 9.86251248 34.39698124 9.82209015 C29.43244876 9.79625313 24.46809806 9.79333213 19.50350761 9.79698181 C17.12124176 9.79528691 14.73896783 9.78560898 12.35676765 9.76783752 C9.02647618 9.74572737 5.69771742 9.75531062 2.36743164 9.77294922 C1.38181244 9.75968597 0.39619324 9.74642273 -0.61929321 9.73275757 C-6.49778606 9.80517932 -9.3516367 10.38232081 -13.05078125 15.38818359 Z M-13.05078125 71.38818359 C-15.28473259 75.85608627 -14.31936225 81.91374846 -14.34594727 86.88134766 C-14.36311108 89.11602828 -14.40698968 91.34920981 -14.45117188 93.58349609 C-14.46130368 95.01317274 -14.46981826 96.44286195 -14.4765625 97.87255859 C-14.49114502 99.1690332 -14.50572754 100.46550781 -14.52075195 101.80126953 C-13.97238233 105.98654046 -12.68576357 108.13239392 -10.05078125 111.38818359 C-7.71920584 112.5539713 -6.34165087 112.52371545 -3.74382019 112.54208374 C-2.83956802 112.5506842 -1.93531586 112.55928467 -1.00366211 112.56814575 C-0.00882813 112.5724057 0.98600586 112.57666565 2.01098633 112.58105469 C3.05663254 112.58923218 4.10227875 112.59740967 5.17961121 112.60583496 C8.65098492 112.63071287 12.1223177 112.64721032 15.59375 112.66162109 C16.77719183 112.66694477 17.96063366 112.67226845 19.17993736 112.67775345 C25.44262419 112.70449424 31.705291 112.72386702 37.96801758 112.73828125 C44.44485568 112.75493984 50.92118601 112.7997258 57.39783192 112.85065269 C62.37091169 112.88426543 67.34387 112.89585214 72.31705284 112.90150833 C74.70492119 112.90823628 77.09278112 112.92349807 79.48053932 112.94739914 C82.82053974 112.97892679 86.15915816 112.9791056 89.49926758 112.97167969 C90.98240952 112.99628769 90.98240952 112.99628769 92.49551392 113.02139282 C97.14631887 112.97900525 99.24597818 112.9320008 103.02153015 110.01235962 C107.68585217 103.66278531 107.28482364 97.10082929 107.26171875 89.51318359 C107.27783203 88.46259766 107.29394531 87.41201172 107.31054688 86.32958984 C107.31450916 79.99786532 106.90643788 75.04491213 103.94921875 69.38818359 C99.37986557 65.48135184 94.44970751 65.95091918 88.74633789 65.96826172 C87.72136703 65.95979218 86.69639618 65.95132263 85.6403656 65.94259644 C82.25490891 65.91921267 78.86990631 65.91820461 75.484375 65.91943359 C73.1293469 65.9123331 70.77432054 65.90463427 68.41929626 65.8963623 C63.48399038 65.88291447 58.54884447 65.88135027 53.61352539 65.88720703 C47.29037751 65.89310464 40.96799702 65.86250943 34.6449976 65.82209015 C29.78165046 65.79623657 24.9184887 65.79333363 20.05508232 65.79698181 C17.72388212 65.79528852 15.39267355 65.78562605 13.0615406 65.76783752 C9.80100297 65.74569414 6.54202659 65.7553274 3.28149414 65.77294922 C2.31974274 65.75968597 1.35799133 65.74642273 0.36709595 65.73275757 C-5.86770278 65.81102261 -8.75619438 66.79183165 -13.05078125 71.38818359 Z M-59.05078125 144.38818359 C-61.39246889 147.90071505 -61.54701802 149.25287715 -61.05078125 153.38818359 C-58.9962005 157.08642894 -57.70763185 158.1692334 -53.67578125 159.51318359 C-49.91086504 159.66935306 -49.91086504 159.66935306 -46.61328125 157.38818359 C-43.7815162 154.58494729 -43.7815162 154.58494729 -43.42578125 150.88818359 C-44.15172645 146.82289048 -44.97950756 145.13616532 -48.05078125 142.38818359 C-52.75925131 140.78530017 -55.15876418 141.3610592 -59.05078125 144.38818359 Z M38.94921875 144.38818359 C37.02058036 146.93047965 36.94019584 148.17163377 37.07421875 151.38818359 C38.09835421 154.89950517 39.00373773 156.23877852 41.94921875 158.38818359 C45.54302479 159.53514297 47.21668127 159.7045066 50.69921875 158.20068359 C53.08612515 156.27789788 54.11104876 155.32177855 54.94921875 152.38818359 C54.8023572 148.8635063 54.34869886 146.93561929 52.26171875 144.07568359 C47.4329308 140.55197347 43.56935826 140.66640454 38.94921875 144.38818359 Z M137.94921875 144.38818359 C135.60753111 147.90071505 135.45298198 149.25287715 135.94921875 153.38818359 C138.0037995 157.08642894 139.29236815 158.1692334 143.32421875 159.51318359 C147.08913496 159.66935306 147.08913496 159.66935306 150.38671875 157.38818359 C153.2184838 154.58494729 153.2184838 154.58494729 153.57421875 150.88818359 C152.84827355 146.82289048 152.02049244 145.13616532 148.94921875 142.38818359 C144.24074869 140.78530017 141.84123582 141.3610592 137.94921875 144.38818359 Z " fill="#1B71D7" transform="translate(104.05078125,121.61181640625)"/>
<path d="M0 0 C12.03691085 9.89158044 20.90336827 22.04838079 26.35791016 36.72216797 C26.35791016 37.71216797 26.35791016 38.70216797 26.35791016 39.72216797 C27.38529297 39.82013672 28.41267578 39.91810547 29.47119141 40.01904297 C37.92847506 40.89947681 45.55213292 42.15144008 53.35791016 45.72216797 C54.24736328 46.12048828 55.13681641 46.51880859 56.05322266 46.92919922 C71.77333735 54.69968326 82.39300986 68.03838681 88.35791016 84.28466797 C93.78099242 100.57274491 93.0026903 119.00212233 85.49072266 134.52685547 C85.11689453 135.25130859 84.74306641 135.97576172 84.35791016 136.72216797 C83.79716797 137.87072266 83.79716797 137.87072266 83.22509766 139.04248047 C74.90459373 154.53755065 60.42907 165.12687269 43.85791016 170.28466797 C39.27573046 171.57474426 36.00417545 171.86323606 31.35791016 170.72216797 C30.35791016 169.72216797 30.35791016 169.72216797 30.29541016 166.15966797 C30.31603516 165.02529297 30.33666016 163.89091797 30.35791016 162.72216797 C31.59541016 162.33029297 32.83291016 161.93841797 34.10791016 161.53466797 C51.82764791 155.55390876 66.77774728 147.00979583 75.35791016 129.72216797 C81.82792922 114.52899221 81.85341163 100.3239477 76.35791016 84.72216797 C70.11708988 70.38806491 59.6963861 60.71786996 45.35791016 54.72216797 C38.32148223 52.19868712 31.5600999 51.32634136 24.10791016 51.03076172 C21.35791016 50.72216797 21.35791016 50.72216797 18.35791016 48.72216797 C17.34040135 46.24564509 16.45154323 43.81876058 15.60791016 41.28466797 C9.18242167 23.19908127 -2.66874836 10.38457208 -19.57958984 1.40966797 C-35.27921197 -6.01637437 -53.35172573 -7.26804649 -69.98583984 -2.27392578 C-88.78655499 4.50776075 -102.97539304 15.73941446 -111.89208984 33.84716797 C-114.89918447 40.73249328 -116.79313563 47.88593795 -118.66162109 55.14404297 C-119.64208984 58.72216797 -119.64208984 58.72216797 -120.64208984 59.72216797 C-122.91059654 59.88399011 -125.18237505 60.00047798 -127.45458984 60.09716797 C-143.16205364 61.00365535 -156.78876086 65.88403786 -167.64208984 77.72216797 C-176.2643542 88.8030582 -180.55018984 101.74114336 -179.38818359 115.79248047 C-177.43393996 129.56021488 -171.54419079 141.03489817 -160.82958984 150.09716797 C-151.38742235 157.12856929 -140.8965273 160.0034847 -129.64208984 162.72216797 C-129.01708984 166.09716797 -129.01708984 166.09716797 -128.64208984 169.72216797 C-131.04027917 172.12035729 -131.66408155 172.0433135 -134.95458984 172.09716797 C-149.85574876 171.7536254 -163.37902119 164.08753982 -173.77490234 153.84326172 C-186.39973682 140.61382197 -191.03068717 124.6647966 -190.85302734 106.63232422 C-189.95855575 90.0514711 -182.42758636 75.87858346 -170.45458984 64.59716797 C-158.30481902 54.3118645 -144.4830958 49.46762707 -128.64208984 48.72216797 C-128.44615234 47.89716797 -128.25021484 47.07216797 -128.04833984 46.22216797 C-124.53326355 32.6467009 -118.85751412 18.69779355 -108.64208984 8.72216797 C-107.98208984 8.72216797 -107.32208984 8.72216797 -106.64208984 8.72216797 C-106.14708984 7.23716797 -106.14708984 7.23716797 -105.64208984 5.72216797 C-76.71881951 -20.66397339 -31.54241621 -24.54549605 0 0 Z " fill="#1B71D7" transform="translate(199.64208984375,25.27783203125)"/>
<path d="M0 0 C0.99990463 0.00507065 1.99980927 0.0101413 3.03001404 0.0153656 C4.73176537 0.00624901 4.73176537 0.00624901 6.46789551 -0.00305176 C7.69294296 0.01648056 8.91799042 0.03601288 10.18016052 0.05613708 C11.43634689 0.05846848 12.69253326 0.06079987 13.98678589 0.0632019 C16.64479075 0.07295512 19.3006582 0.09205319 21.95823669 0.12767029 C25.36708649 0.1729899 28.77517338 0.18769845 32.18429661 0.1914072 C35.43300505 0.19689597 38.68153834 0.22027077 41.93016052 0.24363708 C43.15723221 0.24899979 44.38430389 0.25436249 45.64855957 0.2598877 C46.77990829 0.27587509 47.91125702 0.29186249 49.07688904 0.30833435 C50.5755526 0.32429405 50.5755526 0.32429405 52.10449219 0.34057617 C54.48875427 0.61473083 54.48875427 0.61473083 56.48875427 2.61473083 C56.73875427 5.61473083 56.73875427 5.61473083 56.48875427 8.61473083 C53.87357658 11.22990853 52.72321726 10.88229652 49.07688904 10.92112732 C47.94554031 10.93711472 46.81419159 10.95310211 45.64855957 10.96957397 C43.80795204 10.97761803 43.80795204 10.97761803 41.93016052 10.98582458 C40.67493088 10.99485306 39.41970123 11.00388153 38.12643433 11.01318359 C35.46735798 11.02771463 32.80871213 11.03737517 30.14964294 11.04026794 C26.74164113 11.04565521 23.33482282 11.08334226 19.92715549 11.12901211 C16.67822682 11.16589881 13.42927057 11.16729447 10.18016052 11.17332458 C8.34258934 11.20262306 8.34258934 11.20262306 6.46789551 11.23251343 C5.33339462 11.2264357 4.19889374 11.22035797 3.03001404 11.21409607 C2.03010941 11.21916672 1.03020477 11.22423737 0 11.22946167 C-2.51124573 10.61473083 -2.51124573 10.61473083 -4.35757446 8.07727051 C-4.73828598 7.26463242 -5.1189975 6.45199432 -5.51124573 5.61473083 C-3.25398211 0.79654616 -3.25398211 0.79654616 0 0 Z " fill="#1B71D8" transform="translate(140.51124572753906,205.38526916503906)"/>
<path d="M0 0 C1.13457642 -0.00630432 2.26915283 -0.01260864 3.43811035 -0.019104 C5.28342346 -0.01303131 5.28342346 -0.01303131 7.16601562 -0.00683594 C9.0524176 -0.00970612 9.0524176 -0.00970612 10.97692871 -0.01263428 C13.64019438 -0.01399743 16.30309492 -0.011291 18.96630859 -0.00195312 C22.38297957 0.00944154 25.79933635 0.00288159 29.21599579 -0.00909805 C32.47018042 -0.01805547 35.7243269 -0.01178722 38.97851562 -0.00683594 C40.20872437 -0.0108844 41.43893311 -0.01493286 42.7064209 -0.019104 C44.40828552 -0.00964752 44.40828552 -0.00964752 46.14453125 0 C47.14665649 0.00159119 48.14878174 0.00318237 49.18127441 0.00482178 C51.57226562 0.25878906 51.57226562 0.25878906 53.57226562 2.25878906 C53.82226562 5.25878906 53.82226562 5.25878906 53.57226562 8.25878906 C50.94811807 10.88293662 49.802455 10.51177003 46.14453125 10.51757812 C45.00995483 10.52388245 43.87537842 10.53018677 42.7064209 10.53668213 C40.86110779 10.53060944 40.86110779 10.53060944 38.97851562 10.52441406 C37.72091431 10.52632751 36.46331299 10.52824097 35.16760254 10.5302124 C32.50433687 10.53157555 29.84143633 10.52886912 27.17822266 10.51953125 C23.76155168 10.50813658 20.3451949 10.51469654 16.92853546 10.52667618 C13.67435083 10.5356336 10.42020435 10.52936534 7.16601562 10.52441406 C5.93580688 10.52846252 4.70559814 10.53251099 3.43811035 10.53668213 C1.73624573 10.52722565 1.73624573 10.52722565 0 10.51757812 C-1.00212524 10.51598694 -2.00425049 10.51439575 -3.03674316 10.51275635 C-5.42773438 10.25878906 -5.42773438 10.25878906 -7.42773438 8.25878906 C-7.67773438 5.25878906 -7.67773438 5.25878906 -7.42773438 2.25878906 C-4.80358682 -0.36535849 -3.65792375 0.0058081 0 0 Z " fill="#1B70D7" transform="translate(143.427734375,149.7412109375)"/>
<path d="M0 0 C0.886875 -0.00257813 1.77375 -0.00515625 2.6875 -0.0078125 C4.0796875 0.00378906 4.0796875 0.00378906 5.5 0.015625 C6.428125 0.00789062 7.35625 0.00015625 8.3125 -0.0078125 C9.6428125 -0.00394531 9.6428125 -0.00394531 11 0 C11.8146875 0.00225586 12.629375 0.00451172 13.46875 0.00683594 C15.5 0.265625 15.5 0.265625 17.5 2.265625 C17.75 5.265625 17.75 5.265625 17.5 8.265625 C15.05013068 10.71549432 14.362922 10.52193811 11 10.53125 C10.113125 10.53382813 9.22625 10.53640625 8.3125 10.5390625 C6.9203125 10.52746094 6.9203125 10.52746094 5.5 10.515625 C4.571875 10.52335938 3.64375 10.53109375 2.6875 10.5390625 C1.3571875 10.53519531 1.3571875 10.53519531 0 10.53125 C-0.8146875 10.52899414 -1.629375 10.52673828 -2.46875 10.52441406 C-4.5 10.265625 -4.5 10.265625 -6.5 8.265625 C-6.75 5.265625 -6.75 5.265625 -6.5 2.265625 C-4.05013068 -0.18424432 -3.362922 0.00931189 0 0 Z " fill="#1C71D8" transform="translate(109.5,205.734375)"/>
<path d="M0 0 C0.886875 -0.00257813 1.77375 -0.00515625 2.6875 -0.0078125 C4.0796875 0.00378906 4.0796875 0.00378906 5.5 0.015625 C6.428125 0.00789062 7.35625 0.00015625 8.3125 -0.0078125 C9.6428125 -0.00394531 9.6428125 -0.00394531 11 0 C11.8146875 0.00225586 12.629375 0.00451172 13.46875 0.00683594 C15.5 0.265625 15.5 0.265625 17.5 2.265625 C17.25 5.828125 17.25 5.828125 16.5 9.265625 C13.09623106 10.96750947 9.31324101 10.45020614 5.5625 10.453125 C4.3259668 10.47149414 4.3259668 10.47149414 3.06445312 10.49023438 C1.87432617 10.49313477 1.87432617 10.49313477 0.66015625 10.49609375 C-0.06550537 10.50020264 -0.79116699 10.50431152 -1.53881836 10.50854492 C-3.5 10.265625 -3.5 10.265625 -6.5 8.265625 C-6.8125 5.265625 -6.8125 5.265625 -6.5 2.265625 C-4.05013068 -0.18424432 -3.362922 0.00931189 0 0 Z " fill="#1B70D7" transform="translate(109.5,149.734375)"/>
</svg>
