<svg version="1.1" xmlns="http://www.w3.org/2000/svg" style="display: block;" viewBox="0 0 1024 1024" width="256" height="256" preserveAspectRatio="none">
<defs>
	<linearGradient id="Gradient1" gradientUnits="userSpaceOnUse" x1="320.712" y1="777.473" x2="324.781" y2="777.521">
		<stop class="stop0" offset="0" stop-opacity="0" stop-color="rgb(27,27,90)"/>
		<stop class="stop1" offset="1" stop-opacity="0.0705882" stop-color="rgb(22,24,89)"/>
	</linearGradient>
</defs>
<path transform="translate(0,0)" fill="rgb(28,113,216)" d="M 240.375 549.463 C 252.797 549.278 271.611 548.667 283.493 550.224 C 288.937 579.121 290.23 618.967 295.002 649.839 C 300.739 646.052 308.471 639.812 315.478 642.363 C 319.716 645.839 321.118 665.914 322.3 673.264 C 341.425 666.6 358.131 654.766 376.459 646.38 C 383.364 642.687 384.684 648.589 390.013 650.815 C 415.219 661.343 440.349 673.769 465.303 684.963 C 468.437 699.841 467.303 716.268 467.195 731.584 L 467.088 780.699 C 467.069 802.448 468.358 831.53 467.607 852.042 C 491.979 852.308 488.793 852.825 489.116 876.503 C 474.939 875.259 445.774 876.195 430.5 876.215 C 339.401 876.135 242.718 874.448 151.999 876.663 C 151.114 873.043 150.474 869.368 150.082 865.662 C 148.837 853.067 158.161 852.292 167.307 852.573 C 173.859 852.369 173.45 849.206 173.528 844.173 C 174.247 797.357 172.254 750.365 173.932 703.608 C 174.428 689.804 198.829 691.373 201.484 679.658 C 204.083 668.192 202.85 652.826 204.291 640.855 C 206.176 618.743 208.835 596.686 210.038 574.541 C 210.32 569.343 208.943 556.006 213.147 552.67 C 218.613 548.335 233.459 549.494 240.375 549.463 z M 202.524 720.511 C 200.106 735.493 200.272 830.537 203.377 851.21 C 203.494 851.984 204.72 851.977 205.751 852.173 C 229.632 852.301 271.856 853.788 294.452 852.307 C 293.909 833.431 296.285 684.736 292.22 680.171 L 290.67 679.948 C 276.531 686.205 262.232 690.23 248.679 695.55 C 238.585 699.513 211.387 714.134 202.524 720.511 z M 320.432 711.31 C 320.185 753.457 316.09 811.338 321.099 851.83 C 327.217 851.084 337.794 852.182 344.303 852.651 L 344.812 753.752 C 365.048 755.075 397.637 754.185 418.678 754.029 C 418.042 762.542 418.663 777.453 418.67 786.607 C 418.751 808.294 418.604 829.98 418.23 851.664 C 426.122 852.75 430.335 852.836 438.147 851.989 L 438.504 757.781 C 438.489 741.813 438.809 716.605 437.313 701.102 C 417.874 690.359 400.406 682.946 379.88 674.79 C 365.098 680.332 341.604 692.27 327.841 700.573 C 322.525 703.781 321.464 705.628 320.432 711.31 z M 241.871 574.78 C 232.323 580.152 233.975 588.543 234.018 598.355 C 240.746 598.334 247.916 598.445 254.599 598.272 C 259.075 596.775 258.291 597.752 260.8 594.444 C 261.931 590.356 260.709 584.599 260.11 580.236 C 254.24 577.607 248.431 574.757 241.871 574.78 z M 369.382 783.131 C 368.425 795.207 366.663 840.897 370.854 850.729 C 375.433 854.238 384.147 852.016 390.199 851.219 C 390.528 851.178 390.857 851.132 391.184 851.081 C 393.24 821.991 393.658 814.07 391.559 785.486 C 381.624 782.894 379.949 783.361 369.382 783.131 z M 267.849 623.24 C 255.571 623.408 243.292 623.463 231.013 623.404 C 228.85 634.745 228.197 663.489 227.377 676.303 C 237.491 672.726 247.531 668.945 257.492 664.961 C 261.081 664.167 266.412 663.451 268.049 660.266 C 272.468 651.67 268.198 634.296 267.849 623.24 z"/>
<path transform="translate(0,0)" fill="rgb(28,113,216)" d="M 224.856 730.84 C 236.749 732.118 248.852 731.668 260.811 731.579 C 276.163 731.465 276.862 743.458 272.842 755.133 C 256.674 756.066 241.331 753.458 224.236 755.859 C 223.847 746.963 223.95 739.661 224.856 730.84 z"/>
<path transform="translate(0,0)" fill="rgb(28,113,216)" d="M 225.04 792.082 C 240.414 792.778 259.544 791.411 273.907 793.142 C 274.09 799.276 273.994 809.82 272.832 815.669 C 256.053 815.787 241.024 814.632 224.229 816.264 C 223.952 809.233 223.442 798.71 225.04 792.082 z"/>
<path transform="translate(0,0)" fill="rgb(28,113,216)" d="M 353.261 706.292 C 372.937 707.191 393.244 705.309 412.446 708.473 C 419.171 709.58 418.137 726.154 416.607 730.5 C 413.883 733.008 414.884 732.292 410.496 732.524 C 395.824 732.114 357.897 731.238 345.293 733.175 C 344.861 727.204 343.119 715.401 346.033 710.142 C 347.601 707.314 350.311 707.14 353.261 706.292 z"/>
<path transform="translate(0,0)" fill="url(#Gradient1)" d="M 320.432 711.31 L 324.03 707.557 C 324.19 722.87 329.54 819.294 325.628 824.732 L 324.44 822.072 C 323.867 834.072 327.781 841.115 321.099 851.83 C 316.09 811.338 320.185 753.457 320.432 711.31 z"/>
<path transform="translate(0,0)" fill="rgb(28,113,216)" d="M 600.328 151.371 C 608.978 150.424 629.543 150.915 638.845 150.929 L 708.25 150.944 L 795.218 150.896 C 812.714 150.894 848.926 147.945 864.583 158.17 C 870.804 163.567 874.62 173.315 874.99 181.184 C 877.435 233.06 876.774 286.039 875.808 337.943 C 875.415 359.083 856.154 366.738 837.855 368.771 L 672.1 368.677 C 646.842 368.666 618.686 369.899 593.638 367.616 C 585.21 366.848 574.266 361.294 567.223 356.541 C 561.152 344.012 559.829 337.815 559.784 323.843 C 559.65 282.256 559.57 240.602 559.853 199.025 C 560.085 164.884 565.01 154.902 600.328 151.371 z M 697.093 322.329 C 693.567 329.77 695.13 335.879 695.944 344.188 C 706.604 344.113 731.504 344.701 740.722 343.261 C 741.747 337.206 740.28 328.424 740.568 321.552 C 727.298 321.6 709.848 321.1 697.093 322.329 z M 590.263 177.762 C 587.962 192.68 587.717 278.476 590.346 293.102 C 610.939 296.315 652.112 295.005 675.035 294.988 L 821.5 295.062 C 828.138 295.14 846.891 295.875 848.886 291.801 C 854.172 281.003 851.352 240.475 851.934 227.945 C 852.441 217.033 851.857 183.251 849.209 176.755 C 836.633 172.133 648.688 174.457 622.234 174.462 C 610.456 174.722 601.756 174.563 590.263 177.762 z M 766.921 344.627 C 782.621 344.218 836.414 347.304 846.815 340.728 C 849.763 337.651 855.827 324.182 850.825 323.08 C 825.349 317.47 795.086 321.425 768.645 319.757 C 767.269 329.375 767.045 334.859 766.921 344.627 z M 602.257 320.412 C 598.566 320.628 593.875 320.378 591.217 322.69 C 588.057 327.877 589.223 341.03 593.709 342.025 C 614.051 346.536 639.979 344.06 661.25 344.401 C 666.098 344.022 665.533 344.82 668.693 342.212 C 671.625 335.687 670.044 327.907 669.974 320.456 C 647.403 320.138 624.829 320.123 602.257 320.412 z"/>
<path transform="translate(0,0)" fill="rgb(28,113,216)" d="M 710.766 200.339 C 730.69 196.152 750.264 208.811 754.618 228.699 C 758.972 248.588 746.476 268.267 726.625 272.786 C 706.538 277.36 686.574 264.683 682.168 244.559 C 677.763 224.434 690.605 204.577 710.766 200.339 z M 721.509 245.277 C 733.55 240.566 733.367 225.78 719.363 225.987 C 715.408 228.158 712.97 229.121 710.395 232.772 C 708.647 240.241 715.793 242.417 721.509 245.277 z"/>
<path transform="translate(0,0)" fill="rgb(28,113,216)" d="M 657.982 200.619 L 659.267 200.973 C 660.489 204.227 660.129 220.204 660.141 224.727 C 651.227 223.518 642.368 225.178 632.881 225.001 C 633.84 231.429 634.834 237.852 635.863 244.269 C 643.038 245.152 652.77 245.246 660.18 245.516 C 659.729 255.041 662.288 266.164 657.979 271.538 C 654.379 273.507 647.622 272.94 643.25 272.93 C 631.554 273.049 621.612 273.146 609.944 274.184 C 610.166 258.832 610.737 215.031 609.317 201.2 C 625.538 200.921 641.759 200.727 657.982 200.619 z"/>
<path transform="translate(0,0)" fill="rgb(28,113,216)" d="M 806.519 200.5 C 813.596 200.46 820.671 200.262 827.739 199.905 C 826.116 219.788 827.161 251.892 827.152 272.98 C 817.551 272.172 788.147 274.118 781.155 272.51 C 780.728 263.809 780.339 256.788 780.881 248.044 C 785.412 246.509 794.47 244.894 799.477 243.879 C 801.627 236.713 801.92 233.649 802.676 226.176 C 795.569 225.359 788.445 224.697 781.31 224.19 C 780.747 217.725 781.088 208.226 781.149 201.505 C 788.09 200.764 799.252 200.739 806.519 200.5 z"/>
<path transform="translate(0,0)" fill="rgb(28,113,216)" d="M 684.013 588.157 C 697.278 586.185 707.021 591.137 718.631 590.897 C 737.989 590.497 743.907 582.66 763.502 593.376 C 813.634 579.683 819.711 590.765 832.638 636.241 C 842.405 670.599 849.966 703.716 857.086 738.745 C 863.469 770.145 873.615 801.353 876.047 833.385 C 877.942 857.887 852.558 877.076 829.278 876.551 C 810.986 876.139 803.666 873.275 789.905 860.683 C 786.177 858.021 773.315 866.499 769.361 868.717 C 742.919 883.551 727.921 876.129 704.88 861.235 C 698.107 856.856 685.575 869.67 679.777 871.962 C 657.399 882.317 624.202 876.892 614.539 850.506 C 601.526 814.969 625.92 762.271 631.281 725.969 C 635.513 699.802 643.112 676.085 651.371 651.157 C 659.976 625.184 653.021 601.53 684.013 588.157 z M 792.076 793.922 C 801.746 787.085 808.241 783.902 820.159 781.666 C 826.024 781.391 833.249 781.696 838.296 779.253 C 843.075 771.22 828.995 744.976 826.767 735.096 C 821.009 709.568 816.513 683.621 810.47 658.181 C 807.133 644.129 805.801 616.723 791.759 609.806 C 786.503 614.138 783.092 617.648 782.881 624.71 C 782.168 648.61 784.715 674.195 786.052 697.966 C 787.888 730.604 789.218 761.453 792.076 793.922 z M 648.06 779.951 C 655.26 780.634 663.593 781.201 670.554 782.742 C 678.746 785.516 687.837 789.304 695.426 793.469 C 695.705 735.412 703.969 676.338 704.352 619.123 C 701.75 615.556 699.455 611.194 694.785 610.607 C 683.493 617.895 684.148 618.099 681.104 631.867 C 670.949 677.796 661.735 736.028 648.06 779.951 z M 738.581 806.157 C 719.51 814.135 718.774 828.175 726.803 845.784 L 727.138 846.508 C 735.725 851.155 738.076 852.647 748.123 852.523 C 772.354 838.099 767.988 804.096 738.581 806.157 z M 835.965 852.181 C 863.129 837.218 854.325 802.944 822.193 806.172 C 805.511 812.357 801.305 824.818 807.742 841.198 C 808.485 843.041 809.286 844.86 810.146 846.651 C 820.407 853.109 823.934 852.679 835.965 852.181 z M 762.216 783.22 L 756.018 681.158 C 755.493 671.929 754.168 618.425 750.679 614.119 C 746.802 611.981 742.818 611.993 738.375 612.009 C 731.893 618.137 732.283 632.774 731.583 641.365 C 728.702 676.754 728.42 712.293 726.151 747.714 C 725.407 759.237 725.223 771.71 723.65 783.102 C 731.345 781.913 739.125 781.358 746.91 781.442 C 751.621 782.048 757.569 782.988 762.216 783.22 z M 654.376 806.155 C 640.724 811.3 628.55 819.877 634.916 836.648 C 637.117 842.305 641.536 846.816 647.147 849.131 C 650.794 850.633 657.893 852.134 661.989 852.905 C 685.457 848.6 691.186 803.364 654.376 806.155 z"/>
<path transform="translate(0,0)" fill="rgb(28,113,216)" d="M 532.213 367.501 L 541.344 367.554 C 546.813 386.596 544.286 396.252 558.313 410.935 C 565.476 408.717 591.772 396.711 596.74 396.572 C 605.039 396.341 624.529 417.238 629.995 423.998 C 640.394 436.858 611.54 459.072 620.177 473.539 C 625.269 480.818 651.262 483.864 660.007 484.541 C 660.25 503.743 660.279 522.947 660.096 542.15 C 650.4 543.281 641.659 546.145 632.254 548.13 C 606.937 553.475 625.007 581.081 632.604 596.405 C 626.009 606.994 606.116 625.991 595.526 633.078 C 550.31 610.883 551.153 611.268 542.417 661.757 C 529.717 662.268 510.793 661.462 497.75 661.339 C 494.282 661.367 488.59 660.872 484.951 660.679 C 482.288 645.081 481.427 628.147 470.022 617.118 C 458.839 620.042 452.328 622.8 442.255 628.675 C 438.126 631.083 431.548 633.599 427.002 631.625 C 415.735 626.731 400.682 608.235 395.226 597.52 C 398.51 585.245 406.897 573.062 408.006 559.88 C 409.355 543.851 373.52 548.258 369.384 541.39 C 365.386 534.751 367.721 493.979 367.934 485.179 C 372.223 483.942 379.95 482.576 383.809 481.97 C 426.443 475.274 402.398 457.004 396.041 431.905 C 394.326 425.133 414.722 409.506 419.371 403.845 C 429.821 390.053 442.012 399.613 454.592 406.107 C 484.983 421.797 476.572 380.223 486.619 369.641 C 492.261 366.748 523.208 367.725 532.213 367.501 z M 396.671 522.082 C 425.452 529.294 438.801 543.326 433.582 575.535 C 432.457 582.476 424.998 593.894 427.439 600.061 C 433.2 601.256 445.628 596.281 451.52 595.012 C 467.665 591.372 486.631 593.216 496.49 608.279 C 499.716 613.208 501.857 619.564 504.31 624.974 C 507.762 632.585 508.602 632.428 516.619 632.434 C 527.71 627.233 522.988 610.951 541.068 598.266 C 560.307 584.767 594.434 603.793 600.043 600.36 C 601.865 591.556 595.896 581.161 594.417 572.592 C 591.91 558.069 592.731 540.702 606.532 532.018 C 615.586 526.322 638.867 522.196 631.284 506.466 C 611.484 500.711 609.871 500.531 597.328 483.989 C 582.402 464.305 603.49 435.952 599.922 427.048 C 592.615 423.859 567.905 441.584 544.947 430.982 C 519.124 419.057 530.293 394.665 512.085 394.695 C 502.168 399.677 502.742 410.91 496.22 419.871 C 485.288 434.894 462.911 437.286 446.507 431 C 441.357 429.026 432.427 425.537 427.715 427.78 C 424.929 433.139 439.728 462.898 432.446 480.579 C 420.418 509.785 391.035 493.516 396.671 522.082 z"/>
<path transform="translate(0,0)" fill="rgb(28,113,216)" d="M 500.061 455.349 C 521.11 450.456 543.164 457.25 557.811 473.139 C 572.457 489.028 577.436 511.562 570.848 532.143 C 564.26 552.724 547.121 568.178 525.971 572.608 C 493.764 579.355 462.126 558.923 455.026 526.792 C 447.927 494.661 468.01 462.801 500.061 455.349 z M 521.396 548.347 C 540.188 544.139 552.101 525.599 548.118 506.758 C 544.135 487.917 525.739 475.784 506.851 479.542 C 494.431 482.013 484.299 490.97 480.325 502.994 C 476.35 515.018 479.147 528.249 487.647 537.636 C 496.148 547.022 509.039 551.113 521.396 548.347 z"/>
<path transform="translate(0,0)" fill="rgb(28,113,216)" d="M 211.417 151.392 C 211.718 151.354 212.019 151.316 212.32 151.278 C 263.515 151.545 315.698 148.83 366.66 152.73 C 370.956 153.655 375.086 155.698 378.69 158.027 C 395.401 168.828 390.341 190.251 399.507 204.261 C 400.61 205.946 414.103 216.366 416.992 218.86 C 418.431 227.966 419.564 260.645 415.923 267.9 C 403.388 292.877 406.949 313.454 408.686 341.509 L 415.376 347.513 C 416.363 354.43 417.338 360.84 418.646 367.702 C 400.811 367.109 377.824 367.89 359.5 367.918 L 226.769 367.845 C 203.078 367.827 174.792 367.038 151.634 368.218 C 150.091 348.372 160.26 340.698 162.01 320.192 C 164.336 292.927 155.567 278.453 150.911 253.566 C 149.162 244.222 148.495 219.381 156.998 213.702 C 162.908 209.755 167.595 205.794 172.467 199.801 C 176.094 167.065 173.968 155.017 211.417 151.392 z M 363.36 176.343 C 347.777 173.951 325.086 174.406 309.053 174.421 L 238.881 174.464 C 231.194 174.568 218.466 174.098 211.399 175.964 C 201.25 178.643 201.849 191.587 201.289 200.292 C 243.238 199.028 288.325 199.86 330.5 199.897 C 339.237 199.914 359.006 201.98 364.256 198.091 C 367.041 193.93 366.703 191.835 365.786 187.172 C 365.053 183.546 364.244 179.936 363.36 176.343 z M 233.353 344.114 C 235.284 326.598 233.365 293.104 233.781 273.795 C 220.146 274.059 200.593 274.96 187.458 274.002 C 187.016 297.206 188.166 321.072 187.39 344.121 C 202.71 343.886 218.033 343.883 233.353 344.114 z M 261.212 274.663 C 259.348 291.304 259.759 326.461 260.528 343.916 L 286.75 343.906 C 295.079 344.142 297.937 344.083 306.102 343.011 C 305.763 330.325 305.781 317.907 305.654 305.236 C 305.547 294.587 304.221 284.553 305.173 273.82 C 297.095 273.972 286.333 273.86 278.474 274.5 C 271.94 274.913 267.756 275.257 261.212 274.663 z M 278.048 225.277 C 270.458 227.129 260.08 231.906 259.659 241.002 C 263.303 247.885 281.298 244.794 289.25 245.164 C 295.563 245.371 305.083 247.173 306.62 239.095 C 304.239 226.674 288.323 224.667 278.048 225.277 z M 335.131 344.244 C 349 343.998 362.873 343.945 376.744 344.083 C 379.109 339.424 377.606 283.929 377.867 273.755 C 365.998 274.072 346.972 275.065 335.726 274.223 C 333.595 289.43 336.55 325.978 335.131 344.244 z M 333.106 225.479 C 332.014 230.526 339.54 240.855 342.98 244.736 C 358.785 246.26 374.101 246.55 389.75 243.421 C 391.738 239.819 391.934 239.338 392.028 235.238 C 385.663 223.053 345.194 225.078 333.106 225.479 z M 206.229 224.411 C 203.227 224.638 167.128 224.495 177.439 243.529 C 178.794 246.03 201.463 245.601 207.502 245.652 C 228.011 245.122 227.97 243.931 237.036 225.746 C 225.745 224.262 217.624 224.197 206.229 224.411 z"/>
<path transform="translate(0,0)" fill="rgb(28,113,216)" d="M 799.613 388.968 L 800.212 388.993 C 800.188 388.438 810.6 409.781 812.059 414.496 C 823.862 453.892 828.839 495.016 826.777 536.09 C 826.411 542.637 826.159 558.098 821.478 562.28 C 817.94 563.662 814.045 562.722 810.239 562.18 C 801.244 561.539 798.898 559.509 800.398 549.781 C 806.039 513.181 801.308 476.884 794.174 440.89 C 792.139 430.621 781.331 408.257 785.152 398.673 C 789.644 393.167 796.324 396.977 799.613 388.968 z"/>
<path transform="translate(0,0)" fill="rgb(28,113,216)" d="M 225.959 384.191 C 231.36 385.061 231.844 388.314 234.105 392.979 C 237.893 394.205 242.069 395.467 244.61 398.501 C 245.763 404.553 236.055 430.852 234.201 438.793 C 229.734 457.925 227.181 475.62 225.405 495.21 C 224.883 500.963 224.498 523.458 222.694 526.726 L 221.04 527.126 C 214.543 527.759 207.755 528.138 201.221 528.584 C 199.113 492.579 203.279 454.507 213.14 419.779 C 216.276 408.732 224.334 394.553 225.959 384.191 z"/>
<path transform="translate(0,0)" fill="rgb(28,113,216)" d="M 563.445 799.39 C 586.231 797.439 588.557 797.427 590.459 820.772 C 564.339 822.413 542.612 826.899 515.49 827.564 C 506.333 827.356 497.73 826.994 488.58 827.889 C 488.167 819.129 488.51 814.623 489.364 805.842 C 497.302 804.136 508.843 803.686 517.235 803.032 L 563.445 799.39 z"/>
<path transform="translate(0,0)" fill="rgb(28,113,216)" d="M 510.439 201.426 C 519.829 200.719 529.68 200.917 539.129 200.942 C 539.211 205.502 539.757 219.061 537.21 220.364 C 526.857 225.66 477.835 227.063 466.982 227.895 C 458.698 228.08 449.175 229.042 440.901 229.762 C 439.002 222.315 437.825 215.869 436.489 208.287 C 460.34 203.759 486.185 202.727 510.439 201.426 z"/>
</svg>