<?xml version="1.0" encoding="UTF-8"?>
<svg version="1.1" xmlns="http://www.w3.org/2000/svg" width="619" height="403">
<path d="M0 0 C0.75634257 -0.00265183 1.51268514 -0.00530365 2.29194719 -0.00803584 C4.82882668 -0.01570129 7.36565755 -0.01628695 9.90254784 -0.01688576 C11.73883576 -0.02090218 13.5751228 -0.0253407 15.41140878 -0.03016531 C20.4597866 -0.04211629 25.50815488 -0.04777582 30.55654407 -0.05234647 C36.00048812 -0.05830801 41.44442079 -0.06991632 46.88835716 -0.08063698 C60.03544888 -0.10514598 73.18254436 -0.11978471 86.32965189 -0.13269705 C90.0430172 -0.13640968 93.75638213 -0.14038284 97.46974707 -0.14444971 C120.53131583 -0.16968387 143.5928852 -0.19173598 166.65446472 -0.20417786 C171.99467661 -0.20710752 177.33488848 -0.2100666 182.67510033 -0.21308327 C183.33853374 -0.21345418 184.00196716 -0.21382509 184.68550461 -0.21420723 C206.19337607 -0.22636151 227.70116567 -0.25730577 249.20899868 -0.29900479 C271.95804931 -0.34302968 294.70705375 -0.36871468 317.45614755 -0.37409842 C329.85319973 -0.37751214 342.25012271 -0.38926316 354.64713478 -0.42220116 C365.20368868 -0.45020343 375.76008687 -0.46120005 386.31667502 -0.4500057 C391.70148635 -0.44481987 397.08597161 -0.44770144 402.47073555 -0.47247124 C407.40453495 -0.49497698 412.3377743 -0.49421332 417.2715836 -0.47526737 C419.05223279 -0.47246928 420.83292007 -0.47805521 422.61350806 -0.4930803 C435.33531312 -0.59382893 446.1846387 0.95836647 456.45488548 9.28154564 C462.6143228 15.37682215 467.57654514 22.89510744 470.32988548 31.13701439 C470.32988548 31.79701439 470.32988548 32.45701439 470.32988548 33.13701439 C481.54988548 33.13701439 492.76988548 33.13701439 504.32988548 33.13701439 C504.32988548 33.79701439 504.32988548 34.45701439 504.32988548 35.13701439 C504.98988548 35.13701439 505.64988548 35.13701439 506.32988548 35.13701439 C508.96843763 39.09484262 508.60112449 42.48518906 508.57039452 47.07761192 C508.57295779 48.46578109 508.57295779 48.46578109 508.57557285 49.88199407 C508.57887806 52.99596855 508.56784705 56.10972954 508.55693626 59.22368431 C508.55637237 61.45069944 508.55668828 63.67771493 508.55782127 65.90472984 C508.55839665 71.96224261 508.54661244 78.01967666 508.53267336 84.07717109 C508.52019678 90.4032926 508.51899793 96.72941579 508.51662254 103.05554771 C508.51110648 113.677364 508.49860197 124.29914908 508.48076439 134.92094994 C508.46240972 145.86202919 508.4482512 156.80310058 508.43974876 167.74419212 C508.43896059 168.75560137 508.43896059 168.75560137 508.4381565 169.78744312 C508.43554645 173.17003127 508.43301903 176.55261948 508.43053269 179.93520772 C508.40979522 208.00249677 508.37441679 236.06975378 508.32988548 264.13701439 C507.66988548 264.13701439 507.00988548 264.13701439 506.32988548 264.13701439 C506.32988548 264.79701439 506.32988548 265.45701439 506.32988548 266.13701439 C503.38576521 267.60907452 500.36702633 267.37508631 497.13457298 267.45342064 C496.42712944 267.47420174 495.7196859 267.49498283 494.99080467 267.51639366 C492.72893123 267.58182517 490.46694086 267.64074413 488.20488548 267.69951439 C486.67232126 267.74270572 485.13976891 267.78632021 483.60722923 267.83037376 C479.84823475 267.93749994 476.08912256 268.03878529 472.32988548 268.13701439 C472.32988548 269.78701439 472.32988548 271.43701439 472.32988548 273.13701439 C473.14666771 273.12654076 473.96344994 273.11606712 474.80498314 273.10527611 C478.5215857 273.06358768 482.23813894 273.03764712 485.95488548 273.01201439 C487.2400808 272.99525658 488.52527611 272.97849876 489.84941673 272.96123314 C491.09336205 272.95478783 492.33730736 272.94834251 493.61894798 272.94170189 C494.76057396 272.93122826 495.90219994 272.92075462 497.07842064 272.90996361 C500.52292773 273.15049459 503.16516032 273.76226372 506.32988548 275.13701439 C508.82229664 278.87563112 508.62551944 281.79583073 508.62041283 286.1250515 C508.63048866 287.34502075 508.63048866 287.34502075 508.64076805 288.58963585 C508.65978394 291.28127188 508.66367392 293.97265909 508.66582298 296.66435814 C508.67224798 298.53378973 508.67897611 300.40322031 508.6859951 302.27264977 C508.69797654 306.19254959 508.70167499 310.11236122 508.70049095 314.03227806 C508.70028761 319.05748667 508.72760122 324.08213068 508.76203537 329.10720539 C508.78426138 332.96850754 508.78832983 336.82967283 508.7872715 340.69103241 C508.78963351 342.5438189 508.79849066 344.39660882 508.81393623 346.24933243 C508.8335114 348.83981949 508.82779228 351.42907629 508.81572533 354.01958275 C508.82696434 354.78595055 508.83820335 355.55231834 508.84978294 356.34190941 C508.80871011 359.80807727 508.58861646 361.78317755 506.51723289 364.61597252 C503.36415353 366.80856694 500.41742414 366.63648771 496.72051048 366.52763939 C495.99370079 366.5219796 495.2668911 366.51631981 494.51805687 366.51048851 C492.20465303 366.48815992 489.89281828 366.43797487 487.57988548 366.38701439 C486.00829333 366.36694462 484.4366768 366.34869468 482.86504173 366.33232689 C479.01938831 366.28830732 475.1749026 366.21930814 471.32988548 366.13701439 C471.20363792 366.74102074 471.07739037 367.34502708 470.94731712 367.96733665 C470.77579124 368.76711937 470.60426537 369.56690208 470.42754173 370.39092064 C470.26004417 371.18055199 470.09254662 371.97018333 469.91997337 372.7837429 C467.24508782 383.45119092 458.90202364 392.28256516 449.71660423 397.95732689 C440.66467521 402.43143911 430.41970158 403.29005766 420.46332073 403.27682209 C419.33339242 403.28124922 419.33339242 403.28124922 418.18063727 403.2857658 C415.66619222 403.29440127 413.15179345 403.29603233 410.63733482 403.29764366 C408.81240773 403.30237842 406.98748168 403.30752984 405.16255683 403.3130613 C400.15483479 403.32692942 395.14712 403.33454012 390.13938367 403.34103429 C385.84250389 403.34741768 381.54563593 403.35748584 377.24876354 403.36759495 C363.09801349 403.40086775 348.94725627 403.42242727 334.79647997 403.4407948 C331.11157948 403.4455923 327.42667928 403.45057529 323.74177909 403.45560002 C300.84996191 403.48656578 277.95814217 403.51324493 255.06630993 403.53001881 C249.76769379 403.53396815 244.4690777 403.53797118 239.17046165 403.54204369 C237.85355336 403.54305205 236.53664506 403.54406041 235.17983045 403.54509933 C213.83982316 403.56211168 192.49994482 403.60323077 171.15999202 403.65406667 C149.24308582 403.70584715 127.32623923 403.7349613 105.40927237 403.74221569 C93.10664737 403.74687649 80.80421233 403.76161353 68.50164795 403.80195999 C58.02640163 403.83627279 47.55137959 403.85019394 37.0760803 403.83753585 C31.73360427 403.83171268 26.39160254 403.83554974 21.04919815 403.86570549 C16.15297094 403.89311689 11.25755392 403.89253228 6.3613083 403.87019504 C4.59550153 403.86697916 2.82964002 403.87379905 1.06392405 403.89199226 C-10.03130485 403.99933075 -17.88355474 402.86319156 -27.67011452 397.13701439 C-27.67011452 396.47701439 -27.67011452 395.81701439 -27.67011452 395.13701439 C-28.99011452 394.80701439 -30.31011452 394.47701439 -31.67011452 394.13701439 C-31.67011452 393.47701439 -31.67011452 392.81701439 -31.67011452 392.13701439 C-32.50542702 391.82763939 -32.50542702 391.82763939 -33.35761452 391.51201439 C-40.51554939 387.255945 -43.40419057 379.30605221 -45.71183205 371.70635033 C-47.03098451 366.31886896 -46.93441856 361.00761682 -46.8971653 355.48857689 C-46.89745735 354.34624092 -46.8977494 353.20390495 -46.89805031 352.02695274 C-46.89666311 348.27189454 -46.88113045 344.5170377 -46.86542702 340.76201439 C-46.86169472 338.15028047 -46.85884877 335.53854514 -46.85685158 332.92680931 C-46.85065371 326.76820467 -46.83426602 320.60967165 -46.8141526 314.45109844 C-46.79174064 307.43533705 -46.78078689 300.41957211 -46.77076173 293.4037838 C-46.74989814 278.9814905 -46.71475536 264.55925345 -46.67011452 250.13701439 C-45.24512606 249.49462786 -43.81915165 248.85442816 -42.39277077 248.21513939 C-41.59878883 247.85839134 -40.8048069 247.5016433 -39.98676491 247.1340847 C-37.26373277 245.96211049 -34.50270257 245.00857994 -31.67011452 244.13701439 C-31.67011452 243.47701439 -31.67011452 242.81701439 -31.67011452 242.13701439 C-30.71105202 241.98232689 -30.71105202 241.98232689 -29.73261452 241.82451439 C-29.05198952 241.59763939 -28.37136452 241.37076439 -27.67011452 241.13701439 C-27.34011452 240.14701439 -27.01011452 239.15701439 -26.67011452 238.13701439 C-25.00344785 236.47034772 -23.33678118 234.80368106 -21.67011452 233.13701439 C-13.63426695 223.48434463 -9.96360605 211.94336193 -10.92011452 199.38701439 C-11.89431541 191.77742297 -13.72116775 185.7036184 -17.10761452 178.82451439 C-17.40812721 178.21309593 -17.70863991 177.60167747 -18.01825905 176.97173119 C-19.59310438 173.88412659 -21.15931406 171.50960565 -23.67011452 169.13701439 C-23.67011452 168.47701439 -23.67011452 167.81701439 -23.67011452 167.13701439 C-24.99011452 166.47701439 -26.31011452 165.81701439 -27.67011452 165.13701439 C-27.67011452 164.47701439 -27.67011452 163.81701439 -27.67011452 163.13701439 C-28.66011452 162.76576439 -28.66011452 162.76576439 -29.67011452 162.38701439 C-33.43538774 160.81815055 -37.03550805 158.98389398 -40.67011452 157.13701439 C-42.66983413 156.1364538 -44.66980779 155.1364007 -46.67011452 154.13701439 C-47.23731501 124.96676862 -47.77601316 95.79108553 -47.90229225 66.61510277 C-47.91407135 64.31636337 -47.93106816 62.01764413 -47.95356178 59.7189846 C-48.23697077 29.29435987 -48.23697077 29.29435987 -38.67011452 17.13701439 C-37.80386452 15.83763939 -37.80386452 15.83763939 -36.92011452 14.51201439 C-27.00250761 4.04342933 -14.11518667 -0.02427937 0 0 Z " fill="#1B71D7" transform="translate(110.67011451721191,-0.13701438903808594)"/>
<path d="M0 0 C1.5 1.375 1.5 1.375 3 3 C3 3.66 3 4.32 3 5 C14.22 5 25.44 5 37 5 C37 5.66 37 6.32 37 7 C37.66 7 38.32 7 39 7 C41.63855215 10.95782823 41.27123901 14.34817467 41.24050903 18.94059753 C41.24221788 19.86604364 41.24392673 20.79148975 41.24568737 21.74497968 C41.24899258 24.85895416 41.23796156 27.97271515 41.22705078 31.08666992 C41.22648689 33.31368505 41.22680279 35.54070055 41.22793579 37.76771545 C41.22851117 43.82522822 41.21672695 49.88266227 41.20278788 55.9401567 C41.19031129 62.26627822 41.18911245 68.5924014 41.18673706 74.91853333 C41.181221 85.54034961 41.16871649 96.16213469 41.15087891 106.78393555 C41.13252424 117.7250148 41.11836571 128.6660862 41.10986328 139.60717773 C41.10907511 140.61858698 41.10907511 140.61858698 41.10827102 141.65042873 C41.10566097 145.03301689 41.10313354 148.41560509 41.10064721 151.79819334 C41.07990973 179.86548238 41.04453131 207.93273939 41 236 C40.34 236 39.68 236 39 236 C39 236.66 39 237.32 39 238 C36.05587973 239.47206013 33.03714085 239.23807192 29.8046875 239.31640625 C28.74352219 239.3475779 28.74352219 239.3475779 27.66091919 239.37937927 C25.39904575 239.44481078 23.13705538 239.50372974 20.875 239.5625 C19.34243578 239.60569133 17.80988343 239.64930582 16.27734375 239.69335938 C12.51834927 239.80048555 8.75923708 239.9017709 5 240 C5 241.65 5 243.3 5 245 C5.81678223 244.98952637 6.63356445 244.97905273 7.47509766 244.96826172 C11.19170022 244.92657329 14.90825346 244.90063273 18.625 244.875 C19.91019531 244.85824219 21.19539062 244.84148437 22.51953125 244.82421875 C23.76347656 244.81777344 25.00742187 244.81132812 26.2890625 244.8046875 C27.43068848 244.79421387 28.57231445 244.78374023 29.74853516 244.77294922 C33.19304224 245.0134802 35.83527484 245.62524933 39 247 C41.49241115 250.73861673 41.29563396 253.65881634 41.29052734 257.98803711 C41.29724457 258.80134995 41.30396179 259.61466278 41.31088257 260.45262146 C41.32989846 263.1442575 41.33378843 265.8356447 41.3359375 268.52734375 C41.3423625 270.39677534 41.34909063 272.26620592 41.35610962 274.13563538 C41.36809105 278.0555352 41.37178951 281.97534683 41.37060547 285.89526367 C41.37040213 290.92047228 41.39771573 295.94511629 41.43214989 300.970191 C41.4543759 304.83149315 41.45844435 308.69265844 41.45738602 312.55401802 C41.45974802 314.40680451 41.46860517 316.25959443 41.48405075 318.11231804 C41.50362592 320.7028051 41.4979068 323.2920619 41.48583984 325.88256836 C41.49707886 326.64893616 41.50831787 327.41530396 41.51989746 328.20489502 C41.47882462 331.67106288 41.25873098 333.64616316 39.18734741 336.47895813 C36.03426804 338.67155255 33.08753866 338.49947332 29.390625 338.390625 C28.66381531 338.38496521 27.93700562 338.37930542 27.18817139 338.37347412 C24.87476755 338.35114553 22.5629328 338.30096048 20.25 338.25 C18.67840784 338.22993023 17.10679132 338.21168029 15.53515625 338.1953125 C11.68950283 338.15129293 7.84501711 338.08229375 4 338 C3.87882813 338.63808594 3.75765625 339.27617187 3.6328125 339.93359375 C3.38144531 341.17302734 3.38144531 341.17302734 3.125 342.4375 C2.96257813 343.26121094 2.80015625 344.08492188 2.6328125 344.93359375 C2.42398438 345.61550781 2.21515625 346.29742187 2 347 C1.34 347.33 0.68 347.66 0 348 C0.21237708 347.36706974 0.42475416 346.73413948 0.64356691 346.08202952 C3.0290157 338.31830867 3.41701559 331.19545891 3.36076355 323.11116028 C3.36207437 321.73635594 3.36470587 320.36155234 3.36853105 318.98675269 C3.37519368 315.23758682 3.36330219 311.4886813 3.34819686 307.73954856 C3.33517927 303.68585316 3.33962999 299.63217113 3.34190369 295.57846069 C3.34347282 288.56464503 3.33410138 281.55091343 3.31719017 274.53711891 C3.29275575 264.39650141 3.28499036 254.25592434 3.2812262 244.11528059 C3.27466867 227.66073371 3.2547265 211.20623158 3.22631836 194.75170898 C3.19875968 178.77254459 3.17753496 162.79339237 3.16479492 146.81420898 C3.16361267 145.33550062 3.16361267 145.33550062 3.16240653 143.82691935 C3.15849127 138.88116882 3.15470018 133.93541821 3.15097082 128.98966753 C3.11989668 87.99308057 3.06707994 46.99654285 3 6 C2.34 6 1.68 6 1 6 C0.67 4.02 0.34 2.04 0 0 Z " fill="#FEBC54" transform="translate(578,28)"/>
<path d="M0 0 C1.5 1.375 1.5 1.375 3 3 C3 3.66 3 4.32 3 5 C14.22 5 25.44 5 37 5 C37 5.66 37 6.32 37 7 C37.66 7 38.32 7 39 7 C41.63855215 10.95782823 41.27123901 14.34817467 41.24050903 18.94059753 C41.24221788 19.86604364 41.24392673 20.79148975 41.24568737 21.74497968 C41.24899258 24.85895416 41.23796156 27.97271515 41.22705078 31.08666992 C41.22648689 33.31368505 41.22680279 35.54070055 41.22793579 37.76771545 C41.22851117 43.82522822 41.21672695 49.88266227 41.20278788 55.9401567 C41.19031129 62.26627822 41.18911245 68.5924014 41.18673706 74.91853333 C41.181221 85.54034961 41.16871649 96.16213469 41.15087891 106.78393555 C41.13252424 117.7250148 41.11836571 128.6660862 41.10986328 139.60717773 C41.10907511 140.61858698 41.10907511 140.61858698 41.10827102 141.65042873 C41.10566097 145.03301689 41.10313354 148.41560509 41.10064721 151.79819334 C41.07990973 179.86548238 41.04453131 207.93273939 41 236 C40.34 236 39.68 236 39 236 C39 236.66 39 237.32 39 238 C36.05587973 239.47206013 33.03714085 239.23807192 29.8046875 239.31640625 C28.74352219 239.3475779 28.74352219 239.3475779 27.66091919 239.37937927 C25.39904575 239.44481078 23.13705538 239.50372974 20.875 239.5625 C19.34243578 239.60569133 17.80988343 239.64930582 16.27734375 239.69335938 C12.51834927 239.80048555 8.75923708 239.9017709 5 240 C5 241.65 5 243.3 5 245 C5.81678223 244.98952637 6.63356445 244.97905273 7.47509766 244.96826172 C11.19170022 244.92657329 14.90825346 244.90063273 18.625 244.875 C19.91019531 244.85824219 21.19539062 244.84148437 22.51953125 244.82421875 C23.76347656 244.81777344 25.00742187 244.81132812 26.2890625 244.8046875 C27.43068848 244.79421387 28.57231445 244.78374023 29.74853516 244.77294922 C33.19304224 245.0134802 35.83527484 245.62524933 39 247 C41.49241115 250.73861673 41.29563396 253.65881634 41.29052734 257.98803711 C41.29724457 258.80134995 41.30396179 259.61466278 41.31088257 260.45262146 C41.32989846 263.1442575 41.33378843 265.8356447 41.3359375 268.52734375 C41.3423625 270.39677534 41.34909063 272.26620592 41.35610962 274.13563538 C41.36809105 278.0555352 41.37178951 281.97534683 41.37060547 285.89526367 C41.37040213 290.92047228 41.39771573 295.94511629 41.43214989 300.970191 C41.4543759 304.83149315 41.45844435 308.69265844 41.45738602 312.55401802 C41.45974802 314.40680451 41.46860517 316.25959443 41.48405075 318.11231804 C41.50362592 320.7028051 41.4979068 323.2920619 41.48583984 325.88256836 C41.49707886 326.64893616 41.50831787 327.41530396 41.51989746 328.20489502 C41.47882462 331.67106288 41.25873098 333.64616316 39.18734741 336.47895813 C36.03426804 338.67155255 33.08753866 338.49947332 29.390625 338.390625 C28.66381531 338.38496521 27.93700562 338.37930542 27.18817139 338.37347412 C24.87476755 338.35114553 22.5629328 338.30096048 20.25 338.25 C18.67840784 338.22993023 17.10679132 338.21168029 15.53515625 338.1953125 C11.68950283 338.15129293 7.84501711 338.08229375 4 338 C3.87882813 338.63808594 3.75765625 339.27617187 3.6328125 339.93359375 C3.38144531 341.17302734 3.38144531 341.17302734 3.125 342.4375 C2.96257813 343.26121094 2.80015625 344.08492188 2.6328125 344.93359375 C2.42398438 345.61550781 2.21515625 346.29742187 2 347 C1.34 347.33 0.68 347.66 0 348 C0.99 344.37 1.98 340.74 3 337 C13.23 336.67 23.46 336.34 34 336 C34.33 334.68 34.66 333.36 35 332 C35.99 331.67 36.98 331.34 38 331 C38 305.59 38 280.18 38 254 C37.34 254 36.68 254 36 254 C36 253.34 36 252.68 36 252 C34.68 252.33 33.36 252.66 32 253 C31.34 252.01 30.68 251.02 30 250 C30.33 249.67 30.66 249.34 31 249 C28.37639374 247.68819687 26.3054863 247.80500843 23.37109375 247.71875 C22.25412109 247.68136719 21.13714844 247.64398438 19.98632812 247.60546875 C17.6165399 247.53504026 15.24674822 247.46472814 12.87695312 247.39453125 C11.20342773 247.33845703 11.20342773 247.33845703 9.49609375 247.28125 C8.46669678 247.25095703 7.4372998 247.22066406 6.37670898 247.18945312 C4 247 4 247 3 246 C2.85884839 243.32941149 2.95752893 240.67567762 3 238 C4.17187866 237.97812622 4.17187866 237.97812622 5.36743164 237.95581055 C8.93293368 237.88099502 12.49753377 237.78444367 16.0625 237.6875 C17.29162109 237.66494141 18.52074219 237.64238281 19.78710938 237.61914062 C28.81718839 237.39768314 28.81718839 237.39768314 37 234 C38.29331276 230.12006173 38.14463613 226.44724379 38.14044189 222.40348816 C38.14341302 221.51494386 38.14638414 220.62639957 38.1494453 219.71092969 C38.15814476 216.72158366 38.1596416 213.73227762 38.16113281 210.74291992 C38.16576009 208.60445571 38.17078462 206.46599232 38.17617798 204.32752991 C38.18931234 198.50930874 38.19574891 192.69109912 38.20018864 186.87286544 C38.20311757 183.23968268 38.20722203 179.60650308 38.21169281 175.97332191 C38.22537021 164.61116239 38.23503579 153.24901009 38.2388947 141.88684291 C38.24337679 128.7610999 38.26093073 115.63546095 38.2898953 102.50974959 C38.31149492 92.37039894 38.32159806 82.23107761 38.32293582 72.09170419 C38.32398504 66.03289405 38.32991781 59.9741817 38.34775543 53.91539574 C38.36420643 48.21663858 38.36640602 42.51805303 38.35761642 36.81928062 C38.35684447 34.72708172 38.36120955 32.6348737 38.37107468 30.54269791 C38.38374899 27.68741403 38.37794185 24.83274213 38.36749268 21.97746277 C38.37554908 21.14875945 38.38360548 20.32005613 38.39190602 19.46624058 C38.38531618 18.69676416 38.37872633 17.92728773 38.3719368 17.13449383 C38.37283243 16.14700225 38.37283243 16.14700225 38.37374616 15.13956136 C37.96949943 12.22241997 37.96949943 12.22241997 35 7 C23.78 6.67 12.56 6.34 1 6 C0.67 4.02 0.34 2.04 0 0 Z " fill="#FCEFB2" transform="translate(578,28)"/>
<path d="M0 0 C1.13631144 -0.00307895 1.13631144 -0.00307895 2.29557866 -0.0062201 C4.83649921 -0.01187899 7.37736536 -0.01043423 9.91829109 -0.00901413 C11.75742948 -0.01159839 13.5965673 -0.01461172 15.43570435 -0.01801753 C20.49180808 -0.02608337 25.54789761 -0.02787687 30.60400701 -0.028615 C36.05605211 -0.03046622 41.50808985 -0.0380138 46.96013069 -0.04475021 C58.88141895 -0.05833006 70.80270384 -0.06435742 82.72399855 -0.06876087 C90.16588061 -0.07152329 97.60776138 -0.07576059 105.04964256 -0.08026505 C125.64994093 -0.09245614 146.25023826 -0.1027565 166.85054016 -0.10614014 C168.16887156 -0.1063597 169.48720295 -0.10657927 170.84548379 -0.10680549 C172.18032674 -0.10702613 173.5151697 -0.10724661 174.85001266 -0.10746694 C177.52789299 -0.10790949 180.20577331 -0.1083566 182.88365364 -0.10880661 C183.87958832 -0.1089707 183.87958832 -0.1089707 184.89564289 -0.1091381 C206.43144887 -0.1127699 227.96722122 -0.12869595 249.50301432 -0.15199697 C272.27578647 -0.17659131 295.04854213 -0.19030602 317.82132828 -0.19150805 C330.23386484 -0.19242542 342.64635733 -0.19819349 355.05888176 -0.21632767 C365.62577314 -0.23171105 376.19260684 -0.23685945 386.75950728 -0.22858956 C392.15184308 -0.22467713 397.54406263 -0.22564173 402.9363842 -0.23964691 C407.87232626 -0.25234974 412.8080643 -0.25122016 417.74400593 -0.2390562 C419.52996174 -0.23709295 421.31593182 -0.2402065 423.10186754 -0.24890056 C425.53007329 -0.25997323 427.95755643 -0.25251869 430.38574219 -0.24050903 C431.4249525 -0.25190182 431.4249525 -0.25190182 432.48515695 -0.26352477 C437.71093092 -0.20775536 441.57090837 1.13058324 446.31871223 3.13142776 C446.31871223 3.46142776 446.31871223 3.79142776 446.31871223 4.13142776 C442.02871223 3.80142776 437.73871223 3.47142776 433.31871223 3.13142776 C433.31871223 2.47142776 433.31871223 1.81142776 433.31871223 1.13142776 C432.59948316 1.1606455 431.88025409 1.18986323 431.13923019 1.21996635 C408.52204177 2.10989166 385.92965874 2.30066638 363.29716527 2.33203638 C358.17768143 2.34018717 353.0582115 2.35383207 347.93873787 2.36674881 C339.10715938 2.38830786 330.27557935 2.40652531 321.4439888 2.42235374 C308.67560645 2.44524292 295.90723961 2.47335723 283.13887059 2.50267302 C262.41391261 2.55011832 241.68894821 2.59344356 220.96397591 2.63411331 C200.85329376 2.67358658 180.74261727 2.71504033 160.63194466 2.75911331 C158.76683458 2.76319972 158.76683458 2.76319972 156.86404551 2.76736868 C150.62510925 2.7810501 144.38617308 2.79476999 138.14723694 2.80850899 C86.53774058 2.92211064 34.9282319 3.0289987 -16.68128777 3.13142776 C-11.54221022 -0.29462394 -6.01375001 -0.01525638 0 0 Z " fill="#7EADDA" transform="translate(110.68128776550293,-0.13142776489257813)"/>
<path d="M0 0 C4.95 0 9.9 0 15 0 C15 0.33 15 0.66 15 1 C9.06 1.495 9.06 1.495 3 2 C3 3.65 3 5.3 3 7 C3 10.91698626 2.97994179 14.8338419 2.96203613 18.7507782 C2.95795258 19.65580654 2.95386903 20.56083489 2.94966173 21.49328834 C2.93590679 24.5380877 2.92205455 27.58288662 2.90820312 30.62768555 C2.8983452 32.80544024 2.88849325 34.98319496 2.87864685 37.16094971 C2.851849 43.08413716 2.82496727 49.00732423 2.79807091 54.93051124 C2.76999532 61.11650048 2.74199628 67.30249006 2.71398926 73.48847961 C2.66091967 85.20752353 2.60778085 96.92656714 2.5546174 108.64561063 C2.49410458 121.98520858 2.43367073 135.32480689 2.37324238 148.66440523 C2.24891395 176.10960387 2.12448867 203.55480208 2 231 C4.97 231 7.94 231 11 231 C11 231.33 11 231.66 11 232 C7.37 232 3.74 232 0 232 C0 155.44 0 78.88 0 0 Z " fill="#E0A277" transform="translate(581,34)"/>
<path d="M0 0 C1.32 0 2.64 0 4 0 C4.09765625 6.15234375 4.09765625 6.15234375 4 8 C3.67 8.33 3.34 8.66 3 9 C2.89679346 10.39483149 2.86206197 11.7948078 2.85523987 13.19343567 C2.84834137 14.09775833 2.84144287 15.00208099 2.83433533 15.93380737 C2.83172195 16.93380768 2.82910858 17.93380798 2.82641602 18.96411133 C2.819729 20.0112178 2.81304199 21.05832428 2.80615234 22.13716125 C2.79206414 24.41963837 2.78018223 26.70212989 2.77020454 28.98462868 C2.75385116 32.59419082 2.7306154 36.20364637 2.70530701 39.81315613 C2.63437734 50.07891566 2.57439313 60.34471923 2.52319336 70.6105957 C2.49143298 76.88172771 2.45016188 83.15273865 2.40299797 89.42377281 C2.38695663 91.8179882 2.37464497 94.21223152 2.36609077 96.60648537 C2.35396133 99.95368385 2.32982034 103.30059693 2.30297852 106.64770508 C2.30238937 107.64163269 2.30180023 108.6355603 2.30119324 109.65960693 C2.29147491 110.57238907 2.28175659 111.4851712 2.27174377 112.4256134 C2.26751184 113.21705655 2.2632799 114.0084997 2.25891972 114.82392597 C1.97014351 117.25092691 1.20875208 118.89227955 0 121 C-0.97154596 118.08536213 -1.12565237 116.23637048 -1.12698364 113.20419312 C-1.12980347 112.21705826 -1.13262329 111.2299234 -1.13552856 110.21287537 C-1.13350433 109.13119583 -1.1314801 108.0495163 -1.12939453 106.93505859 C-1.13114685 105.79505905 -1.13289917 104.65505951 -1.13470459 103.48051453 C-1.1391148 99.70314015 -1.13618839 95.92581238 -1.1328125 92.1484375 C-1.13348568 89.53195181 -1.13445583 86.91546619 -1.13571167 84.29898071 C-1.13753107 78.81292208 -1.13513253 73.3268769 -1.13037109 67.84082031 C-1.12492349 61.49067845 -1.12669566 55.14056866 -1.1321975 48.79042757 C-1.13727373 42.68806619 -1.13674754 36.58571908 -1.13381577 30.48335648 C-1.13314636 27.88289002 -1.13397539 25.28242275 -1.13629532 22.68195724 C-1.13881992 19.0566665 -1.13498423 15.4314384 -1.12939453 11.80615234 C-1.13141876 10.72042435 -1.13344299 9.63469635 -1.13552856 8.5160675 C-1.13270874 7.5345723 -1.12988892 6.55307709 -1.12698364 5.5418396 C-1.12660662 4.68385962 -1.12622959 3.82587963 -1.12584114 2.94190025 C-1 1 -1 1 0 0 Z " fill="#6EA1D6" transform="translate(65,249)"/>
<path d="M0 0 C1.43836751 0.11458693 2.87570966 0.24209116 4.3125 0.375 C5.51326172 0.47941406 5.51326172 0.47941406 6.73828125 0.5859375 C9 1 9 1 12 3 C12.3075741 5.69949027 12.41981489 8.17146148 12.40405273 10.87451172 C12.41091599 11.68767853 12.41777924 12.50084534 12.42485046 13.33865356 C12.44320213 16.03584085 12.43926861 18.73245097 12.43359375 21.4296875 C12.43815216 23.30054922 12.4434567 25.17140926 12.44947815 27.04226685 C12.45842614 30.96818838 12.45596772 34.89390669 12.44604492 38.81982422 C12.43456399 43.85294069 12.4547446 48.88535469 12.48396206 53.91837883 C12.50230445 57.78399114 12.50203534 61.6494346 12.49632454 65.5150795 C12.49617102 67.37064727 12.50224016 69.22622627 12.51461601 71.08175278 C12.52948418 73.67718318 12.51887972 76.27130978 12.50170898 78.86669922 C12.51137695 79.63463806 12.52104492 80.4025769 12.53100586 81.19378662 C12.48292807 84.66193583 12.25906593 86.64575717 10.18635559 89.47994995 C7.03381925 91.67173112 4.08668596 91.49944821 0.390625 91.390625 C-0.33618469 91.38496521 -1.06299438 91.37930542 -1.81182861 91.37347412 C-4.12523245 91.35114553 -6.4370672 91.30096048 -8.75 91.25 C-10.32159216 91.22993023 -11.89320868 91.21168029 -13.46484375 91.1953125 C-17.31049717 91.15129293 -21.15498289 91.08229375 -25 91 C-25.12117187 91.63808594 -25.24234375 92.27617187 -25.3671875 92.93359375 C-25.53476562 93.75988281 -25.70234375 94.58617187 -25.875 95.4375 C-26.03742187 96.26121094 -26.19984375 97.08492188 -26.3671875 97.93359375 C-26.57601562 98.61550781 -26.78484375 99.29742187 -27 100 C-27.99 100.495 -27.99 100.495 -29 101 C-27.515 95.555 -27.515 95.555 -26 90 C-10.655 89.505 -10.655 89.505 5 89 C5.495 87.02 5.495 87.02 6 85 C6.99 84.67 7.98 84.34 9 84 C9 58.59 9 33.18 9 7 C8.34 7 7.68 7 7 7 C7 6.34 7 5.68 7 5 C5.68 5.33 4.36 5.66 3 6 C2.34 5.01 1.68 4.02 1 3 C1.33 2.67 1.66 2.34 2 2 C1.34 1.34 0.68 0.68 0 0 Z " fill="#F9E590" transform="translate(607,275)"/>
<path d="M0 0 C0.66 0.33 1.32 0.66 2 1 C1.09373216 2.2989839 0.17450463 3.58893167 -0.75 4.875 C-1.26046875 5.59429688 -1.7709375 6.31359375 -2.296875 7.0546875 C-4.07503547 9.08570565 -5.52701607 9.97855012 -8 11 C-8 12.32 -8 13.64 -8 15 C-8.99 15.33 -9.98 15.66 -11 16 C-11 17.65 -11 19.3 -11 21 C-11.66 21 -12.32 21 -13 21 C-12.67 21.99 -12.34 22.98 -12 24 C-12.69818596 25.22730331 -12.69818596 25.22730331 -13.41047668 26.47940063 C-15.65507678 31.45091479 -15.43965668 35.93387262 -15.43237305 41.32958984 C-15.4425647 42.46188019 -15.45275635 43.59417053 -15.46325684 44.76077271 C-15.49339172 48.49421128 -15.50265386 52.22739327 -15.51171875 55.9609375 C-15.528565 58.55311944 -15.54671517 61.1452932 -15.56611633 63.73745728 C-15.6087748 69.85712512 -15.63830598 75.97672664 -15.66143972 82.09649527 C-15.68852229 89.06635067 -15.73243182 96.03606864 -15.77772844 103.00582576 C-15.87049238 117.33713985 -15.94221079 131.66850434 -16 146 C-16.33 146 -16.66 146 -17 146 C-17.56720049 116.82975423 -18.10589864 87.65407114 -18.23217773 58.47808838 C-18.24395683 56.17934898 -18.26095364 53.88062974 -18.28344727 51.58197021 C-18.56763778 21.07344767 -18.56763778 21.07344767 -9 9 C-8.319375 8.071875 -7.63875 7.14375 -6.9375 6.1875 C-4.82224384 3.79930757 -2.5485849 1.91143867 0 0 Z " fill="#A4C9F2" transform="translate(81,8)"/>
<path d="M0 0 C25.28665603 -0.07009517 50.57329749 -0.12299071 75.86003113 -0.15543652 C87.60121916 -0.17090239 99.34234682 -0.19198664 111.08349609 -0.22631836 C121.31761974 -0.25622918 131.55169964 -0.27557704 141.78586578 -0.28226548 C147.20428379 -0.28617487 152.62257669 -0.29535681 158.04095459 -0.31719017 C163.1429686 -0.3375818 168.24480618 -0.34382834 173.34685707 -0.33932304 C175.21729809 -0.34014704 177.08774513 -0.34609668 178.95815086 -0.35761642 C181.51731878 -0.3726025 184.07582568 -0.36893148 186.63500977 -0.36076355 C187.37044195 -0.36950207 188.10587414 -0.3782406 188.86359215 -0.38724393 C194.15243659 -0.34180165 198.13096565 0.93115424 203 3 C203 3.33 203 3.66 203 4 C196.565 3.505 196.565 3.505 190 3 C190 2.34 190 1.68 190 1 C127.3 1 64.6 1 0 1 C0 0.67 0 0.34 0 0 Z " fill="#81C2FF" transform="translate(354,0)"/>
<path d="M0 0 C1.5 1.375 1.5 1.375 3 3 C3 3.66 3 4.32 3 5 C14.22 5 25.44 5 37 5 C37 5.66 37 6.32 37 7 C37.66 7 38.32 7 39 7 C39.95473707 10.21637018 40.12346232 13.10533624 40.12025452 16.45428467 C40.12162918 17.56203751 40.12300385 18.66979034 40.12442017 19.81111145 C40.11902725 21.62695992 40.11902725 21.62695992 40.11352539 23.47949219 C40.11367142 24.75779404 40.11381744 26.03609589 40.1139679 27.35313416 C40.11425475 30.8548658 40.108376 34.35656318 40.10139394 37.85828686 C40.09514189 41.51914992 40.09455513 45.18001377 40.09336853 48.84088135 C40.09026068 55.77166051 40.08205464 62.7024239 40.07201904 69.63319612 C40.06084096 77.52430947 40.05534318 85.41542357 40.05032361 93.30654287 C40.03987159 109.53770448 40.0222827 125.76885023 40 142 C39.67 142 39.34 142 39 142 C38.99761165 141.34069929 38.99522329 140.68139858 38.99276257 140.00211906 C38.93359945 123.95207842 38.85804109 107.90221107 38.76428509 91.85233879 C38.7193396 84.09070062 38.67992209 76.3291082 38.65356445 68.56738281 C38.63057423 61.80142929 38.59716485 55.03562072 38.55129844 48.26978219 C38.52737988 44.68805111 38.50864222 41.10646348 38.50238609 37.52465439 C38.49520281 33.52387829 38.46475623 29.52360073 38.43237305 25.52294922 C38.43380814 24.3382756 38.43524323 23.15360199 38.4367218 21.93302917 C38.42418365 20.83935532 38.41164551 19.74568146 38.39872742 18.61886597 C38.39411845 17.67310637 38.38950949 16.72734676 38.38476086 15.75292778 C38.05242857 12.30709952 38.05242857 12.30709952 35 7 C23.78 6.67 12.56 6.34 1 6 C0.67 4.02 0.34 2.04 0 0 Z " fill="#F7E395" transform="translate(578,28)"/>
<path d="M0 0 C2.97126708 2.71077243 3.88243734 5.13151386 5 9 C5.66 9 6.32 9 7 9 C7.91133462 11.73400385 8.12846082 13.35398421 8.1328125 16.16796875 C8.13474609 17.38516602 8.13474609 17.38516602 8.13671875 18.62695312 C8.13285156 19.47193359 8.12898438 20.31691406 8.125 21.1875 C8.13080078 22.4259668 8.13080078 22.4259668 8.13671875 23.68945312 C8.1285286 28.88610488 7.69980987 33.85301126 7 39 C7.04125 39.928125 7.0825 40.85625 7.125 41.8125 C7 44 7 44 5.625 45.8125 C4 47 4 47 2 47 C1.938125 48.0725 1.87625 49.145 1.8125 50.25 C0.82876364 54.79032168 -0.33651067 55.35887978 -4 58 C-5.34270821 59.99371825 -6.67653494 61.9934562 -8 64 C-10.65799923 66.41636294 -11.35294333 67 -15 67 C-15 66.34 -15 65.68 -15 65 C-14.360625 64.896875 -13.72125 64.79375 -13.0625 64.6875 C-12.381875 64.460625 -11.70125 64.23375 -11 64 C-10.67 63.01 -10.34 62.02 -10 61 C-8.33333333 59.33333333 -6.66666667 57.66666667 -5 56 C3.03584757 46.34733025 6.70650847 34.80634754 5.75 22.25 C4.79568022 14.50447433 2.55274641 7.35190967 0 0 Z " fill="#95BDE5" transform="translate(94,177)"/>
<path d="M0 0 C0.33 0 0.66 0 1 0 C1.00238835 0.54830695 1.00477671 1.0966139 1.00723743 1.66153622 C1.0665021 15.03383041 1.14231138 28.40594392 1.23571491 41.7780447 C1.28038966 48.24483932 1.31965243 54.71157136 1.34643555 61.1784668 C1.37249701 67.42259082 1.41292021 73.66647364 1.46318626 79.91044807 C1.47983563 82.28935807 1.49136189 84.66830977 1.49761391 87.04726982 C1.50727569 90.38650509 1.53536112 93.72512594 1.56762695 97.06420898 C1.56619186 98.04173126 1.56475677 99.01925354 1.5632782 100.02639771 C1.64715359 106.18820701 2.68707305 111.28383542 5 117 C3.35 116.67 1.7 116.34 0 116 C0 77.72 0 39.44 0 0 Z " fill="#1F6AC1" transform="translate(65,38)"/>
<path d="M0 0 C0.33 0 0.66 0 1 0 C1.20078071 12.06586197 1.38442976 24.13185395 1.54658794 36.19830036 C1.62242567 41.80204496 1.70402382 47.40557891 1.79907227 53.0090332 C1.89068933 58.42297044 1.96680153 63.8369295 2.03244972 69.25124168 C2.0600876 71.3104272 2.09318527 73.36954736 2.13199425 75.42855263 C2.51568034 96.14904064 2.51568034 96.14904064 -1 105 C-1.66 104.67 -2.32 104.34 -3 104 C-2.86042877 103.30723465 -2.72085754 102.6144693 -2.57705688 101.90071106 C-0.66336534 91.21657784 -0.64983878 80.64838569 -0.5859375 69.82421875 C-0.56719214 67.80254862 -0.54761632 65.78088604 -0.5272522 63.75923157 C-0.47628039 58.48060591 -0.43646931 53.20195497 -0.39910889 47.92321777 C-0.35884812 42.51971364 -0.30785734 37.11631143 -0.2578125 31.71289062 C-0.16146796 21.14199905 -0.07693262 10.57104945 0 0 Z " fill="#2C70CA" transform="translate(579,274)"/>
<path d="M0 0 C8.85827716 -0.06969919 17.71645901 -0.12291194 26.57495117 -0.15543652 C30.68890105 -0.17105153 34.80266247 -0.19221302 38.91650391 -0.22631836 C42.89116249 -0.25906131 46.86564048 -0.27688429 50.84042358 -0.28463173 C52.35219157 -0.29014857 53.86395036 -0.30092134 55.37564087 -0.31719017 C69.96036289 -0.46782123 69.96036289 -0.46782123 77 3 C77 3.33 77 3.66 77 4 C72.71 3.67 68.42 3.34 64 3 C64 2.34 64 1.68 64 1 C42.88 1 21.76 1 0 1 C0 0.67 0 0.34 0 0 Z " fill="#59A5FB" transform="translate(480,0)"/>
<path d="M0 0 C-0.33 1.32 -0.66 2.64 -1 4 C-1.66 4 -2.32 4 -3 4 C-3 4.66 -3 5.32 -3 6 C-2.01 6 -1.02 6 0 6 C0 6.66 0 7.32 0 8 C1.423125 8.433125 1.423125 8.433125 2.875 8.875 C6 10 6 10 8 12 C0.64576595 11.72962375 -4.62151248 10.73081346 -11 7 C-11 6.34 -11 5.68 -11 5 C-12.32 4.67 -13.64 4.34 -15 4 C-15 3.34 -15 2.68 -15 2 C-11.62537285 2.54723683 -9.91765 3.0549 -7 5 C-7 4.34 -7 3.68 -7 3 C-4.62529233 -0.08711997 -4.19087419 0 0 0 Z " fill="#1F6FD1" transform="translate(94,390)"/>
<path d="M0 0 C0.66 0.33 1.32 0.66 2 1 C1.09373216 2.2989839 0.17450463 3.58893167 -0.75 4.875 C-1.26046875 5.59429688 -1.7709375 6.31359375 -2.296875 7.0546875 C-4.07503547 9.08570565 -5.52701607 9.97855012 -8 11 C-8 12.32 -8 13.64 -8 15 C-8.99 15.33 -9.98 15.66 -11 16 C-11 17.65 -11 19.3 -11 21 C-11.66 21 -12.32 21 -13 21 C-12.67 21.99 -12.34 22.98 -12 24 C-13.4375 27.1875 -13.4375 27.1875 -15 30 C-15.33 30 -15.66 30 -16 30 C-16.55889537 19.38098794 -11.86017286 11.89959299 -5 4 C-3.36643049 2.62631655 -1.7074998 1.28062485 0 0 Z " fill="#679CDC" transform="translate(81,8)"/>
<path d="M0 0 C1.2657684 2.46151557 2.320819 4.84024024 3.3125 7.4375 C4.78288149 11.09290923 4.78288149 11.09290923 7.625 13.5 C10.61372416 16.64602544 10.60775766 18.76378271 11 23 C11.66 23.99 12.32 24.98 13 26 C7.30849736 23.89203606 4.2627678 18.89263491 1.6875 13.6875 C-0.30848721 8.97408443 -0.32199454 5.07141406 0 0 Z " fill="#81ACDF" transform="translate(66,366)"/>
<path d="M0 0 C-2.475 1.485 -2.475 1.485 -5 3 C-1.535 2.505 -1.535 2.505 2 2 C0.71502463 4.56995074 -0.49912373 4.90434463 -3.0625 6.125 C-3.79597656 6.47820313 -4.52945313 6.83140625 -5.28515625 7.1953125 C-5.85105469 7.46085938 -6.41695313 7.72640625 -7 8 C-8.32 6.68 -9.64 5.36 -11 4 C-8.32997607 0.73663741 -4.08378642 -2.04189321 0 0 Z " fill="#1A70DC" transform="translate(94,4)"/>
<path d="M0 0 C3.33316277 -0.08811914 6.66602047 -0.14076197 10 -0.1875 C10.93457031 -0.21263672 11.86914062 -0.23777344 12.83203125 -0.26367188 C18.95913725 -0.32794222 23.40193858 0.48483325 29 3 C29 3.33 29 3.66 29 4 C24.71 3.67 20.42 3.34 16 3 C16 2.34 16 1.68 16 1 C10.72 1 5.44 1 0 1 C0 0.67 0 0.34 0 0 Z " fill="#6EA6E5" transform="translate(528,0)"/>
<path d="M0 0 C2.77245014 -0.13487595 5.53837088 -0.23400807 8.3125 -0.3125 C9.49102539 -0.3753418 9.49102539 -0.3753418 10.69335938 -0.43945312 C12.90336375 -0.48647449 14.84148911 -0.48367587 17 0 C19.04296875 2.51953125 19.04296875 2.51953125 20 5 C17.03 4.505 17.03 4.505 14 4 C13.67 4.99 13.34 5.98 13 7 C12 4 12 4 12 2 C8.04 1.67 4.08 1.34 0 1 C0 0.67 0 0.34 0 0 Z " fill="#F9CC5E" transform="translate(596,34)"/>
<path d="M0 0 C4.11263667 3.31664247 4.4405063 5.87130778 5 11 C5.99 12.485 5.99 12.485 7 14 C3.05401664 12.73164821 1.56019601 10.31064666 -0.31640625 6.8203125 C-1.27102341 4.27830339 -0.91357145 2.51232148 0 0 Z " fill="#5792D7" transform="translate(72,378)"/>
<path d="M0 0 C0.66 0.33 1.32 0.66 2 1 C-3.95739054 9.61876775 -3.95739054 9.61876775 -9 12 C-9.99 12.495 -9.99 12.495 -11 13 C-8.52241061 7.42542386 -4.84184017 3.63138013 0 0 Z " fill="#A4C5E8" transform="translate(81,8)"/>
<path d="M0 0 C0.33 0 0.66 0 1 0 C1.10841951 1.91541138 1.18578079 3.83259773 1.25 5.75 C1.29640625 6.81734375 1.3428125 7.8846875 1.390625 8.984375 C1 12 1 12 -0.8125 14.375 C-3.66265851 16.4922606 -5.53309073 16.31517357 -9 16 C-6 14 -6 14 -3.890625 13.2578125 C-1.69874964 12.09177999 -1.69874964 12.09177999 -1.171875 9.1796875 C-1.03265625 8.08914063 -0.8934375 6.99859375 -0.75 5.875 C-0.52570312 4.23144531 -0.52570312 4.23144531 -0.296875 2.5546875 C-0.19890625 1.71164063 -0.1009375 0.86859375 0 0 Z " fill="#F5DA69" transform="translate(617,250)"/>
<path d="M0 0 C4.5076467 0.53031138 7.41954788 2.25221116 11 5 C11 5.66 11 6.32 11 7 C8.03 6.505 8.03 6.505 5 6 C4.67 5.01 4.34 4.02 4 3 C1.98491642 2.26676204 1.98491642 2.26676204 0 2 C0 1.34 0 0.68 0 0 Z " fill="#7DADDC" transform="translate(79,392)"/>
<path d="M0 0 C5.84615385 5.53846154 5.84615385 5.53846154 7 9 C6.67 9.99 6.34 10.98 6 12 C5.34 12 4.68 12 4 12 C4 10.35 4 8.7 4 7 C3.34 7 2.68 7 2 7 C0 4 0 4 0 0 Z " fill="#8EB5E4" transform="translate(571,15)"/>
<path d="M0 0 C1.98 0 3.96 0 6 0 C5.67 0.99 5.34 1.98 5 3 C6.32 3 7.64 3 9 3 C9 4.32 9 5.64 9 7 C8.34 7 7.68 7 7 7 C7 6.34 7 5.68 7 5 C5.68 5.33 4.36 5.66 3 6 C2.34 5.01 1.68 4.02 1 3 C1.33 2.67 1.66 2.34 2 2 C1.34 1.34 0.68 0.68 0 0 Z " fill="#FBD258" transform="translate(607,275)"/>
<path d="M0 0 C0.66 0.33 1.32 0.66 2 1 C2 1.66 2 2.32 2 3 C2.66 3.66 3.32 4.32 4 5 C4 5.66 4 6.32 4 7 C2.35153231 6.55123384 0.70626545 6.09069512 -0.9375 5.625 C-1.85402344 5.36976563 -2.77054687 5.11453125 -3.71484375 4.8515625 C-6 4 -6 4 -7 2 C-4.69 2 -2.38 2 0 2 C0 1.34 0 0.68 0 0 Z " fill="#75A8E4" transform="translate(73,152)"/>
<path d="M0 0 C1.65 0.33 3.3 0.66 5 1 C3.875 2.5 3.875 2.5 2 4 C-1.1875 4.1875 -1.1875 4.1875 -4 4 C-4 3.34 -4 2.68 -4 2 C-2.68 2 -1.36 2 0 2 C0 1.34 0 0.68 0 0 Z " fill="#71A1D9" transform="translate(556,395)"/>
<path d="M0 0 C1.32 0.33 2.64 0.66 4 1 C-1.625 6 -1.625 6 -5 6 C-5 5.34 -5 4.68 -5 4 C-4.0409375 3.8453125 -4.0409375 3.8453125 -3.0625 3.6875 C-2.381875 3.460625 -1.70125 3.23375 -1 3 C-0.67 2.01 -0.34 1.02 0 0 Z " fill="#85AEDA" transform="translate(84,238)"/>
<path d="M0 0 C1.43655854 -0.08131463 2.8744483 -0.13933559 4.3125 -0.1875 C5.51326172 -0.23970703 5.51326172 -0.23970703 6.73828125 -0.29296875 C9.47851584 0.06198392 10.29171079 0.89366282 12 3 C10.18674449 2.88648483 8.37436643 2.75887039 6.5625 2.625 C5.04849609 2.52058594 5.04849609 2.52058594 3.50390625 2.4140625 C2.67761719 2.27742188 1.85132812 2.14078125 1 2 C0.67 1.34 0.34 0.68 0 0 Z " fill="#4C86D0" transform="translate(90,399)"/>
<path d="M0 0 C0.66 0.99 1.32 1.98 2 3 C1.01 4.98 0.02 6.96 -1 9 C-1.33 9 -1.66 9 -2 9 C-2 6.36 -2 3.72 -2 1 C-1.34 0.67 -0.68 0.34 0 0 Z " fill="#4D88CE" transform="translate(67,29)"/>
<path d="M0 0 C0.99 0 1.98 0 3 0 C3.66 2.31 4.32 4.62 5 7 C3.35 6.67 1.7 6.34 0 6 C0 4.02 0 2.04 0 0 Z " fill="#3073C4" transform="translate(65,148)"/>
<path d="M0 0 C-6.4 4.06153846 -6.4 4.06153846 -9.4375 3.75 C-9.953125 3.5025 -10.46875 3.255 -11 3 C-3.53658537 -1.76829268 -3.53658537 -1.76829268 0 0 Z " fill="#A1C4E8" transform="translate(94,4)"/>
<path d="M0 0 C3.93673644 1.31224548 6.22719294 2.91910327 9 6 C5.32579134 5.69381595 4.21864487 5.24228216 1.6875 2.4375 C1.130625 1.633125 0.57375 0.82875 0 0 Z " fill="#9DC3EA" transform="translate(557,4)"/>
</svg>
