<?xml version="1.0" encoding="UTF-8"?>
<svg version="1.1" xmlns="http://www.w3.org/2000/svg" width="1500" height="1500">
<path d="M0 0 C1.89747482 -0.0076664 1.89747482 -0.0076664 3.83328247 -0.01548767 C7.27157513 -0.02876062 10.70975709 -0.02946935 14.14807034 -0.02692437 C17.0351686 -0.02584626 19.92224523 -0.03075952 22.80933881 -0.03552979 C29.63104739 -0.04658539 36.45270089 -0.04708529 43.27441406 -0.04101562 C50.2720744 -0.03498432 57.26953324 -0.04727444 64.26715922 -0.06858569 C70.31004118 -0.08630104 76.35285959 -0.09218737 82.3957665 -0.08894795 C85.98939202 -0.08715006 89.58287392 -0.08961912 93.17647552 -0.10366249 C136.8242532 -0.2594022 136.8242532 -0.2594022 153.61816406 15.8605957 C165.43448832 28.51655479 169.17820261 43.47131847 169.16259766 60.42480469 C169.17267349 62.02446075 169.17267349 62.02446075 169.18295288 63.65643311 C169.20182332 67.15292117 169.20585114 70.64921626 169.20800781 74.14575195 C169.21444188 76.59375587 169.22117069 79.04175902 169.22817993 81.48976135 C169.24012425 86.60956607 169.24386354 91.72930344 169.24267578 96.84912109 C169.24247242 103.39010158 169.26980539 109.93064843 169.3042202 116.47152615 C169.32651732 121.52376773 169.3305125 126.57590526 169.32945633 131.62819099 C169.33180685 134.03898682 169.34059917 136.44978576 169.35612106 138.86053276 C169.37584329 142.23903247 169.3699185 145.61660063 169.35791016 148.99511719 C169.36914917 149.97779068 169.38038818 150.96046417 169.39196777 151.97291565 C169.31391258 160.66927577 167.4842152 168.82826158 161.43457031 175.3371582 C155.79063232 180.69300655 149.79188565 180.71212373 142.32519531 180.5871582 C135.98969747 180.01380998 132.49539375 177.89798164 128.05957031 173.4621582 C122.44955836 165.28756936 121.71457583 157.59634241 121.7902832 148.015625 C121.79488304 146.64611191 121.79488304 146.64611191 121.79957581 145.24893188 C121.80670966 143.27319644 121.81608849 141.29746809 121.82747078 139.32175255 C121.84491897 136.18933516 121.85517908 133.05696921 121.86338806 129.92451477 C121.88778783 121.02042781 121.923333 112.11641014 121.96801758 103.21240234 C121.9948826 97.75901051 122.01187203 92.30565866 122.02288628 86.85221291 C122.02907246 84.78027685 122.03904798 82.70834836 122.05296516 80.63644981 C122.07230197 77.73154067 122.07909431 74.8268401 122.08325195 71.921875 C122.09201355 71.07533859 122.10077515 70.22880219 122.10980225 69.35661316 C122.11771087 59.29264717 122.11771087 59.29264717 117.55957031 50.7746582 C113.46309488 48.48825331 109.59418101 48.15076842 104.95878601 48.13421631 C103.51437637 48.12565109 103.51437637 48.12565109 102.04078674 48.11691284 C100.99599655 48.11579498 99.95120636 48.11467712 98.87475586 48.11352539 C97.76521545 48.10856049 96.65567505 48.10359558 95.51251221 48.09848022 C91.84459817 48.08388386 88.17672737 48.07706103 84.50878906 48.0715332 C81.95677184 48.06578 79.40475463 48.06002229 76.85273743 48.05426025 C72.18559239 48.04509917 67.51846028 48.03879573 62.85130852 48.0357635 C55.99726044 48.031285 49.143412 48.01374111 42.2894246 47.98476291 C36.33872596 47.96048324 30.38807668 47.9528164 24.43732643 47.95108795 C21.91241176 47.94806436 19.38749786 47.94004577 16.86261559 47.92690277 C13.32744669 47.90981325 9.79276202 47.91172987 6.25756836 47.91821289 C5.21885086 47.90899811 4.18013336 47.89978333 3.10993958 47.89028931 C-5.49030965 47.82840283 -5.49030965 47.82840283 -13.12792969 51.2746582 C-16.56482856 56.8809646 -16.54296124 63.44409858 -16.43676758 69.82666016 C-16.43260582 71.18960205 -16.43260582 71.18960205 -16.42835999 72.58007812 C-16.41616209 75.55795183 -16.38309236 78.53522471 -16.35058594 81.51293945 C-16.33989336 83.6012446 -16.33084177 85.68955873 -16.323349 87.77787781 C-16.30063175 93.26257203 -16.26162971 98.74700908 -16.21734619 104.23156738 C-16.14703193 112.99741149 -16.09163741 121.76323857 -16.05499077 130.52928734 C-16.03843599 133.57356873 -16.00886697 136.61752923 -15.97828674 139.66169739 C-15.78667706 166.7412464 -15.78667706 166.7412464 -24.19042969 175.3996582 C-32.52452902 180.71929607 -42.76741588 182.53274382 -52.25292969 184.8371582 C-101.29627422 197.07540146 -147.04581805 217.7217241 -189.63964844 244.8215332 C-194.03987259 247.39120884 -197.70523207 248.61091355 -202.81542969 248.7746582 C-203.76804687 248.8262207 -204.72066406 248.8777832 -205.70214844 248.9309082 C-215.62722445 247.02963937 -222.53816911 239.35807865 -229.25292969 232.3371582 C-235.89747219 225.41121126 -235.89747219 225.41121126 -242.95996094 218.9230957 C-248.25042713 214.39702895 -253.11776299 209.43406228 -258.02807617 204.50488281 C-259.68720289 202.84039543 -261.3516102 201.18132374 -263.01660156 199.52270508 C-268.06056898 194.48170472 -273.01424065 189.40922121 -277.6496582 183.984375 C-279.93283135 181.34373725 -282.35559734 178.87703571 -284.81542969 176.3996582 C-285.72679687 175.47411133 -286.63816406 174.54856445 -287.57714844 173.5949707 C-290.66087267 170.7898678 -292.8083576 169.5145804 -296.87792969 168.7746582 C-302.99788615 169.71618997 -306.9773156 173.87400096 -310.84643555 178.47680664 C-316.83646741 185.3538447 -323.40385267 191.69408412 -329.85449219 198.1340332 C-331.28997136 199.57018701 -332.72530214 201.00648915 -334.16049194 202.44293213 C-337.15615457 205.44006276 -340.1536025 208.43539311 -343.15234375 211.42944336 C-346.99005844 215.26144579 -350.82324499 219.09794148 -354.65511513 222.9357872 C-357.61300934 225.89729809 -360.57328501 228.85641928 -363.53428268 231.81482697 C-364.94876819 233.22864707 -366.36251587 234.64320575 -367.77550125 236.05852509 C-369.74945088 238.03502109 -371.72658943 240.00827185 -373.70458984 241.98071289 C-374.28341415 242.56156143 -374.86223846 243.14240997 -375.45860291 243.74085999 C-378.54244332 246.80870582 -381.72134031 249.56175222 -385.12792969 252.2746582 C-387.58318308 255.32713539 -388.9818712 257.39830727 -389.62792969 261.2746582 C-388.51708092 267.93975081 -383.16524257 272.50700117 -378.52685547 277.05517578 C-377.87266632 277.7048381 -377.21847717 278.35450043 -376.54446411 279.02384949 C-375.13019368 280.42720299 -373.7136515 281.82827004 -372.29507828 283.22727394 C-370.04482966 285.44721936 -367.80144368 287.67389558 -365.55978394 289.9025116 C-359.18720873 296.2354563 -352.80201917 302.5556273 -346.41357422 308.87255859 C-342.49926795 312.74397886 -338.59243588 316.62281954 -334.68981552 320.50601768 C-333.20727975 321.97803645 -331.72183983 323.44713663 -330.23337173 324.91315651 C-328.14454862 326.97053028 -326.06532428 329.03718987 -323.98779297 331.10595703 C-323.37979858 331.7000235 -322.7718042 332.29408997 -322.14538574 332.90615845 C-316.03532317 339.02933872 -310.08912534 345.86282177 -309.81542969 354.8371582 C-310.01355065 365.42900958 -315.98301022 373.46601359 -321.49121094 382.09106445 C-325.20282113 387.92974904 -328.58797264 393.93361286 -331.89453125 400.0090332 C-332.75088405 401.58206447 -333.6126008 403.15218277 -334.47851562 404.7199707 C-354.09158032 440.36540331 -366.95938813 478.44004629 -376.23339844 517.97387695 C-378.12492469 525.86812312 -380.1370266 533.77416232 -387.11621094 538.66918945 C-393.94250992 542.30731113 -400.56634323 542.42401206 -408.1472168 542.43237305 C-409.65541237 542.43999413 -409.65541237 542.43999413 -411.19407654 542.44776917 C-413.37389701 542.45845517 -415.55372834 542.46708226 -417.73356438 542.4738884 C-421.18437781 542.48569528 -424.6350671 542.50515178 -428.08583069 542.52700806 C-437.89596431 542.58857216 -447.70608394 542.64270147 -457.51635742 542.67602539 C-463.51983473 542.69696623 -469.52308342 542.73226136 -475.52643013 542.77678299 C-477.81292596 542.79094357 -480.0994622 542.79966555 -482.38599968 542.80283737 C-485.5839928 542.80774426 -488.78137833 542.83089614 -491.97924805 542.8581543 C-492.92229797 542.85514816 -493.8653479 542.85214203 -494.8369751 542.8490448 C-499.94593981 542.91373382 -503.83081803 543.19253999 -508.12792969 546.2746582 C-509.85445788 549.74527794 -510.3806817 552.57705303 -510.39535522 556.42918396 C-510.40815018 557.95365646 -510.40815018 557.95365646 -510.42120361 559.50892639 C-510.41984406 561.16498146 -510.41984406 561.16498146 -510.41845703 562.85449219 C-510.42517426 564.0257666 -510.43189148 565.19704102 -510.43881226 566.40380859 C-510.45781249 570.27616617 -510.46171732 574.14835066 -510.46386719 578.02075195 C-510.46671468 579.35698078 -510.4699066 580.69320892 -510.47343826 582.02943611 C-510.49192551 589.02598922 -510.50011032 596.02246624 -510.49853516 603.01904297 C-510.49733337 609.53284916 -510.518446 616.04632422 -510.55002248 622.56004661 C-510.57619946 628.16021065 -510.5869019 633.7602666 -510.58562434 639.36049134 C-510.5851152 642.70197616 -510.59261744 646.04293191 -510.61198044 649.38439751 C-510.63155916 653.11168863 -510.62583356 656.83812503 -510.61376953 660.56542969 C-510.63062805 662.21844841 -510.63062805 662.21844841 -510.64782715 663.90486145 C-510.5980131 669.95652102 -510.32022448 673.74509971 -506.12792969 678.2746582 C-503.36928049 679.19420794 -501.72983621 679.40301299 -498.88621521 679.41268921 C-497.58909859 679.42086922 -497.58909859 679.42086922 -496.26577759 679.42921448 C-494.84680679 679.43077797 -494.84680679 679.43077797 -493.39916992 679.43237305 C-492.40042343 679.43745377 -491.40167694 679.44253448 -490.37266541 679.44776917 C-488.20045794 679.45847908 -486.02823941 679.46709682 -483.85601616 679.4738884 C-480.41266502 679.48567739 -476.96943929 679.5051326 -473.52613831 679.52700806 C-463.73450934 679.58860838 -453.9428918 679.64258102 -444.15112305 679.67602539 C-438.16290172 679.69702962 -432.1749068 679.73238434 -426.18681526 679.77678299 C-423.90920753 679.7909031 -421.63155972 679.79965637 -419.35391045 679.80283737 C-416.15651842 679.8077736 -412.95972129 679.83100359 -409.76245117 679.8581543 C-408.83064026 679.85514816 -407.89882935 679.85214203 -406.93878174 679.8490448 C-398.41581772 679.95593788 -389.9326668 681.35790359 -383.57177734 687.44628906 C-378.31167674 694.107245 -376.95171702 703.58984202 -375.09457397 711.64593506 C-368.54682835 739.76128933 -359.07249665 767.00377404 -347.12792969 793.2746582 C-346.51401367 794.64267578 -346.51401367 794.64267578 -345.88769531 796.03833008 C-337.53996001 814.54852575 -327.57371802 832.23709333 -316.6418457 849.34179688 C-312.12435493 856.52694011 -308.80443596 863.63598849 -310.12792969 872.2746582 C-312.84510907 879.54798445 -316.96061285 884.80212364 -322.51074219 890.1105957 C-323.20682587 890.79723297 -323.90290955 891.48387024 -324.62008667 892.1913147 C-326.81938692 894.35637475 -329.03522137 896.50347327 -331.25292969 898.6496582 C-333.47410837 900.82073874 -335.69169388 902.99539957 -337.90719604 905.17227173 C-339.27986245 906.51869121 -340.65642555 907.86115281 -342.03738403 909.19906616 C-342.97383255 910.1111937 -342.97383255 910.1111937 -343.92919922 911.04174805 C-344.74929977 911.83589615 -344.74929977 911.83589615 -345.58596802 912.64608765 C-347.22070971 914.29827559 -347.22070971 914.29827559 -348.70285034 916.47671509 C-349.40826462 917.36669693 -349.40826462 917.36669693 -350.12792969 918.2746582 C-350.78792969 918.2746582 -351.44792969 918.2746582 -352.12792969 918.2746582 C-352.45792969 919.2646582 -352.78792969 920.2546582 -353.12792969 921.2746582 C-354.50537109 922.63525391 -354.50537109 922.63525391 -356.35449219 924.13793945 C-362.1082113 929.02256712 -367.39694423 934.35762787 -372.72998047 939.69140625 C-374.51479567 941.47400948 -376.30750084 943.24842515 -378.10058594 945.02270508 C-379.24300103 946.16218998 -380.3849454 947.30214705 -381.52636719 948.44262695 C-382.05966644 948.96874069 -382.5929657 949.49485443 -383.14242554 950.03691101 C-386.6752986 953.59176157 -388.85161502 956.15624574 -389.50292969 961.1496582 C-388.54017444 969.1726186 -380.81907677 974.84636228 -375.37792969 980.2121582 C-374.0746875 981.51443359 -374.0746875 981.51443359 -372.74511719 982.84301758 C-369.00903341 986.55385755 -365.25518628 990.18394464 -361.27172852 993.62866211 C-357.2921771 997.08873265 -353.53319839 1000.72432412 -349.81152344 1004.45825195 C-349.15136734 1005.11745132 -348.49121124 1005.7766507 -347.81105042 1006.45582581 C-346.42757463 1007.83862655 -345.04533886 1009.22266896 -343.66430664 1010.60791016 C-341.57061299 1012.70696163 -339.47163094 1014.8006176 -337.37207031 1016.89379883 C-336.01823398 1018.24829606 -334.66470794 1019.60310352 -333.31152344 1020.95825195 C-332.69466171 1021.57308945 -332.07779999 1022.18792694 -331.44224548 1022.82139587 C-327.69363576 1026.58988842 -324.14273179 1030.48236309 -320.66615295 1034.50291443 C-317.78228178 1037.8245914 -314.71329971 1040.95407627 -311.62792969 1044.0871582 C-311.00273437 1044.74135742 -310.37753906 1045.39555664 -309.73339844 1046.06958008 C-305.81640104 1050.03929069 -302.60845832 1052.91069781 -297.12792969 1054.2746582 C-291.08797758 1052.36849312 -287.52075676 1049.20714409 -283.17382812 1044.71118164 C-282.18930412 1043.71789604 -282.18930412 1043.71789604 -281.18489075 1042.70454407 C-279.76727489 1041.27176178 -278.35429706 1039.83437862 -276.94551849 1038.39290619 C-274.70833737 1036.10440134 -272.45866234 1033.82886298 -270.2053833 1031.55621338 C-264.60952823 1025.90702904 -259.03550748 1020.23645839 -253.46099854 1014.56622314 C-248.74980811 1009.77573463 -244.03026432 1004.99377144 -239.29956818 1000.22254181 C-237.09619514 997.99346483 -234.90534779 995.75257917 -232.71478271 993.51092529 C-213.84803765 974.36363486 -213.84803765 974.36363486 -202.63305664 974.00805664 C-193.3056506 975.00070135 -185.20443341 980.34677382 -177.44042969 985.2121582 C-134.78347858 1011.29087932 -89.61906209 1029.11148826 -41.05761719 1040.84179688 C-32.06875108 1043.07319762 -24.52188361 1045.34237302 -19.12792969 1053.2746582 C-15.99543129 1060.63602944 -15.9792138 1068.39286158 -15.97021484 1076.26147461 C-15.96259377 1077.72862663 -15.96259377 1077.72862663 -15.95481873 1079.22541809 C-15.94415776 1081.33917994 -15.93552101 1083.45295277 -15.92869949 1085.5667305 C-15.91686415 1088.91241521 -15.89740237 1092.25797352 -15.87557983 1095.60360718 C-15.81409792 1105.11240451 -15.75983696 1114.62118557 -15.7265625 1124.13012695 C-15.70563671 1129.95436138 -15.67035966 1135.77835945 -15.6258049 1141.60245895 C-15.61163878 1143.82000324 -15.60292109 1146.03758927 -15.59975052 1148.25517654 C-15.59485032 1151.35258071 -15.57171793 1154.44935449 -15.54443359 1157.54663086 C-15.54743973 1158.46208176 -15.55044586 1159.37753265 -15.55354309 1160.32072449 C-15.49158924 1165.04887461 -15.4086313 1168.57060772 -12.12792969 1172.2746582 C-8.65017216 1173.95865792 -5.85650791 1174.52630774 -2.0113678 1174.53535461 C-0.49951653 1174.54598183 -0.49951653 1174.54598183 1.0428772 1174.55682373 C2.13756317 1174.55434631 3.23224915 1174.5518689 4.36010742 1174.54931641 C6.10238869 1174.5569828 6.10238869 1174.5569828 7.87986755 1174.56480408 C11.71976879 1174.57870529 15.55949065 1174.57774293 19.39941406 1174.57543945 C21.39375819 1174.57834364 23.38810239 1174.58125247 25.38244539 1174.5848462 C31.65138488 1174.5959315 37.92026444 1174.59638426 44.18920898 1174.59033203 C50.64843028 1174.58429183 57.10743377 1174.59660649 63.56661791 1174.6179021 C69.12007149 1174.6355358 74.67345586 1174.6415167 80.2269364 1174.63826436 C83.54036219 1174.63645421 86.85359823 1174.64037949 90.16700554 1174.6529789 C93.86305421 1174.66530873 97.55859814 1174.65857183 101.25463867 1174.64697266 C102.34730042 1174.65461639 103.43996216 1174.66226013 104.56573486 1174.6701355 C110.01088542 1174.63234663 114.28707125 1174.57493012 118.87207031 1171.2746582 C120.60901029 1168.4510702 121.12382199 1166.31905158 121.13708496 1163.02658081 C121.14535812 1162.18570419 121.15363129 1161.34482758 121.16215515 1160.47846985 C121.16117325 1159.56413681 121.16019135 1158.64980377 121.15917969 1157.70776367 C121.16601273 1156.73813187 121.17284576 1155.76850006 121.17988586 1154.76948547 C121.19347322 1152.66388136 121.20252691 1150.55824424 121.20759583 1148.45260239 C121.21588917 1145.11412866 121.23640147 1141.77592792 121.26013184 1138.43753052 C121.30837694 1131.34161369 121.34126655 1124.24566934 121.37207031 1117.1496582 C121.40779951 1108.945706 121.44989131 1100.74188594 121.50801086 1092.53805923 C121.52798099 1089.26004487 121.53638115 1085.98213336 121.54431152 1082.70407104 C121.55729583 1080.67535031 121.57081786 1078.64663291 121.58496094 1076.61791992 C121.58397903 1075.71573227 121.58299713 1074.81354462 121.58198547 1073.88401794 C121.67088972 1064.66606033 122.53699225 1055.43743491 128.87207031 1048.2746582 C135.29715663 1043.04614666 141.62813465 1041.50502687 149.87207031 1042.2746582 C156.29995169 1043.38100612 160.10463026 1045.87425582 164.36425781 1050.7512207 C168.67786932 1057.97037364 169.31325877 1065.17617548 169.27612305 1073.43139648 C169.28641792 1075.05045647 169.28641792 1075.05045647 169.29692078 1076.70222473 C169.31513351 1080.24994283 169.31135732 1083.79721612 169.30566406 1087.3449707 C169.31023004 1089.8296625 169.31553686 1092.31435303 169.32154846 1094.79904175 C169.33046997 1100.00222915 169.32806906 1105.205263 169.31811523 1110.40844727 C169.3066553 1117.04212833 169.32679703 1123.67527471 169.35603237 1130.30888557 C169.37447788 1135.44108391 169.3740848 1140.57315628 169.36839485 1145.70537949 C169.36824251 1148.14914573 169.37421424 1150.592921 169.38668633 1153.03665543 C169.47762539 1173.78356882 168.13081758 1192.3183093 153.12207031 1208.20825195 C139.69677076 1220.53808435 123.30207084 1222.38434007 105.87207031 1222.8371582 C105.09863281 1222.85800476 104.32519531 1222.87885132 103.52832031 1222.90032959 C69.94618366 1223.7723417 36.24072908 1223.72848361 2.65527344 1223.01019287 C1.16837563 1222.9789111 -0.31861198 1222.95156955 -1.80566406 1222.92877197 C-18.99657865 1222.64483644 -35.23813625 1219.7659699 -48.09667969 1207.53637695 C-61.16186118 1192.98879987 -63.41275604 1176.51852472 -63.43288994 1157.81372643 C-63.4365867 1155.05160535 -63.45339854 1152.28983278 -63.47364807 1149.52778625 C-63.52877469 1141.68232692 -63.55982887 1133.83681992 -63.58422852 1125.99121094 C-63.60010231 1121.17499417 -63.63030406 1116.35903242 -63.668993 1111.54294777 C-63.68062825 1109.71336381 -63.68657322 1107.88373434 -63.68667412 1106.05411339 C-63.6868662 1103.50064739 -63.70512979 1100.9478875 -63.72729492 1098.39453125 C-63.72271774 1097.64275604 -63.71814056 1096.89098083 -63.71342468 1096.11642456 C-63.774759 1091.67131933 -64.37508211 1088.8049982 -67.12792969 1085.2746582 C-69.33840589 1083.96228825 -69.33840589 1083.96228825 -71.94824219 1083.21606445 C-73.42212402 1082.73290771 -73.42212402 1082.73290771 -74.92578125 1082.23999023 C-79.37345362 1080.89917775 -83.82214298 1079.56745407 -88.28662109 1078.28344727 C-121.19784605 1068.79622777 -152.52411775 1055.66969231 -182.42089844 1038.9309082 C-183.20513184 1038.49391602 -183.98936523 1038.05692383 -184.79736328 1037.60668945 C-186.39047477 1036.6961493 -187.96599167 1035.7543052 -189.52490234 1034.78637695 C-190.29753418 1034.31844727 -191.07016602 1033.85051758 -191.86621094 1033.3684082 C-192.54337158 1032.94237305 -193.22053223 1032.51633789 -193.91821289 1032.07739258 C-197.05895884 1030.93643879 -198.90769189 1031.41548263 -202.12792969 1032.2746582 C-204.91034233 1034.34913059 -204.91034233 1034.34913059 -207.515625 1037.12646484 C-208.01737747 1037.63069977 -208.51912994 1038.13493469 -209.03608704 1038.65444946 C-210.68794984 1040.31995893 -212.32158331 1042.00224981 -213.95605469 1043.68481445 C-215.11054483 1044.8537304 -216.26630804 1046.02139022 -217.42327881 1047.18785095 C-220.46831175 1050.26328643 -223.49892692 1053.3525197 -226.52581787 1056.44580078 C-231.35199428 1061.37424219 -236.19730401 1066.28378952 -241.04714203 1071.18893242 C-242.7261981 1072.89185578 -244.39762401 1074.60198692 -246.06817627 1076.31324768 C-260.53643962 1091.05482512 -275.63965286 1102.50666475 -297.12792969 1103.6496582 C-323.95716624 1102.27379992 -340.16046762 1083.56987545 -357.91699219 1065.85668945 C-358.86484371 1064.91300807 -359.81283669 1063.96946876 -360.76096725 1063.02606773 C-365.72391835 1058.08749326 -370.68122814 1053.14332904 -375.63378906 1048.19433594 C-380.2146068 1043.61715183 -384.80839692 1039.05327547 -389.40827525 1034.49525434 C-393.38872581 1030.54973105 -397.35926786 1026.59440936 -401.32263982 1022.63173121 C-403.67610445 1020.27905132 -406.03427935 1017.93169614 -408.40053177 1015.59183693 C-423.86075698 1000.29045862 -439.06479645 984.76932891 -439.37792969 961.6496582 C-439.17044291 943.50399657 -430.66280605 929.67951856 -418.12792969 917.2746582 C-416.5649487 915.71133685 -415.00248879 914.14749444 -413.44042969 912.58325195 C-410.94822831 910.08888134 -408.45287487 907.59851451 -405.94140625 905.12353516 C-401.66110609 900.89237787 -397.55596725 896.6013493 -393.67578125 891.99853516 C-392.09775902 890.24105646 -390.43392893 888.73161608 -388.62792969 887.2121582 C-384.35229503 883.55336412 -380.2875899 879.69506678 -376.25292969 875.7746582 C-375.58583984 875.14551514 -374.91875 874.51637207 -374.23144531 873.86816406 C-370.28626641 869.99213684 -367.73341997 866.99460893 -367.12792969 861.2746582 C-367.95540072 858.59339548 -368.7845983 856.68478781 -370.12792969 854.2746582 C-370.54526367 853.49413086 -370.96259766 852.71360352 -371.39257812 851.90942383 C-372.90887507 849.10286178 -374.4560195 846.31445362 -376.00292969 843.5246582 C-393.80571019 810.93438818 -408.19342273 776.79257866 -417.58227539 740.80395508 C-419.26243298 733.95429945 -419.26243298 733.95429945 -424.12792969 729.2746582 C-426.58553986 729.0724536 -428.93226098 728.98407566 -431.390625 728.98754883 C-432.12774719 728.98071579 -432.86486938 728.97388275 -433.62432861 728.96684265 C-435.22682901 728.95324927 -436.82937287 728.94419944 -438.43192291 728.93913269 C-440.98200871 728.93082364 -443.53173975 728.91029156 -446.08172607 728.88659668 C-451.51374076 728.83833983 -456.94579214 728.80552535 -462.37792969 728.7746582 C-468.63585918 728.73879414 -474.89362029 728.69635816 -481.15139008 728.63871765 C-483.6386508 728.61894406 -486.12577602 728.61038429 -488.61309814 728.60241699 C-507.96681428 728.47529827 -527.05904545 726.84142265 -542.12792969 713.2746582 C-559.60080524 695.53250889 -558.59105789 671.17803407 -558.49797463 647.99868107 C-558.48649815 644.46361926 -558.49077969 640.92856879 -558.49272156 637.39349365 C-558.49359903 631.46630053 -558.48263583 625.53922297 -558.46411133 619.61206055 C-558.44291293 612.79092698 -558.43944548 605.9699619 -558.44567329 599.14880204 C-558.4513949 592.5397283 -558.445691 585.93071296 -558.43449974 579.32164764 C-558.42989462 576.52930352 -558.42896189 573.73699559 -558.43108559 570.94464874 C-558.43334314 567.03798803 -558.41876477 563.13148323 -558.40258789 559.22485352 C-558.40506531 558.08688828 -558.40754272 556.94892303 -558.41009521 555.776474 C-558.30926582 540.42324656 -555.66617239 525.04529683 -545.12792969 513.2746582 C-544.30228516 512.27692383 -544.30228516 512.27692383 -543.45996094 511.2590332 C-534.98374285 501.78880233 -521.58846393 496.08252602 -508.98159027 495.10889626 C-502.96464118 494.85547231 -496.94528748 494.93002108 -490.92480469 494.98168945 C-488.99139742 494.98729555 -487.05798584 494.99156085 -485.12457275 494.99455261 C-480.07427887 495.00592163 -475.02425026 495.03531906 -469.97406006 495.06866455 C-464.80533433 495.09953813 -459.6365651 495.11309464 -454.46777344 495.12817383 C-444.35437664 495.16019749 -434.24117536 495.21129596 -424.12792969 495.2746582 C-423.94802994 494.64260468 -423.76813019 494.01055115 -423.58277893 493.35934448 C-422.00111149 487.92769842 -420.21643395 482.720478 -417.96777344 477.5324707 C-417.51532761 476.46918297 -417.51532761 476.46918297 -417.05374146 475.38441467 C-416.4027306 473.85516346 -415.74951182 472.32685059 -415.0942688 470.79940796 C-413.28823299 466.5868601 -411.50139192 462.36618066 -409.71386719 458.14575195 C-409.33833206 457.2598085 -408.96279694 456.37386505 -408.57588196 455.46107483 C-404.36092156 445.4968065 -400.27192471 435.48166662 -396.19042969 425.4621582 C-391.58871462 414.16612781 -386.9750464 402.87615239 -382.28027344 391.6184082 C-381.88703384 390.67459793 -381.49379425 389.73078766 -381.08863831 388.75837708 C-379.20838504 384.2469571 -377.32392563 379.73736744 -375.43286133 375.23046875 C-374.75815366 373.61374954 -374.08358542 371.99697214 -373.40917969 370.38012695 C-373.10483505 369.65921875 -372.80049042 368.93831055 -372.48692322 368.19555664 C-370.71816419 363.94249846 -369.31046533 359.72768936 -368.12792969 355.2746582 C-373.61053598 349.76878051 -379.09591572 344.26568215 -384.5847559 338.76601982 C-387.13393844 336.21164063 -389.68219154 333.65634898 -392.22827148 331.09887695 C-394.68993699 328.62626738 -397.15410766 326.15617921 -399.61996269 323.68774796 C-401.00796236 322.29702831 -402.39342211 320.90377519 -403.77882385 319.51046753 C-408.40925332 314.87963156 -413.10226657 310.47248304 -418.12792969 306.2746582 C-430.18398398 294.12292094 -438.95280172 279.42506226 -439.50292969 262.0871582 C-439.07944946 235.43437146 -419.24362802 218.07372706 -401.73339844 200.5793457 C-399.93633177 198.77838433 -398.1394861 196.97720241 -396.34284973 195.17581177 C-392.58994608 191.41547908 -388.83330567 187.6589322 -385.07397461 183.9050293 C-380.75668081 179.59377444 -376.44865039 175.27341931 -372.14503211 170.94851673 C-367.96839043 166.75199678 -363.78328216 162.56399303 -359.59493446 158.37915421 C-357.83013018 156.6138401 -356.06765617 154.84619292 -354.30766869 153.07607651 C-321.67675284 120.28040948 -321.67675284 120.28040948 -300.01000977 119.89453125 C-291.03311937 119.91244239 -283.39540597 120.37731621 -275.12792969 124.2746582 C-273.95423828 124.81799805 -273.95423828 124.81799805 -272.75683594 125.37231445 C-262.07399027 130.8340813 -253.68148835 139.46714792 -245.40807152 147.96644783 C-243.69429981 149.72493319 -241.9721411 151.47480361 -240.24739075 153.22251892 C-235.35212614 158.18440763 -230.46610987 163.15515632 -225.59985352 168.14550781 C-222.60557289 171.21493941 -219.59696251 174.26967482 -216.57857704 177.31539726 C-215.43551184 178.47456909 -214.2980261 179.63927053 -213.16631126 180.80952644 C-211.59170116 182.43691549 -209.99956867 184.04499245 -208.40209961 185.64990234 C-207.50182541 186.56953262 -206.60155121 187.4891629 -205.67399597 188.43666077 C-203.2990174 190.55331283 -203.2990174 190.55331283 -200.52833557 190.151474 C-197.01830827 188.86933776 -193.55428172 187.50880573 -190.11230469 186.0559082 C-189.32176193 185.72660812 -188.53121918 185.39730804 -187.71672058 185.05802917 C-185.10200781 183.96778803 -182.49001477 182.87117828 -179.87792969 181.7746582 C-178.02730099 181.00179626 -176.17646734 180.22942492 -174.32543945 179.45751953 C-170.48358713 177.85498697 -166.64262495 176.25034735 -162.80224609 174.64428711 C-157.53336521 172.44220493 -152.25965449 170.25197132 -146.98339844 168.06762695 C-146.16412872 167.72841217 -145.34485901 167.38919739 -144.50076294 167.03970337 C-142.02237714 166.01371331 -139.54390946 164.98792123 -137.06542969 163.9621582 C-126.83847291 159.72934281 -116.61697626 155.484152 -106.41041565 151.2023468 C-101.98279535 149.34493407 -97.5538869 147.49060197 -93.12503052 145.63613892 C-90.97349521 144.73401915 -88.8226671 143.83021073 -86.6725769 142.9246521 C-83.67502346 141.66221446 -80.67516709 140.40540226 -77.67480469 139.1496582 C-76.7809053 138.77134354 -75.88700592 138.39302887 -74.96601868 138.00325012 C-74.13611923 137.65711166 -73.30621979 137.31097321 -72.45117188 136.9543457 C-71.73322449 136.65254395 -71.0152771 136.35074219 -70.27557373 136.03979492 C-67.91605834 135.19917523 -65.59152279 134.7110958 -63.12792969 134.2746582 C-63.13681213 133.23277344 -63.14569458 132.19088867 -63.15484619 131.11743164 C-63.23641286 121.2332286 -63.2961237 111.34909505 -63.33517838 101.46463013 C-63.3559327 96.38456038 -63.38402445 91.30476527 -63.4296875 86.22485352 C-63.47358361 81.30999098 -63.49715783 76.39539032 -63.50743866 71.48034668 C-63.51475236 69.61791876 -63.52903075 67.75550295 -63.55084991 65.89318848 C-63.75387164 47.82379416 -61.75512902 29.81320942 -48.86621094 15.8918457 C-35.1217474 3.10486165 -18.15811513 -0.03841005 0 0 Z " fill="#0066FE" transform="translate(697.1279296875,136.725341796875)"/>
<path d="M0 0 C1.18742664 -0.00226556 2.37485328 -0.00453111 3.59826255 -0.00686532 C6.85393931 -0.01205467 10.10958084 -0.01285816 13.36526036 -0.01167095 C16.89231962 -0.01146514 20.41937093 -0.01700265 23.94642639 -0.02172852 C30.84119194 -0.02999658 37.73594894 -0.0327816 44.63071904 -0.03334089 C50.24048537 -0.03381782 55.8502489 -0.03588136 61.46001434 -0.03904152 C77.40031433 -0.0478371 93.34060761 -0.05246254 109.28091004 -0.05171105 C110.5670088 -0.05165111 110.5670088 -0.05165111 111.87908936 -0.05158997 C113.16677651 -0.05152864 113.16677651 -0.05152864 114.48047754 -0.05146609 C128.3873763 -0.05105978 142.29424796 -0.06062824 156.20113888 -0.07472833 C170.51550154 -0.0891259 184.829851 -0.09599668 199.14422107 -0.09513456 C207.16666736 -0.09480378 215.18908523 -0.09749815 223.21152496 -0.10831261 C230.04208207 -0.11746217 236.87259786 -0.1195565 243.70315847 -0.11280318 C247.18074137 -0.10956049 250.65824523 -0.10939875 254.13582039 -0.11815643 C290.03593646 -0.19196565 290.03593646 -0.19196565 305.56610107 4.75871277 C306.39770752 5.0181366 307.22931396 5.27756042 308.08612061 5.54484558 C337.66861669 15.17004312 361.07194283 36.34315533 375.44891357 63.76261902 C389.31179003 91.429428 391.4379373 123.26683012 382.31610107 152.75871277 C374.20863888 175.45475214 360.54767377 192.46839724 343.50360107 209.13371277 C346.41827573 212.55239525 349.34012504 215.96209043 352.32781982 219.31730652 C367.8765698 236.89473922 380.62734821 256.22126463 386.50360107 279.13371277 C386.74852295 280.06183777 386.99344482 280.98996277 387.24578857 281.94621277 C393.45526707 309.84633533 382.95784587 338.80990971 368.18963623 362.2162323 C362.7545987 370.55596713 356.80023249 378.49558911 350.67547607 386.33683777 C348.18739332 389.54091557 345.82433887 392.80732192 343.50360107 396.13371277 C344.10946045 396.65578308 344.71531982 397.17785339 345.33953857 397.71574402 C369.80675859 419.20925576 385.17601824 446.32126033 387.50360107 479.13371277 C389.27802814 512.89791168 378.78360479 543.07433156 356.25360107 568.32121277 C336.20951266 589.9008508 308.70618531 602.02351214 279.50360107 604.13371277 C275.42434866 604.26929981 271.3487907 604.27736412 267.26753235 604.27415466 C266.07182946 604.27712579 264.87612656 604.28009691 263.64419025 604.28315806 C260.35139428 604.29029142 257.05863027 604.2930137 253.76582778 604.29375553 C250.20391048 604.29561839 246.64200421 604.30317184 243.08009338 604.30989075 C235.30279989 604.32342529 227.52551159 604.32949128 219.74820828 604.33390141 C214.88318795 604.33667236 210.01816957 604.34091125 205.15315056 604.34540558 C191.65816784 604.35759234 178.16318668 604.36789252 164.66819859 604.37128067 C163.37467836 604.37161002 163.37467836 604.37161002 162.05502641 604.37194602 C160.75857644 604.37227344 160.75857644 604.37227344 159.43593556 604.37260747 C157.68480909 604.37305092 155.93368262 604.37349748 154.18255615 604.37394714 C152.87965341 604.37427929 152.87965341 604.37427929 151.5504294 604.37461814 C137.49271531 604.37856171 123.43505319 604.39600492 109.37735916 604.41930667 C94.91166004 604.44308925 80.44598691 604.45548567 65.98026794 604.45664859 C57.87162341 604.45756153 49.7630466 604.46321698 41.65442085 604.4814682 C34.7466146 604.49696283 27.83889701 604.50193504 20.93107665 604.4937301 C17.4147488 604.48985628 13.89859898 604.49059033 10.3822937 604.50478745 C-27.55498684 604.63188546 -62.81337118 597.76788231 -90.80889893 570.32121277 C-113.51000495 547.22714901 -123.75853634 515.75075911 -123.74517822 483.77409363 C-123.36852524 450.99986488 -108.14648834 423.91782639 -85.49639893 401.13371277 C-83.53192533 399.41624114 -81.52775435 397.77305223 -79.49639893 396.13371277 C-80.85495187 392.99079178 -82.25305514 391.29741466 -84.93389893 389.19621277 C-107.5460221 369.94923316 -120.5980276 340.06403022 -123.21905518 310.88371277 C-125.57541297 279.02310035 -114.60973913 248.13966623 -93.87139893 224.07121277 C-89.80940316 219.45312105 -85.63888791 215.14255463 -80.78936768 211.33293152 C-80.36268799 210.93718933 -79.9360083 210.54144714 -79.49639893 210.13371277 C-79.49639893 209.47371277 -79.49639893 208.81371277 -79.49639893 208.13371277 C-81.04718963 206.56507195 -81.04718963 206.56507195 -83.05889893 204.94621277 C-106.1876031 185.0927272 -120.96568242 156.62728448 -123.49639893 126.13371277 C-125.51084981 91.4569395 -114.27081944 60.90242543 -91.24639893 35.00871277 C-76.20829292 18.68064442 -55.90038525 7.75284202 -34.37139893 2.82121277 C-33.68013916 2.66169128 -32.98887939 2.5021698 -32.27667236 2.33781433 C-21.67986655 0.10612998 -10.7885313 -0.01542953 0 0 Z M-38.80889893 55.82121277 C-39.79406494 56.33385681 -39.79406494 56.33385681 -40.7991333 56.8568573 C-56.83435711 65.5053761 -67.65404779 79.08557322 -73.56280518 96.22746277 C-78.63353967 114.06077055 -77.25127043 132.59914109 -68.49639893 149.13371277 C-57.64866332 166.81225932 -42.37353591 179.39282478 -21.87139893 184.38371277 C-13.7678185 185.87687304 -5.67870011 186.28161128 2.54589844 186.26069641 C3.50612278 186.2622564 4.46634712 186.26381639 5.45566916 186.26542366 C8.64776923 186.2693863 11.83982104 186.26626208 15.03192139 186.2631073 C17.3331149 186.26446376 19.63430821 186.26624508 21.9355011 186.26841736 C28.17953938 186.27297171 34.42356111 186.27120788 40.66759968 186.26803827 C46.58166774 186.26575219 52.49573381 186.2675045 58.40980193 186.26896547 C70.88247176 186.27181595 83.35513424 186.26854421 95.82780287 186.2631651 C106.42400367 186.25873517 117.02019346 186.25944195 127.61639404 186.26408386 C139.99269502 186.26950327 152.36898947 186.27150199 164.74529147 186.2684716 C171.26801434 186.26691673 177.79073118 186.26663538 184.31345367 186.27000809 C200.71058033 186.27709334 217.10680714 186.24078896 233.50360107 186.13371277 C234.60439688 186.12727344 235.70519268 186.1208341 236.83934593 186.11419964 C243.25651473 186.07462426 249.67274594 186.01217753 256.08932829 185.91622901 C258.02515082 185.88960672 259.961069 185.86904497 261.89702654 185.85540605 C276.4256469 185.74324626 290.63316806 184.46379905 303.75360107 177.57121277 C304.40780029 177.23388123 305.06199951 176.89654968 305.73602295 176.54899597 C321.9855881 167.72468943 332.90453259 152.30166146 338.25360107 134.82121277 C342.8327265 116.37387889 340.17815768 97.03017062 330.44622803 80.68132019 C319.97678791 64.02837408 305.35229006 54.16434797 286.50360107 49.13371277 C280.59845146 47.82687643 274.7063444 47.98555097 268.69039917 47.98654175 C267.49191373 47.98286506 266.29342829 47.97918837 265.0586251 47.97540027 C261.73959292 47.96630073 258.42061007 47.96166974 255.10157013 47.95901096 C251.51850625 47.95509627 247.93545653 47.94551867 244.35240173 47.9367981 C235.70217583 47.91706489 227.05194882 47.90697076 218.40170604 47.89807031 C214.32235724 47.89368162 210.24300974 47.88831626 206.16366196 47.88308144 C192.59248944 47.86607112 179.02131772 47.85157918 165.45013618 47.8443327 C161.93084843 47.84242298 158.41156068 47.84050262 154.89227295 47.83854675 C154.01763157 47.83806301 153.14299019 47.83757927 152.24184452 47.83708087 C138.08806825 47.82878887 123.93437671 47.80346513 109.7806374 47.77096608 C95.23032883 47.73783046 80.68006323 47.71987801 66.12971675 47.71668845 C57.96798691 47.7145292 49.80638058 47.70586674 41.64468765 47.68022728 C34.69056919 47.65843111 27.73660426 47.65051333 20.78245552 47.66019406 C17.24014547 47.66471335 13.69815158 47.66299284 10.1558857 47.64343262 C-6.96877421 47.55408073 -23.31470714 47.53292811 -38.80889893 55.82121277 Z M-59.65655518 256.94621277 C-70.7079513 270.08587695 -77.45225608 287.13244548 -76.78155518 304.45402527 C-74.54464394 325.47486234 -66.86247387 342.15870976 -50.49639893 356.13371277 C-35.38990697 367.21569528 -18.82530728 371.45921106 -0.34767151 371.39440918 C0.82650119 371.39823473 2.00067389 371.40206027 3.21042758 371.40600175 C6.43838601 371.41447869 9.66619718 371.41411971 12.8941592 371.40982115 C16.38784065 371.4073398 19.88149611 371.4163856 23.37516785 371.42385864 C30.20838495 371.43656974 37.04156268 371.43840374 43.87478962 371.43605838 C49.43408163 371.43427066 54.99336176 371.43603458 60.55265236 371.44028282 C61.34584644 371.44087801 62.13904052 371.4414732 62.95627079 371.44208642 C64.56801821 371.44329827 66.17976564 371.4445124 67.79151306 371.4457288 C82.88762466 371.45659099 97.9837139 371.4544484 113.07982675 371.44834395 C126.86144757 371.44317872 140.64299762 371.4544222 154.42460444 371.47344217 C168.60443222 371.49286035 182.7842266 371.50106944 196.96406776 371.49731892 C204.91330629 371.49541255 212.86248464 371.49783893 220.81171227 371.51203346 C227.58088145 371.52399926 234.34995343 371.52529448 241.11912408 371.5132433 C244.56622443 371.50739018 248.01314748 371.50615485 251.4602356 371.5182457 C277.60260119 371.59164568 301.10490985 369.67063998 320.75360107 350.38371277 C333.18111956 337.68349631 340.24646629 321.27103453 340.81610107 303.44621277 C340.34741244 283.05825711 332.35890892 264.8283312 317.90985107 250.57511902 C301.54385491 236.30300766 282.69578102 232.97609172 261.67167664 232.99327087 C260.51948169 232.99029975 259.36728674 232.98732863 258.18017679 232.98426747 C254.33997936 232.97563303 250.49981329 232.97407669 246.65960693 232.97257996 C243.89757099 232.96848176 241.13553828 232.9629429 238.37350464 232.95753479 C230.88352641 232.94400406 223.39355358 232.93793508 215.90356517 232.93352413 C211.21880084 232.93075297 206.53403854 232.92651408 201.84927559 232.92201996 C188.85526503 232.90983453 175.8612561 232.89953355 162.86723995 232.89614487 C162.03703373 232.8959253 161.20682751 232.89570573 160.35146353 232.89547952 C159.51937706 232.89526124 158.68729059 232.89504296 157.82998937 232.89481807 C156.14412622 232.89437462 154.45826306 232.89392805 152.7723999 232.89347839 C151.93617021 232.89325696 151.09994053 232.89303553 150.23837055 232.89280739 C136.6998598 232.8888625 123.16140298 232.87141462 109.62291306 232.84811887 C95.69284939 232.82434458 81.76281271 232.81194027 67.83272845 232.81077695 C60.02372423 232.80986364 52.21479031 232.80419846 44.40580559 232.78595734 C37.75449178 232.77047409 31.10327003 232.76548399 24.4519416 232.77369544 C21.06543452 232.77757304 17.67926132 232.77514691 14.29275322 232.76263809 C-14.00404796 232.66430335 -39.09359341 235.41607693 -59.65655518 256.94621277 Z M-38.80889893 426.82121277 C-39.79406494 427.33385681 -39.79406494 427.33385681 -40.7991333 427.8568573 C-56.83435711 436.5053761 -67.65404779 450.08557322 -73.56280518 467.22746277 C-78.69163446 485.26508461 -77.0196669 503.33000497 -68.49639893 520.13371277 C-58.36814986 538.2051076 -42.37545961 549.10806763 -22.89874268 554.90715027 C-14.14594178 557.0374616 -5.09914779 557.28267405 3.86547852 557.26069641 C4.85993225 557.2622564 5.85438598 557.26381639 6.87897468 557.26542366 C10.18648275 557.26938804 13.49394429 557.26626149 16.80145264 557.2631073 C19.18459093 557.26446361 21.56772901 557.26624483 23.9508667 557.26841736 C29.74416903 557.27249842 35.53745679 557.27190714 41.33075956 557.26900472 C46.05845656 557.26673584 50.78614995 557.26644459 55.51384735 557.26752853 C56.18981057 557.26768177 56.86577379 557.267835 57.56222074 557.26799288 C58.93628361 557.26831267 60.31034648 557.26863688 61.68440935 557.26896547 C74.56553399 557.27181534 87.4466515 557.26854413 100.32777497 557.2631651 C111.29491593 557.25872591 122.26204626 557.25944991 133.22918701 557.26408386 C146.02438269 557.26948787 158.81957208 557.27151104 171.61476874 557.2684716 C172.99201695 557.26815314 174.36926516 557.26783877 175.74651337 557.26752853 C176.42371577 557.26737426 177.10091818 557.26721998 177.79864188 557.26706103 C182.4867374 557.26621101 187.17482761 557.26767692 191.86292267 557.27000809 C208.41019291 557.27688679 224.95669464 557.24915805 241.50360107 557.13371277 C242.98658723 557.12405377 242.98658723 557.12405377 244.4995327 557.11419964 C249.90419946 557.07605264 255.30766641 557.01529364 260.71157408 556.91622901 C262.2611756 556.88979343 263.81089113 556.86914632 265.36065722 556.85540605 C278.49323407 556.72685534 291.8998049 554.79469377 303.69110107 548.63371277 C304.34344727 548.29678406 304.99579346 547.95985535 305.66790771 547.61271667 C322.21846363 538.57562607 333.12660893 523.00430429 338.50360107 505.13371277 C343.14997528 487.15958097 339.78296684 468.1325802 330.75360107 452.00871277 C320.10748546 435.18098164 305.54602203 425.21605422 286.50360107 420.13371277 C280.59845146 418.82687643 274.7063444 418.98555097 268.69039917 418.98654175 C267.49191373 418.98286506 266.29342829 418.97918837 265.0586251 418.97540027 C261.73959292 418.96630073 258.42061007 418.96166974 255.10157013 418.95901096 C251.51850625 418.95509627 247.93545653 418.94551867 244.35240173 418.9367981 C235.70217583 418.91706489 227.05194882 418.90697076 218.40170604 418.89807031 C214.32235724 418.89368162 210.24300974 418.88831626 206.16366196 418.88308144 C192.59248944 418.86607112 179.02131772 418.85157918 165.45013618 418.8443327 C161.93084843 418.84242298 158.41156068 418.84050262 154.89227295 418.83854675 C154.01763157 418.83806301 153.14299019 418.83757927 152.24184452 418.83708087 C138.08806825 418.82878887 123.93437671 418.80346513 109.7806374 418.77096608 C95.23032883 418.73783046 80.68006323 418.71987801 66.12971675 418.71668845 C57.96798691 418.7145292 49.80638058 418.70586674 41.64468765 418.68022728 C34.69056919 418.65843111 27.73660426 418.65051333 20.78245552 418.66019406 C17.24014547 418.66471335 13.69815158 418.66299284 10.1558857 418.64343262 C-6.96877421 418.55408073 -23.31470714 418.53292811 -38.80889893 426.82121277 Z " fill="#000000" transform="translate(571.4963989257813,445.8662872314453)"/>
<path d="M0 0 C17.08171832 14.0093467 27.31188959 34.34736324 29.49853516 56.22900391 C31.30703458 80.48765543 24.86941874 103.89486864 8.90478516 122.60009766 C-6.69764701 139.64626137 -27.95185538 150.36505714 -51.14208984 151.51025391 C-75.0752937 152.20677399 -96.63966519 144.99481331 -114.23046875 128.46826172 C-122.69050394 120.27579204 -128.24994211 111.54384335 -133.55834961 101.09643555 C-136.72530604 94.889077 -136.72530604 94.889077 -142.50146484 91.22900391 C-145.77194225 90.22523938 -148.75317381 90.09868272 -152.16766357 90.08856201 C-153.32275421 90.08285187 -154.47784485 90.07714172 -155.66793823 90.07125854 C-156.93139069 90.07014069 -158.19484314 90.06902283 -159.49658203 90.06787109 C-160.84378189 90.06324051 -162.19098045 90.05821553 -163.53817749 90.05282593 C-167.19538545 90.03972201 -170.85257506 90.03326076 -174.50980282 90.02881527 C-176.7967319 90.02588097 -179.08365601 90.02177546 -181.37058258 90.0173111 C-188.53173446 90.00364072 -195.69287493 89.99397213 -202.85403895 89.99010921 C-211.10946494 89.98563108 -219.36472515 89.96809276 -227.62010074 89.93910861 C-234.00836738 89.9174615 -240.39658749 89.90740329 -246.78489041 89.90606809 C-250.5969412 89.90502212 -254.40883604 89.89915894 -258.22084808 89.88124847 C-261.80944052 89.86471549 -265.39776066 89.8626374 -268.98637772 89.87138748 C-270.92189775 89.87251948 -272.85740897 89.85884208 -274.7928772 89.84463501 C-282.39679527 89.880942 -288.81509853 90.17304226 -294.89990234 95.21728516 C-299.30319671 100.39507201 -303.39555031 105.7226352 -307.28710938 111.29199219 C-311.13042244 116.77975107 -315.17415024 122.10102652 -319.25146484 127.41650391 C-324.4028595 134.13920367 -329.49821652 140.89529887 -334.50146484 147.72900391 C-340.13318292 155.41638776 -345.87539048 163.01356725 -351.66577148 170.58203125 C-355.28269676 175.31087348 -358.87713325 180.05419451 -362.43139648 184.83032227 C-364.77352302 187.97427156 -367.13564506 191.10286835 -369.50146484 194.22900391 C-369.90945313 194.77298828 -370.31744141 195.31697266 -370.73779297 195.87744141 C-376.76184885 203.85658626 -383.34740216 211.02159898 -393.50146484 213.22900391 C-400.30434287 213.85890002 -405.4952229 212.1166442 -411.18896484 208.54150391 C-416.57489902 203.15556973 -419.61739696 197.30900655 -419.87646484 189.66650391 C-419.92544922 188.69583984 -419.97443359 187.72517578 -420.02490234 186.72509766 C-418.72442949 178.03910356 -413.22805333 171.12370208 -407.81396484 164.47900391 C-406.55527812 162.89870361 -405.2987807 161.31665718 -404.04443359 159.73291016 C-403.43519043 158.96479004 -402.82594727 158.19666992 -402.19824219 157.40527344 C-399.91218046 154.47319369 -397.75564856 151.46347859 -395.62646484 148.41650391 C-390.82671681 141.57683778 -385.75267039 134.95743635 -380.67041016 128.32617188 C-376.1709916 122.44613005 -371.74637157 116.51828493 -367.37646484 110.54150391 C-362.29493955 103.59718405 -357.07195272 96.78168915 -351.76196289 90.01098633 C-347.47548746 84.52711095 -343.30718766 78.965159 -339.18896484 73.35400391 C-338.31099243 72.15855957 -338.31099243 72.15855957 -337.4152832 70.93896484 C-335.31577644 68.07678742 -333.217816 65.21354062 -331.12939453 62.34326172 C-318.1758241 44.55342409 -318.1758241 44.55342409 -308.50146484 42.22900391 C-303.25374265 41.79192647 -298.01821404 41.83188709 -292.75732422 41.86010742 C-291.16323081 41.85763666 -289.56913904 41.85379546 -287.97505188 41.84869385 C-284.55438303 41.84038274 -281.13388082 41.84114044 -277.71321106 41.84887886 C-272.29989984 41.86050037 -266.88680125 41.84826751 -261.47351074 41.83226013 C-248.03071356 41.7961336 -234.58792191 41.78983561 -221.14508057 41.7923584 C-210.69037316 41.79407084 -200.23584039 41.78691952 -189.78118181 41.75237983 C-184.40424845 41.7356162 -179.02774172 41.73735384 -173.65081024 41.75320256 C-170.30159927 41.75901169 -166.95258936 41.74823794 -163.60341454 41.73295593 C-162.05548892 41.72923942 -160.50752914 41.73230962 -158.95963478 41.74282646 C-150.94928382 41.79360763 -144.34903882 41.82665976 -137.50146484 37.22900391 C-135.73362824 35.28797475 -135.73362824 35.28797475 -134.81396484 33.03369141 C-134.42982422 32.24019287 -134.04568359 31.44669434 -133.64990234 30.62915039 C-133.27091797 29.79585205 -132.89193359 28.96255371 -132.50146484 28.10400391 C-128.86723264 20.70246083 -125.161396 14.3009607 -119.50146484 8.22900391 C-118.76669922 7.40400391 -118.03193359 6.57900391 -117.27490234 5.72900391 C-86.10902205 -27.56874442 -34.59311074 -27.6472911 0 0 Z M-85.25146484 41.10791016 C-91.71412677 49.10545429 -95.16452278 58.9516059 -94.50146484 69.22900391 C-92.39532943 80.84844591 -87.26086264 90.38520438 -77.50146484 97.22900391 C-69.09564831 102.65025093 -59.30175773 105.29716397 -49.31396484 103.66650391 C-38.42602624 100.87834459 -29.30505111 94.96119171 -23.18896484 85.47900391 C-17.99300029 76.06664188 -16.15294394 66.82776923 -18.50146484 56.22900391 C-22.26579462 45.62251849 -28.07691226 37.38211301 -38.00146484 31.83056641 C-54.67255702 24.09825063 -72.7687527 27.70571252 -85.25146484 41.10791016 Z " fill="#000000" transform="translate(1331.50146484375,187.77099609375)"/>
<path d="M0 0 C8.66292705 4.9522596 14.34472574 12.8200261 20.15869141 20.70068359 C22.07720121 23.28564699 24.05263181 25.82588238 26.0234375 28.37109375 C27.81762716 30.70249192 29.60815495 33.03669442 31.3984375 35.37109375 C31.98399414 36.13454102 32.56955078 36.89798828 33.17285156 37.68457031 C42.12910192 49.37277299 50.96974095 61.1366244 59.671875 73.01513672 C64.33732805 79.3813163 69.02109562 85.73391378 73.71240234 92.08105469 C75.38364782 94.35100583 77.04218565 96.6298173 78.69921875 98.91015625 C79.74452279 100.33483274 80.79008344 101.75932099 81.8359375 103.18359375 C82.29564941 103.82321045 82.75536133 104.46282715 83.22900391 105.12182617 C87.61081655 111.05253289 92.29865223 115.955743 99.3984375 118.37109375 C102.26371277 118.67438072 102.26371277 118.67438072 105.35020447 118.63851929 C106.54321671 118.64704926 107.73622894 118.65557922 108.96539307 118.66436768 C110.26579529 118.6634613 111.56619751 118.66255493 112.90600586 118.66162109 C114.29600891 118.66760859 115.68600865 118.67441465 117.07600403 118.68197632 C120.84460351 118.69961896 124.61311213 118.7043309 128.38174891 118.70560789 C130.73752137 118.70703079 133.09327082 118.71130297 135.44903755 118.71660233 C143.67103667 118.73509536 151.892971 118.74327366 160.11499023 118.74169922 C167.77393879 118.74049732 175.43260576 118.76161078 183.09148306 118.79318655 C189.67252836 118.81934994 196.25348167 118.83006652 202.83457857 118.8287884 C206.76284064 118.82827887 210.69085226 118.83395694 214.61906242 118.8551445 C218.31361671 118.87452873 222.00768165 118.87465057 225.70225334 118.86011124 C227.70017749 118.85702818 229.69810169 118.87369742 231.69595337 118.89099121 C240.36137884 118.87284183 240.36137884 118.87284183 247.3984375 114.37109375 C248.90815001 112.40455575 248.90815001 112.40455575 249.85546875 110.2109375 C250.24105957 109.42243408 250.62665039 108.63393066 251.02392578 107.8215332 C251.41563965 106.99226318 251.80735352 106.16299316 252.2109375 105.30859375 C256.17229752 97.3731145 260.31351292 90.88106821 266.3984375 84.37109375 C266.9965625 83.68273438 267.5946875 82.994375 268.2109375 82.28515625 C282.30619048 66.91403986 303.15538184 58.33253956 323.7109375 57.0546875 C347.39600163 56.14083597 369.85411191 64.39211693 387.5546875 80.12109375 C404.59702041 95.94649841 413.09432207 116.42620954 414.52734375 139.44140625 C415.17409091 162.1206734 407.22258444 184.52342964 392.20703125 201.52734375 C375.40310795 218.54160823 353.19193672 228.19681033 329.18359375 228.4609375 C307.2749185 228.37582047 285.24034904 220.59287479 269.5234375 205.18359375 C261.74573011 197.21458316 256.30535739 188.06382479 251.1484375 178.24609375 C248.30034497 172.94677403 245.98354523 170.22855888 240.14656067 168.29246521 C233.79439041 166.78237387 227.29061731 167.13436985 220.8034668 167.19165039 C219.33247178 167.19713337 217.86147303 167.20168053 216.39047241 167.20536804 C213.2350038 167.21504245 210.07964724 167.23083585 206.92423058 167.25132942 C201.92605078 167.2832951 196.92790261 167.29867468 191.92964172 167.31138611 C179.51479566 167.34538596 167.1000371 167.39800455 154.68530273 167.46051025 C145.03421835 167.50907304 135.38321378 167.5511187 125.73202449 167.57201856 C120.77238989 167.58348346 115.81308572 167.60878933 110.8535713 167.64476597 C107.75667493 167.66408133 104.65984389 167.67065267 101.56289291 167.67383003 C100.13714336 167.67781819 98.71139649 167.68692244 97.28571892 167.70179367 C83.77832839 167.83750184 71.77716576 165.94223374 61.453125 156.61328125 C56.3209989 151.13758185 52.08483227 144.89017746 47.73681641 138.78979492 C43.42570109 132.74724646 38.97855928 126.82302465 34.4609375 120.93359375 C28.78482762 113.52867824 23.20159726 106.06552088 17.68994141 98.53759766 C13.31067602 92.57173174 8.83742192 86.68261272 4.3359375 80.80859375 C-2.27698699 72.167748 -8.72336964 63.42514697 -15.03271484 54.56054688 C-16.65032501 52.30304175 -18.29006524 50.06290889 -19.93359375 47.82421875 C-28.09212972 36.63616831 -35.250699 26.18209966 -33.0390625 11.68359375 C-30.49321905 5.81708493 -26.40710182 0.96529437 -20.640625 -1.96875 C-13.67960066 -4.22241497 -6.52685525 -2.97517534 0 0 Z M300.42578125 117.40625 C292.73087794 126.66954125 289.64752366 136.82711825 290.703125 148.75 C292.46675445 157.93474437 297.56065033 167.98519782 305.3984375 173.37109375 C316.44476863 179.69240463 326.25578775 183.32828099 338.97265625 180.1875 C350.14060422 176.42888305 357.80446717 170.07933298 363.2734375 159.74609375 C367.91089093 150.31911864 368.70446269 141.01321899 365.46875 131 C360.6465977 119.15580841 353.56861017 112.3445111 341.9140625 107.31640625 C327.38420264 101.85642785 311.10150994 106.3922804 300.42578125 117.40625 Z " fill="#000000" transform="translate(946.6015625,1099.62890625)"/>
<path d="M0 0 C18.15993929 14.08251896 29.74552722 33.32617692 33.65234375 55.98046875 C36.25782399 78.57753106 31.85431752 101.16088826 18.0703125 119.60546875 C15.22880047 123.10964684 12.23361355 126.38996802 9.0703125 129.60546875 C8.30976562 130.37890625 7.54921875 131.15234375 6.765625 131.94921875 C-9.65681731 147.67168811 -32.00073284 155.0782211 -54.49609375 154.8203125 C-77.83676711 153.35986081 -98.2012246 143.94041811 -114.4921875 127.10546875 C-118.87118006 122.10651129 -122.11479388 116.55973211 -125.30493164 110.7578125 C-129.18612948 103.77279243 -133.68398152 96.66000078 -141.63818359 94.04345703 C-144.7705341 93.44475292 -147.78006978 93.47551972 -150.96875 93.47265625 C-151.99009537 93.47122116 -151.99009537 93.47122116 -153.03207397 93.46975708 C-154.47271822 93.46907781 -155.91336557 93.47091443 -157.35400391 93.47509766 C-159.52643995 93.48039981 -161.69866453 93.47517 -163.87109375 93.46875 C-170.46563788 93.46571715 -176.96107904 93.60464756 -183.51904297 94.36962891 C-227.45664202 98.6681625 -276.88640609 84.61322105 -311.9296875 57.60546875 C-317.15067648 52.8423317 -321.25214905 48.2483901 -322.30078125 41.0625 C-322.5021703 33.0424771 -320.69217416 26.74506114 -315.21484375 20.71875 C-309.55534841 15.60415137 -304.39015537 14.11876859 -296.81640625 14.30078125 C-289.59722174 15.06275201 -283.95757026 18.51816995 -277.9296875 22.35546875 C-234.98541235 49.48614611 -185.49034671 46.12362023 -136.9296875 44.60546875 C-136.80384277 43.83452881 -136.67799805 43.06358887 -136.54833984 42.26928711 C-135.71713426 38.69024837 -133.97367592 36.91890037 -131.5546875 34.16796875 C-130.63325949 33.10603459 -129.71406971 32.0421551 -128.796875 30.9765625 C-128.08289551 30.14874268 -128.08289551 30.14874268 -127.35449219 29.30419922 C-125.49303254 27.08486471 -123.75238965 24.78495961 -122.00585938 22.47485352 C-107.6788651 3.62979201 -90.69415537 -10.90884108 -66.86328125 -15.88671875 C-42.34867525 -19.05146431 -20.21879755 -14.33766443 0 0 Z M-80.6796875 44.51953125 C-87.48821266 53.06423032 -90.24394936 61.64558627 -89.9296875 72.60546875 C-88.40753536 83.5678914 -82.96029637 92.81583657 -74.4765625 99.84765625 C-65.91611523 105.75594041 -56.26838253 108.60750123 -45.92578125 107.1953125 C-34.35173516 104.72677393 -25.93514628 99.10824386 -18.9296875 89.60546875 C-12.98831685 80.37512506 -11.80523331 70.30272044 -13.9296875 59.60546875 C-18.28189435 47.57117867 -25.51168129 39.21230413 -36.91015625 33.63671875 C-52.60750114 27.27531819 -69.59064969 32.39089615 -80.6796875 44.51953125 Z " fill="#000000" transform="translate(1326.9296875,864.39453125)"/>
<path d="M0 0 C2.5023447 2.21636245 4.93080183 4.49189628 7.34765625 6.80078125 C7.97414063 7.3525 8.600625 7.90421875 9.24609375 8.47265625 C22.94986415 20.99827444 31.02654971 42.2034304 32.2578125 60.4921875 C32.30228516 61.63494141 32.30228516 61.63494141 32.34765625 62.80078125 C32.38761719 63.57292969 32.42757813 64.34507812 32.46875 65.140625 C33.13968905 89.49176594 23.22686794 111.31131342 6.78515625 128.80078125 C-9.89365064 145.09937217 -32.84056198 153.25674131 -55.9609375 153.015625 C-76.54073367 151.81785909 -95.11052833 144.41936199 -110.65234375 130.80078125 C-111.34070312 130.2078125 -112.0290625 129.61484375 -112.73828125 129.00390625 C-120.3434595 121.96986787 -125.56354467 112.80913345 -130.40234375 103.73828125 C-133.44880644 98.17203247 -136.8125809 94.60513626 -142.91659546 92.42282104 C-149.34120907 90.96202681 -156.11381608 91.35141201 -162.671875 91.3671875 C-164.3380301 91.3626188 -166.00418333 91.3573112 -167.67033386 91.3513031 C-171.15440548 91.34239541 -174.63824761 91.34476713 -178.12231445 91.35473633 C-182.56047304 91.36620549 -186.99783351 91.34603447 -191.43588734 91.31681919 C-194.87543166 91.29836143 -198.31478825 91.29876888 -201.75436974 91.30445671 C-203.38923955 91.30460885 -205.02412297 91.2986543 -206.65894508 91.28616524 C-216.89449524 91.21899353 -227.12812541 91.19200481 -235.38671875 98.08203125 C-236.134375 98.97921875 -236.88203125 99.87640625 -237.65234375 100.80078125 C-238.79447313 102.00719815 -239.94638735 103.20439194 -241.10546875 104.39453125 C-241.72550781 105.03261719 -242.34554688 105.67070313 -242.984375 106.328125 C-243.61730469 106.97910156 -244.25023437 107.63007812 -244.90234375 108.30078125 C-245.51980469 108.95175781 -246.13726563 109.60273437 -246.7734375 110.2734375 C-253.19066158 116.82297548 -260.4346709 121.86123854 -269.83984375 122.11328125 C-276.44479245 122.01755736 -280.74331203 120.4990984 -285.59375 116 C-290.39409529 110.8388772 -293.66093782 105.67036787 -294.15234375 98.48828125 C-293.87003381 91.28324065 -290.31344596 85.17777893 -285.27734375 80.17578125 C-284.67792969 79.62277344 -284.07851562 79.06976562 -283.4609375 78.5 C-281.60702916 76.75820707 -279.98480549 74.92740086 -278.33984375 72.98828125 C-271.72421787 65.33432844 -264.45070324 58.24427425 -256.65234375 51.80078125 C-255.64880859 50.96353516 -255.64880859 50.96353516 -254.625 50.109375 C-253.95339844 49.57441406 -253.28179688 49.03945313 -252.58984375 48.48828125 C-252.00074219 48.01777344 -251.41164063 47.54726563 -250.8046875 47.0625 C-244.78457724 43.53346985 -238.56956747 43.51430274 -231.7890625 43.54541016 C-230.82392731 43.5417897 -229.85879211 43.53816925 -228.8644104 43.53443909 C-226.77848248 43.52757019 -224.69253669 43.52503493 -222.6065979 43.52638626 C-219.30230633 43.52735475 -215.99833713 43.51437172 -212.6940918 43.49740601 C-203.30292219 43.45122515 -193.91178715 43.42652207 -184.52050781 43.41992188 C-178.76755907 43.4149046 -173.01494935 43.39064772 -167.26211548 43.35459518 C-165.07412756 43.3448065 -162.88609297 43.34246013 -160.6980896 43.34776688 C-157.63689958 43.35484529 -154.5767196 43.33753988 -151.515625 43.31494141 C-150.61671539 43.32311386 -149.71780579 43.33128632 -148.79165649 43.33970642 C-142.92075988 43.2627529 -139.47384838 42.20285073 -134.65234375 38.80078125 C-132.85896154 36.57836434 -132.85896154 36.57836434 -131.73046875 34.01953125 C-131.26809814 33.10059082 -130.80572754 32.18165039 -130.3293457 31.23486328 C-129.85843506 30.26661621 -129.38752441 29.29836914 -128.90234375 28.30078125 C-124.12570777 19.03110554 -119.27821603 11.91671679 -111.65234375 4.80078125 C-110.56566406 3.70636719 -110.56566406 3.70636719 -109.45703125 2.58984375 C-80.39756992 -25.39731273 -30.54334113 -25.32533292 0 0 Z M-82.40234375 42.6796875 C-89.62957806 51.62338995 -92.37549965 61.85498916 -91.3359375 73.1875 C-89.18873077 84.5370213 -82.92272388 93.16652817 -73.65234375 99.80078125 C-65.79603937 104.98386297 -56.7870428 106.54739639 -47.51171875 105.39453125 C-36.87234957 103.18526333 -28.4353984 98.11525252 -21.87109375 89.44921875 C-15.48626918 79.59029846 -13.18062124 69.37230896 -15.65234375 57.80078125 C-20.02987447 45.7662319 -27.22065138 37.41431125 -38.6328125 31.83203125 C-54.39830353 25.44301425 -71.19706839 30.64902355 -82.40234375 42.6796875 Z " fill="#000000" transform="translate(1328.65234375,495.19921875)"/>
<path d="M0 0 C1.73067215 -0.00503792 1.73067215 -0.00503792 3.49630737 -0.01017761 C7.30126022 -0.01965721 11.1061689 -0.02162928 14.91113281 -0.02270508 C16.89390805 -0.02510679 18.87668329 -0.02751039 20.85945821 -0.03016549 C27.09218111 -0.0382915 33.32488959 -0.04075147 39.55761719 -0.04003906 C45.96219943 -0.0394391 52.36669722 -0.04997887 58.77125812 -0.06578273 C64.29085009 -0.07891169 69.81041465 -0.0842207 75.3300221 -0.08358365 C78.61727366 -0.08333018 81.90443382 -0.08703465 85.19167328 -0.0967617 C88.86483161 -0.10661245 92.53777535 -0.1036633 96.2109375 -0.09765625 C97.28248077 -0.10327576 98.35402405 -0.10889526 99.45803833 -0.11468506 C109.42185681 -0.07349754 119.5191244 0.34970593 127.36425781 7.14526367 C133.18875584 13.62338367 133.72814902 19.30182361 133.64160156 27.87963867 C133.11556384 34.07354759 130.88322629 37.62629519 126.55175781 41.95776367 C117.54196195 48.14095691 108.97595058 48.29477491 98.44311523 48.29052734 C97.24725296 48.29388596 96.05139069 48.29724457 94.81929016 48.30070496 C91.55054042 48.3085602 88.28182886 48.31188155 85.01307082 48.31252074 C82.96700188 48.31323337 80.92093951 48.31537173 78.87487221 48.31801796 C71.72574061 48.32725973 64.57662761 48.33135436 57.42749023 48.33056641 C50.78147456 48.3299661 44.13554017 48.34051168 37.48954505 48.35631007 C31.76873241 48.36942071 26.04794623 48.37474882 20.32711869 48.374111 C16.91696041 48.37385702 13.5068744 48.37665234 10.09673119 48.38728905 C6.28894729 48.39711162 2.48137139 48.39420173 -1.32641602 48.38818359 C-2.44412384 48.3938031 -3.56183167 48.39942261 -4.71340942 48.4052124 C-14.53480865 48.36586805 -22.758736 47.34327081 -30.63574219 41.14526367 C-36.58477935 34.88311929 -37.08846664 28.97679993 -36.94824219 20.59838867 C-36.37707966 14.28704271 -34.25135937 10.79759943 -29.88574219 6.33276367 C-20.60676214 0.08729633 -10.85656173 -0.00455711 0 0 Z " fill="#000000" transform="translate(701.6357421875,723.854736328125)"/>
<path d="M0 0 C1.08481659 -0.0071553 2.16963318 -0.01431061 3.287323 -0.02168274 C4.46766113 -0.02437164 5.64799927 -0.02706055 6.86410522 -0.02983093 C8.11513031 -0.03640213 9.3661554 -0.04297333 10.65509033 -0.04974365 C14.79556521 -0.06945507 18.9360014 -0.08114113 23.07650757 -0.09111023 C24.50672804 -0.09516073 25.93694833 -0.09927774 27.36716843 -0.10346031 C34.08995826 -0.12249856 40.81273722 -0.13673108 47.53554881 -0.14507228 C55.27254733 -0.15483258 63.00925885 -0.181126 70.74615633 -0.22157317 C76.74128627 -0.25182918 82.73633438 -0.26655019 88.73153913 -0.26985329 C92.30507955 -0.27219343 95.8783129 -0.28101705 99.45177078 -0.30631447 C103.44616716 -0.33413606 107.43993032 -0.32973528 111.43441772 -0.32279968 C113.18670685 -0.34201477 113.18670685 -0.34201477 114.97439575 -0.36161804 C123.10338827 -0.31038412 131.45890182 0.53357948 137.77727699 6.13166332 C143.73570653 12.51618221 145.05728485 18.14726466 144.92025757 26.77998352 C144.17896462 33.30033574 141.50835505 38.22209615 136.84994507 42.77217102 C134.53744507 44.14717102 134.53744507 44.14717102 132.53744507 44.14717102 C132.20744507 44.80717102 131.87744507 45.46717102 131.53744507 46.14717102 C124.33996009 48.25419549 117.49348539 48.44364158 110.03207397 48.43769836 C108.80972549 48.44441559 107.58737701 48.45113281 106.32798767 48.45805359 C102.99929908 48.47371708 99.67086012 48.48040384 96.34215212 48.48168516 C94.25634366 48.48311377 92.17056082 48.48739664 90.08475876 48.4926796 C82.7906505 48.51113898 75.49661497 48.51935514 68.20248413 48.51777649 C61.43081021 48.51657538 54.65945513 48.53768205 47.88786185 48.56926382 C42.04974977 48.59551018 36.21174134 48.60614034 30.3735708 48.60486567 C26.89735625 48.60435859 23.42142567 48.60989965 19.94527054 48.63122177 C16.0639247 48.65438355 12.18300865 48.64503228 8.30160522 48.63301086 C7.16774887 48.64424988 6.03389252 48.65548889 4.86567688 48.66706848 C-4.49824542 48.59370263 -12.64347916 46.43845703 -20.46255493 41.14717102 C-22.02507415 38.78107049 -23.27076019 36.6783681 -24.46255493 34.14717102 C-24.89567993 33.23967102 -25.32880493 32.33217102 -25.77505493 31.39717102 C-27.40659904 23.68441704 -25.9423963 16.2605905 -22.18521118 9.38154602 C-16.68283631 2.24467884 -8.63150679 0.0392507 0 0 Z " fill="#020202" transform="translate(690.4625549316406,538.8528289794922)"/>
<path d="M0 0 C1.26472137 -0.00540298 2.52944275 -0.01080597 3.83248901 -0.01637268 C7.27265214 -0.03022779 10.71230955 -0.01922926 14.15244412 -0.00266147 C17.76902649 0.01128607 21.38558238 0.0047181 25.00218201 0.00120544 C31.07201191 -0.00148873 37.14164317 0.01191143 43.21142578 0.03515625 C50.20977351 0.06177309 57.2077896 0.06350635 64.20617062 0.05176789 C70.96476481 0.04095655 77.72324009 0.04720262 84.48182487 0.06132317 C87.34644347 0.06705276 90.21097417 0.06702434 93.07559395 0.06225777 C97.08182685 0.05656128 101.08757221 0.0758858 105.09375 0.09765625 C106.85906822 0.09090378 106.85906822 0.09090378 108.66004944 0.08401489 C118.50326568 0.17263123 126.08474262 1.68933105 133.31811523 8.63452148 C138.31543512 14.24184286 138.58523868 19.92029748 138.39233398 27.20874023 C137.58153059 33.71833324 134.97997779 39.29834141 129.79467773 43.43920898 C121.40672253 48.34767562 112.78127387 48.94320495 103.25561523 48.90576172 C102.02176086 48.91262497 100.78790649 48.91948822 99.5166626 48.92655945 C96.16112911 48.94163335 92.80615547 48.94334724 89.45063019 48.93761706 C86.63766064 48.9345073 83.82474037 48.94063721 81.01177788 48.94665581 C74.37100933 48.96065686 67.73036955 48.95917613 61.08959961 48.94775391 C54.26277031 48.9362704 47.43633378 48.95036205 40.6095562 48.97715038 C34.72386873 48.99937206 28.83830399 49.00593046 22.95257759 49.00007397 C19.44792383 48.99671937 15.94352186 48.99901904 12.43890381 49.016325 C8.52869501 49.03479503 4.61896243 49.02054063 0.70874023 49.00341797 C-0.43649109 49.01308594 -1.58172241 49.02275391 -2.76165771 49.03271484 C-9.98899518 48.96667918 -15.53872617 47.70270217 -22.01782227 44.50170898 C-22.73618256 44.18009009 -23.45454285 43.8584712 -24.19467163 43.52710629 C-26.77193924 42.07756986 -27.61459921 40.05302364 -29.01782227 37.50170898 C-29.67782227 36.84170898 -30.33782227 36.18170898 -31.01782227 35.50170898 C-33.39329453 27.84740946 -34.31208689 21.7047471 -30.83032227 14.31420898 C-23.8999187 1.74322697 -13.50832034 -0.11116101 0 0 Z " fill="#020202" transform="translate(697.017822265625,909.498291015625)"/>
<path d="M0 0 C7.69239296 5.46327406 12.88298985 13.2490223 14.58203125 22.59375 C15.55531597 32.00806769 13.23128104 40.46217839 7.26953125 47.83984375 C4.63917648 50.57370786 1.75500197 52.5191153 -1.41796875 54.59375 C-2.07796875 55.25375 -2.73796875 55.91375 -3.41796875 56.59375 C-6.04296875 56.71875 -6.04296875 56.71875 -8.41796875 56.59375 C-8.91296875 57.58375 -8.91296875 57.58375 -9.41796875 58.59375 C-17.6992344 59.04183451 -25.51263017 58.22886286 -33.41796875 55.59375 C-33.74796875 54.93375 -34.07796875 54.27375 -34.41796875 53.59375 C-35.40796875 53.26375 -36.39796875 52.93375 -37.41796875 52.59375 C-42.69013871 46.64130004 -46.72266314 40.39502919 -48.41796875 32.59375 C-48.57007813 31.90410156 -48.7221875 31.21445312 -48.87890625 30.50390625 C-50.31634201 22.18275034 -46.84133301 14.50458071 -42.41796875 7.59375 C-31.59701415 -5.09964342 -14.54028108 -8.45638318 0 0 Z " fill="#030305" transform="translate(612.41796875,906.40625)"/>
<path d="M0 0 C6.85671087 5.75235567 10.83512954 13.16530312 12.25 21.9375 C12.97510874 30.92884833 10.82730964 39.02219544 5.0390625 46.05078125 C-1.08283111 52.50683936 -6.71692806 56.43350886 -15.75 56.9375 C-25.06473506 57.11149879 -34.34043679 55.74600063 -41.54296875 49.34375 C-44.75 45.67857143 -44.75 45.67857143 -44.75 42.9375 C-45.41 42.9375 -46.07 42.9375 -46.75 42.9375 C-51.46581234 31.10956677 -52.51144828 23.11008673 -47.95703125 10.79296875 C-44.92760254 4.49232594 -38.33547896 -1.15804554 -32 -4 C-20.83715918 -7.64939027 -9.76674879 -6.94815686 0 0 Z " fill="#030304" transform="translate(614.75,537.0625)"/>
<path d="M0 0 C7.4445732 5.32690868 11.88663356 11.60445648 14.3515625 20.34375 C15.41108944 29.0318709 14.08662869 36.24746887 10.0390625 44.03125 C4.44516156 50.8028143 -1.41706831 56.49363407 -10.3359375 57.90625 C-21.85118714 58.90882149 -30.36238607 57.29237465 -39.32421875 49.86328125 C-45.69526799 43.66542558 -48.35400896 36.35183827 -48.6484375 27.53125 C-48.4651743 18.62465843 -45.60567344 11.31099735 -39.359375 4.8671875 C-28.14986441 -5.72599261 -13.83857497 -7.90775713 0 0 Z " fill="#000000" transform="translate(612.3359375,721.09375)"/>
<path d="M0 0 C0.66 0.33 1.32 0.66 2 1 C-0.31 3.31 -2.62 5.62 -5 8 C-5 5 -5 5 -2.5 2.3125 C-1.675 1.549375 -0.85 0.78625 0 0 Z " fill="#232D3C" transform="translate(674,543)"/>
<path d="" fill="#000000" transform="translate(0,0)"/>
<path d="" fill="#000000" transform="translate(0,0)"/>
<path d="" fill="#000000" transform="translate(0,0)"/>
<path d="" fill="#000000" transform="translate(0,0)"/>
</svg>
