<svg width="42" height="42" viewBox="0 0 42 42" fill="none" xmlns="http://www.w3.org/2000/svg">
<path d="M21 3.5C30.665 3.5 38.5 11.335 38.5 21C38.5 30.665 30.665 38.5 21 38.5C11.335 38.5 3.5 30.665 3.5 21C3.5 11.335 11.335 3.5 21 3.5ZM21 6.5C12.9919 6.5 6.5 12.9919 6.5 21C6.5 29.0081 12.9919 35.5 21 35.5C29.0081 35.5 35.5 29.0081 35.5 21C35.5 12.9919 29.0081 6.5 21 6.5ZM21.0156 27.5C21.8441 27.5 22.5156 28.1716 22.5156 29C22.5156 29.8284 21.8441 30.5 21.0156 30.5H21C20.1716 30.5 19.5 29.8284 19.5 29C19.5 28.1716 20.1716 27.5 21 27.5H21.0156ZM17.6797 12.3613C18.9623 11.6076 20.4703 11.3326 21.9365 11.584C23.4029 11.8355 24.7333 12.5981 25.6914 13.7363C26.649 14.874 27.1737 16.3138 27.1719 17.8008L27.167 18.0225C27.0615 20.2952 25.3538 21.8149 24.1035 22.6484C23.4129 23.1088 22.7329 23.448 22.2314 23.6709C21.9787 23.7832 21.7654 23.8684 21.6123 23.9268C21.5356 23.956 21.4728 23.9791 21.4277 23.9951C21.4057 24.0029 21.3876 24.009 21.374 24.0137L21.3477 24.0225L21.3467 24.0234C21.346 24.023 21.3365 23.9937 20.8721 22.6006L21.3457 24.0234C20.56 24.2851 19.7102 23.8598 19.4482 23.0742C19.1868 22.2888 19.6114 21.44 20.3965 21.1777H20.3975C20.4018 21.1762 20.4104 21.1724 20.4229 21.168C20.4481 21.159 20.4895 21.1447 20.5439 21.124C20.6533 21.0824 20.8157 21.0172 21.0127 20.9297C21.411 20.7527 21.9305 20.4916 22.4395 20.1523C23.5485 19.413 24.1715 18.6043 24.1719 17.8008V17.7979C24.173 17.0187 23.8982 16.2641 23.3965 15.668C22.8946 15.0718 22.1977 14.6728 21.4297 14.541C20.6616 14.4093 19.8711 14.5534 19.1992 14.9482C18.5276 15.3431 18.0173 15.9633 17.7588 16.6982C17.4838 17.4795 16.6271 17.89 15.8457 17.6152C15.0645 17.3402 14.654 16.4835 14.9287 15.7021C15.4225 14.2988 16.3972 13.1151 17.6797 12.3613Z" fill="url(#paint0_linear_71_161)"/>
<defs>
<linearGradient id="paint0_linear_71_161" x1="21" y1="3.5" x2="21" y2="38.5" gradientUnits="userSpaceOnUse">
<stop stop-color="#6391FF"/>
<stop offset="1" stop-color="#0747DD"/>
</linearGradient>
</defs>
</svg>
