<svg width="42" height="42" viewBox="0 0 42 42" fill="none" xmlns="http://www.w3.org/2000/svg">
<path d="M33.7998 22.7002C36.3955 22.7002 38.5 24.8047 38.5 27.4004V33.7998C38.4999 36.3954 36.3955 38.5 33.7998 38.5H8.2002C5.60454 38.5 3.50013 36.3954 3.5 33.7998V27.4004C3.5 24.8047 5.60446 22.7002 8.2002 22.7002H33.7998ZM8.2002 25.7002C7.26131 25.7002 6.5 26.4615 6.5 27.4004V33.7998C6.50013 34.7386 7.26139 35.5 8.2002 35.5H33.7998C34.7386 35.5 35.4999 34.7386 35.5 33.7998V27.4004C35.5 26.4615 34.7387 25.7002 33.7998 25.7002H8.2002ZM11.416 29.0996C12.2441 29.0999 12.9158 29.7715 12.916 30.5996C12.916 31.4279 12.2442 32.0993 11.416 32.0996H11.4004C10.572 32.0996 9.90039 31.428 9.90039 30.5996C9.90059 29.7714 10.5721 29.0996 11.4004 29.0996H11.416ZM17.8154 29.0996C18.6437 29.0996 19.3152 29.7714 19.3154 30.5996C19.3154 31.428 18.6439 32.0996 17.8154 32.0996H17.7998C16.9715 32.0995 16.2998 31.428 16.2998 30.5996C16.3 29.7714 16.9716 29.0997 17.7998 29.0996H17.8154ZM21 3.5C21.8284 3.5 22.5 4.17157 22.5 5V14.1777L26.3398 10.3398C26.9256 9.75415 27.8752 9.75418 28.4609 10.3398C29.0463 10.9256 29.0465 11.8753 28.4609 12.4609L22.0615 18.8613C22.0002 18.9227 21.9328 18.9749 21.8643 19.0234C21.854 19.0307 21.8444 19.0389 21.834 19.0459C21.7225 19.1207 21.6032 19.1781 21.4795 19.2197C21.4658 19.2243 21.4523 19.2292 21.4385 19.2334C21.412 19.2415 21.3852 19.2483 21.3584 19.2549C21.3367 19.2602 21.3151 19.2661 21.293 19.2705C21.2651 19.276 21.237 19.2793 21.209 19.2832C21.1888 19.286 21.1688 19.29 21.1484 19.292C21.0494 19.3018 20.9497 19.3018 20.8506 19.292C20.8302 19.29 20.8102 19.286 20.79 19.2832C20.762 19.2793 20.7339 19.276 20.7061 19.2705C20.684 19.2661 20.6623 19.2602 20.6406 19.2549C20.6138 19.2483 20.5871 19.2415 20.5605 19.2334C20.5467 19.2292 20.5332 19.2243 20.5195 19.2197C20.3959 19.178 20.2765 19.1207 20.165 19.0459C20.1546 19.0389 20.145 19.0307 20.1348 19.0234C20.0667 18.9752 20.0005 18.9223 19.9395 18.8613L13.54 12.4609C12.9543 11.8752 12.9543 10.9256 13.54 10.3398C14.1258 9.75412 15.0754 9.75408 15.6611 10.3398L19.5 14.1777V5C19.5 4.17157 20.1716 3.5 21 3.5Z" fill="url(#paint0_linear_71_148)"/>
<defs>
<linearGradient id="paint0_linear_71_148" x1="21" y1="3.5" x2="21" y2="38.5" gradientUnits="userSpaceOnUse">
<stop stop-color="#6391FF"/>
<stop offset="1" stop-color="#0747DD"/>
</linearGradient>
</defs>
</svg>
