<svg width="42" height="42" viewBox="0 0 42 42" fill="none" xmlns="http://www.w3.org/2000/svg">
<path d="M29.6787 5.5127C30.4871 5.56951 31.2712 5.82209 31.9629 6.25098C32.7519 6.74026 33.3887 7.43959 33.8027 8.27051H33.8037L39.4707 19.5879H39.4697C39.6484 19.9444 39.7821 20.32 39.8711 20.7061C39.873 20.7151 39.8742 20.7243 39.876 20.7334C39.9565 21.0917 40 21.4585 40 21.8281V31.5C40 32.8261 39.4728 34.0975 38.5352 35.0352C37.5975 35.9728 36.3261 36.5 35 36.5H7C5.67392 36.5 4.40253 35.9728 3.46484 35.0352C2.52716 34.0975 2 32.8261 2 31.5V21.8281C2.00002 21.4586 2.04256 21.0917 2.12305 20.7334C2.12483 20.7243 2.12599 20.7151 2.12793 20.7061C2.21693 20.3199 2.35159 19.9444 2.53027 19.5879H2.5293L8.19629 8.27051C8.61029 7.43942 9.24796 6.74034 10.0371 6.25098C10.8276 5.76083 11.7389 5.50054 12.6689 5.5H29.3311L29.6787 5.5127ZM5 31.5C5 32.0304 5.21086 32.539 5.58594 32.9141C5.96101 33.2891 6.46957 33.5 7 33.5H35C35.5304 33.5 36.039 33.2891 36.4141 32.9141C36.7891 32.539 37 32.0304 37 31.5V22.5225H5V31.5ZM10.5186 26.5C11.3468 26.5002 12.0186 27.1717 12.0186 28C12.0186 28.8283 11.3468 29.4998 10.5186 29.5H10.5C9.67157 29.5 9 28.8284 9 28C9 27.1716 9.67157 26.5 10.5 26.5H10.5186ZM17.5186 26.5C18.3468 26.5002 19.0186 27.1717 19.0186 28C19.0186 28.8283 18.3468 29.4998 17.5186 29.5H17.5C16.6716 29.5 16 28.8284 16 28C16 27.1716 16.6716 26.5 17.5 26.5H17.5186ZM12.5312 8.50488C12.2082 8.52765 11.8946 8.62847 11.6182 8.7998C11.3019 8.9959 11.0464 9.27714 10.8809 9.61035L10.8789 9.61426L5.91797 19.5225H36.082L31.1211 9.61426L31.1191 9.61035C30.9536 9.27714 30.6981 8.99589 30.3818 8.7998C30.1054 8.62847 29.7918 8.52765 29.4688 8.50488L29.3291 8.5H12.6709L12.5312 8.50488Z" fill="url(#paint0_linear_71_125)"/>
<defs>
<linearGradient id="paint0_linear_71_125" x1="21" y1="5.5" x2="21" y2="36.5" gradientUnits="userSpaceOnUse">
<stop stop-color="#6391FF"/>
<stop offset="1" stop-color="#0747DD"/>
</linearGradient>
</defs>
</svg>
