<svg width="42" height="42" viewBox="0 0 42 42" fill="none" xmlns="http://www.w3.org/2000/svg">
<path d="M9.97101 26.9144C11.2194 26.9532 12.4138 27.4227 13.3519 28.2396L13.5355 28.4076L13.554 28.4252C15.565 30.4127 15.5446 33.6129 13.8089 35.6722C13.0533 36.5725 12.0016 37.245 10.9681 37.7504C9.91746 38.264 8.7788 38.657 7.7503 38.9515C6.71727 39.2473 5.76303 39.4533 5.06866 39.5853C4.7207 39.6514 4.43444 39.6999 4.2337 39.7318C4.1336 39.7477 4.05392 39.7598 3.99835 39.7679C3.97083 39.7719 3.94848 39.7746 3.93292 39.7767C3.92542 39.7778 3.91893 39.779 3.91437 39.7796C3.9123 39.7799 3.90995 39.7804 3.90851 39.7806H3.90558C3.44242 39.8426 2.97633 39.6852 2.64581 39.3548C2.31528 39.0244 2.15815 38.5584 2.22003 38.0951V38.0921C2.22025 38.0907 2.22071 38.0885 2.22101 38.0863C2.22161 38.0817 2.22191 38.0753 2.22296 38.0677C2.22514 38.0522 2.22871 38.03 2.23273 38.0023C2.2408 37.9467 2.25298 37.8672 2.26886 37.767C2.30068 37.566 2.34828 37.2794 2.41437 36.931C2.5462 36.2361 2.75173 35.2813 3.04718 34.2474C3.34138 33.218 3.73424 32.0782 4.24737 31.0267C4.75213 29.9925 5.42313 28.9393 6.32257 28.183C7.34074 27.325 8.64018 26.8732 9.97101 26.9144ZM38.303 2.20543C39.1275 2.21054 39.7938 2.88105 39.7942 3.70543C39.7942 8.72597 38.3867 17.4675 29.3255 24.0892C29.327 24.0957 29.3289 24.1022 29.3304 24.1087C29.4783 24.7487 29.6569 25.639 29.7767 26.6302C29.8957 27.6158 29.9622 28.7404 29.8665 29.8392C29.7721 30.923 29.5107 32.0946 28.89 33.0882L28.889 33.0902C27.8086 34.8128 25.7396 35.8394 24.2484 36.4164C23.4572 36.7225 22.7256 36.9404 22.1927 37.0814C21.9253 37.1521 21.7044 37.2045 21.5482 37.2396C21.4701 37.2572 21.407 37.2704 21.3626 37.2796C21.3407 37.2842 21.3228 37.2878 21.3099 37.2904C21.3036 37.2916 21.2983 37.2935 21.2942 37.2943C21.2923 37.2947 21.2898 37.295 21.2884 37.2953H21.2864C21.285 37.2896 21.2671 37.2006 21.0003 35.8226L21.2855 37.2953C20.8459 37.3804 20.3916 37.2647 20.0462 36.9798C19.7009 36.6949 19.5003 36.2703 19.5003 35.8226V28.4808C19.3845 28.4152 19.276 28.3337 19.179 28.2367L13.763 22.8207C13.6663 22.7239 13.5853 22.6158 13.5198 22.5004H6.17706C5.72952 22.5004 5.30479 22.2995 5.01984 21.9545C4.73514 21.6093 4.61958 21.1545 4.70441 20.7152V20.7142L4.70538 20.7123C4.70565 20.7109 4.70599 20.7092 4.70636 20.7074C4.70716 20.7033 4.70799 20.6973 4.70929 20.6908C4.71189 20.6778 4.71545 20.6601 4.72003 20.638C4.72928 20.5936 4.7425 20.5308 4.76007 20.4525C4.79519 20.2959 4.84755 20.0751 4.91827 19.807C5.05922 19.2728 5.27626 18.5388 5.58234 17.7455C6.15901 16.2509 7.18539 14.1774 8.90753 13.0941L8.90948 13.0931C9.90813 12.4673 11.0856 12.2116 12.1722 12.1254C13.2737 12.0381 14.4007 12.1159 15.387 12.2464C16.3756 12.3773 17.2629 12.5667 17.9026 12.723C20.0687 9.64262 22.9111 7.09028 26.221 5.26988C29.9211 3.23493 34.0803 2.17931 38.303 2.20543ZM9.87823 29.9125C9.28655 29.8942 8.70827 30.0959 8.25519 30.4779L8.25323 30.4789C7.80979 30.8517 7.36221 31.4846 6.94366 32.3421C6.53349 33.1827 6.19737 34.1429 5.93195 35.0716C5.79779 35.5411 5.68366 35.9949 5.5882 36.4105C6.0028 36.3151 6.45587 36.2018 6.92413 36.0677C7.85173 35.8021 8.81126 35.4664 9.6507 35.056C10.5073 34.6372 11.1395 34.1884 11.512 33.7445L11.515 33.7406C12.3139 32.7937 12.2622 31.3833 11.4583 30.5736C11.0302 30.1667 10.4679 29.9308 9.87823 29.9125ZM26.6194 25.8177C25.2851 26.578 23.91 27.2639 22.5003 27.8734V33.8568C22.7137 33.7851 22.9382 33.7068 23.1663 33.6185C24.5824 33.0705 25.8227 32.3324 26.347 31.4964C26.6184 31.0608 26.8043 30.4152 26.8773 29.5785C26.9489 28.7553 26.9033 27.8521 26.7991 26.9896C26.7491 26.5759 26.6854 26.1804 26.6194 25.8177ZM36.7425 5.2523C33.5661 5.45824 30.4664 6.35786 27.6663 7.89781C24.4145 9.68626 21.6743 12.2778 19.7064 15.4242C19.7037 15.4284 19.7003 15.4327 19.6976 15.4369C18.4861 17.3291 17.4439 19.3247 16.5833 21.3988L20.6038 25.4193C22.7045 24.5596 24.7266 23.5176 26.6468 22.305C34.5698 16.9826 36.4388 9.9714 36.7425 5.2523ZM14.9935 15.2201C14.1316 15.106 13.2301 15.0506 12.4095 15.1156C11.5742 15.1818 10.9337 15.3654 10.5032 15.6351L10.5023 15.6341C9.66683 16.161 8.92993 17.4058 8.38214 18.8255C8.29283 19.057 8.21326 19.284 8.14093 19.5004H14.1341C14.7466 18.1028 15.4359 16.7404 16.1995 15.4193C15.8277 15.3463 15.4201 15.2766 14.9935 15.2201Z" fill="url(#paint0_linear_71_113)"/>
<defs>
<linearGradient id="paint0_linear_71_113" x1="21.0005" y1="2.20496" x2="21.0005" y2="39.7939" gradientUnits="userSpaceOnUse">
<stop stop-color="#6391FF"/>
<stop offset="1" stop-color="#0747DD"/>
</linearGradient>
</defs>
</svg>
