<svg width="422" height="166" viewBox="0 0 422 166" fill="none" xmlns="http://www.w3.org/2000/svg">
<path d="M14.9336 37H6.74512V9.42578H15.3906C23.3125 9.42578 27.9971 14.5674 27.9971 23.1367C27.9971 31.8203 23.2363 37 14.9336 37ZM9.44922 34.5625H14.7812C21.7891 34.5625 25.3691 30.2588 25.3311 23.1367C25.3311 16.0908 21.8652 11.8633 15.2383 11.8633H9.44922V34.5625ZM56.0664 23.2129C56.0664 31.8584 51.0771 37.3809 44.1074 37.3809C37.0996 37.3809 32.1104 31.8584 32.1104 23.2129C32.1104 14.5674 37.0996 9.04492 44.1074 9.04492C51.0771 9.04492 56.0664 14.5674 56.0664 23.2129ZM53.4385 23.2129C53.4385 15.8623 49.4395 11.5967 44.1074 11.5967C38.7754 11.5967 34.7764 15.8623 34.7764 23.2129C34.7764 30.5254 38.7373 34.8291 44.1074 34.8291C49.4395 34.8291 53.4385 30.5635 53.4385 23.2129ZM80.4414 18.0713C79.6797 14.3008 76.4043 11.5967 72.2148 11.5967C67.0352 11.5967 62.8838 15.6719 62.8838 23.2129C62.8838 30.7539 67.0352 34.8291 72.2148 34.8291C76.4043 34.8291 79.6797 32.125 80.4414 28.3545H83.1836C82.2695 33.4961 78.042 37.3809 72.2148 37.3809C65.207 37.3809 60.2178 31.8584 60.2178 23.2129C60.2178 14.5674 65.207 9.04492 72.2148 9.04492C78.042 9.04492 82.2314 12.8535 83.1836 18.0713H80.4414ZM106.645 9.42578H109.349V27.6689C109.349 33.3057 105.083 37.457 98.8369 37.457C92.5527 37.457 88.3252 33.3057 88.3252 27.6689V9.42578H91.0293V27.4785C91.0293 31.7822 94.1143 34.9434 98.8369 34.9434C103.56 34.9434 106.645 31.7822 106.645 27.4785V9.42578ZM115.899 9.42578H119.061L128.925 33.1152H129.191L139.018 9.42578H142.217V37H139.627V15.0244H139.398L130.258 37H127.82L118.68 15.0244H118.451V37H115.899V9.42578ZM148.768 37V9.42578H164.916V11.8633H151.472V21.9941H164.078V24.3936H151.472V34.5625H165.183V37H148.768ZM192.224 9.42578V37H189.634L173.6 14.2627H173.371V37H170.667V9.42578H173.295L189.329 32.2012H189.558V9.42578H192.224ZM197.137 11.8633V9.42578H217.284V11.8633H208.601V37H205.858V11.8633H197.137ZM219.265 37H216.408L226.425 9.42578H229.357L239.374 37H236.518L233.623 28.8115H222.159L219.265 37ZM223.035 26.4121H232.785L227.986 12.9297H227.796L223.035 26.4121ZM238.498 11.8633V9.42578H258.646V11.8633H249.962V37H247.22V11.8633H238.498ZM266.263 9.42578V37H263.559V9.42578H266.263ZM295.551 23.2129C295.551 31.8584 290.562 37.3809 283.592 37.3809C276.584 37.3809 271.595 31.8584 271.595 23.2129C271.595 14.5674 276.584 9.04492 283.592 9.04492C290.562 9.04492 295.551 14.5674 295.551 23.2129ZM292.923 23.2129C292.923 15.8623 288.924 11.5967 283.592 11.5967C278.26 11.5967 274.261 15.8623 274.261 23.2129C274.261 30.5254 278.222 34.8291 283.592 34.8291C288.924 34.8291 292.923 30.5635 292.923 23.2129ZM322.478 9.42578V37H319.888L303.854 14.2627H303.625V37H300.921V9.42578H303.549L319.583 32.2012H319.812V9.42578H322.478Z" fill="white" fill-opacity="0.6"/>
<path d="M343.539 37L335.77 9.42578H341.102L346.091 29.7256H346.357L351.651 9.42578H356.526L361.858 29.7637H362.087L367.076 9.42578H372.408L364.639 37H359.726L354.203 17.6143H354.013L348.452 37H343.539ZM380.521 9.42578V37H375.569V9.42578H380.521ZM385.662 37V9.42578H390.613V22.1084H390.994L401.772 9.42578H407.828L397.164 21.8037L407.942 37H401.963L393.698 25.1553L390.613 28.7734V37H385.662ZM415.94 9.42578V37H410.989V9.42578H415.94Z" fill="white"/>
<path d="M6.21484 142V71.2969H20.8633V102.645H21.8398L47.5234 71.2969H65.1992L38.832 102.938L65.4922 142H47.9141L28.2852 112.801L20.8633 121.785V142H6.21484ZM133.363 106.648C133.363 129.695 119.008 142.977 100.355 142.977C81.5078 142.977 67.25 129.598 67.25 106.648C67.25 83.6016 81.5078 70.3203 100.355 70.3203C119.008 70.3203 133.363 83.6016 133.363 106.648ZM118.422 106.648C118.422 91.5117 111.293 83.3086 100.355 83.3086C89.418 83.3086 82.1914 91.5117 82.1914 106.648C82.1914 121.785 89.418 129.988 100.355 129.988C111.293 129.988 118.422 121.785 118.422 106.648ZM143.91 142V71.2969H171.645C187.758 71.2969 196.938 80.3789 196.938 94.3438C196.938 104.012 192.494 111.043 184.438 114.461L199.477 142H183.266L169.789 116.902H158.559V142H143.91ZM158.559 104.988H168.91C177.602 104.988 181.801 101.375 181.801 94.3438C181.801 87.2148 177.602 83.3086 168.91 83.3086H158.559V104.988ZM207.094 142V71.2969H221.742V129.891H252.211V142H207.094ZM276.332 71.2969V142H261.684V71.2969H276.332ZM347.23 71.2969V142H334.535L303.48 97.0781H302.895V142H288.246V71.2969H301.137L331.996 116.219H332.68V71.2969H347.23ZM372.719 71.2969L387.172 95.6133H387.66L402.211 71.2969H418.812L397.23 106.648L419.301 142H402.309L387.66 117.684H387.172L372.523 142H355.629L377.797 106.648L356.02 71.2969H372.719Z" fill="url(#paint0_linear_71_1207)"/>
<defs>
<linearGradient id="paint0_linear_71_1207" x1="211" y1="47" x2="211" y2="166" gradientUnits="userSpaceOnUse">
<stop stop-color="#F5F9FF"/>
<stop offset="1" stop-color="#ADC8FE"/>
</linearGradient>
</defs>
</svg>
